<?xml version="1.0" encoding="UTF-8"?>
<!DOCTYPE svg PUBLIC "-//W3C//DTD SVG 1.1//EN" "http://www.w3.org/Graphics/SVG/1.1/DTD/svg11.dtd">
<!-- Creator: CorelDRAW X8 -->
<svg xmlns="http://www.w3.org/2000/svg" xml:space="preserve" width="420mm" height="297mm" version="1.1" style="shape-rendering:geometricPrecision; text-rendering:geometricPrecision; image-rendering:optimizeQuality; fill-rule:evenodd; clip-rule:evenodd"
viewBox="0 0 42000 29700"
 xmlns:xlink="http://www.w3.org/1999/xlink">
 <defs>
  <style type="text/css">
   <![CDATA[
    .fil0 {fill:none;fill-rule:nonzero}
    .fil3 {fill:#EDEBE7;fill-rule:nonzero}
    .fil5 {fill:#3C404C;fill-rule:nonzero}
    .fil2 {fill:#3157A7;fill-rule:nonzero}
    .fil4 {fill:#6D91C7;fill-rule:nonzero}
    .fil1 {fill:#A7C6E6;fill-rule:nonzero}
   ]]>
  </style>
 </defs>
 <g id="Layer_x0020_1">
  <metadata id="CorelCorpID_0Corel-Layer"/>
  <polygon class="fil0" points="0,29700 42000,29700 42000,0 0,0 "/>
  <g id="_1838617916880">
   <path class="fil1" d="M13374 23480c-157,0 -245,88 -245,244l0 23c0,127 51,217 202,344 110,94 143,148 143,216l0 36c0,68 -31,102 -94,102 -62,0 -93,-34 -93,-102l0 -78 -158 16 0 73c0,155 92,243 255,243 163,0 254,-88 254,-243l0 -55c0,-130 -56,-220 -206,-347 -111,-93 -138,-148 -138,-211l0 -14c0,-62 29,-95 83,-95 55,0 84,33 84,95l0 40 158 -16 0 -27c0,-156 -88,-244 -245,-244z"/>
   <polygon id="1" class="fil1" points="15781,23647 15781,23495 15318,23495 15318,24582 15781,24582 15781,24430 15483,24430 15483,24107 15723,24107 15723,23955 15483,23955 15483,23647 "/>
   <path id="2" class="fil1" d="M17857 24582l173 0 -150 -495c76,-44 116,-124 116,-239l0 -78c0,-178 -96,-275 -273,-275l-237 0 0 1087 164 0 0 -460 76 0 131 460zm-207 -935l67 0c79,0 115,42 115,134l0 56c0,91 -36,133 -115,133l-67 0 0 -323z"/>
   <polygon id="3" class="fil1" points="20052,24582 20235,23495 20071,23495 19950,24324 19947,24324 19824,23495 19656,23495 19839,24582 "/>
   <polygon id="4" class="fil1" points="22098,24582 22098,23495 21934,23495 21934,24582 "/>
   <path id="5" class="fil1" d="M24092 23480c-160,0 -253,96 -253,261l0 596c0,164 93,260 253,260 162,0 256,-96 256,-260l0 -131 -158 -7 0 121c0,87 -33,125 -93,125 -61,0 -93,-38 -93,-110l0 -593c0,-71 32,-110 93,-110 60,0 93,39 93,126l0 88 158 -8 0 -97c0,-165 -94,-261 -256,-261z"/>
   <polygon id="6" class="fil1" points="26531,23647 26531,23495 26069,23495 26069,24582 26531,24582 26531,24430 26233,24430 26233,24107 26474,24107 26474,23955 26233,23955 26233,23647 "/>
   <path id="7" class="fil1" d="M28443 23480c-157,0 -246,88 -246,244l0 23c0,127 52,217 202,344 110,94 143,148 143,216l0 36c0,68 -31,102 -93,102 -62,0 -93,-34 -93,-102l0 -78 -159 16 0 73c0,155 92,243 255,243 163,0 254,-88 254,-243l0 -55c0,-130 -55,-220 -206,-347 -110,-93 -138,-148 -138,-211l0 -14c0,-62 29,-95 84,-95 54,0 84,33 84,95l0 40 158 -16 0 -27c0,-156 -89,-244 -245,-244z"/>
   <polygon class="fil2" points="13928,21413 13928,21155 13073,21155 13073,21413 13364,21413 13364,22958 13637,22958 13637,21413 "/>
   <polygon id="1" class="fil2" points="15839,21408 15839,21155 15072,21155 15072,22958 15839,22958 15839,22706 15345,22706 15345,22170 15744,22170 15744,21918 15345,21918 15345,21408 "/>
   <polygon id="2" class="fil2" points="17315,22701 17315,21155 17042,21155 17042,22958 17771,22958 17771,22701 "/>
   <path id="3" class="fil2" d="M19742 21130c-250,0 -384,139 -384,399l0 15c0,142 39,260 163,466 -147,168 -199,307 -199,469l0 65c0,285 175,440 448,440 129,0 232,-34 309,-108l52 82 324 0 -221 -332c31,-75 41,-165 41,-268l0 -296 -237 -13 0 265 -5 0 -185 -288c211,-211 278,-322 278,-492l0 -13c0,-245 -134,-391 -384,-391zm3 252c79,0 123,54 123,147l0 13c0,85 -36,149 -152,278l-5 0c-67,-129 -90,-201 -90,-273l0 -13c0,-100 46,-152 124,-152zm-75 852l273 433c-41,44 -95,65 -160,65 -110,0 -188,-65 -188,-214l0 -41c0,-80 18,-147 70,-243l5 0z"/>
   <polygon id="4" class="fil2" points="22758,21413 22758,21155 21903,21155 21903,21413 22194,21413 22194,22958 22467,22958 22467,21413 "/>
   <polygon id="5" class="fil2" points="24670,21408 24670,21155 23903,21155 23903,22958 24670,22958 24670,22706 24176,22706 24176,22170 24575,22170 24575,21918 24176,21918 24176,21408 "/>
   <path id="6" class="fil2" d="M26265 21130c-265,0 -420,159 -420,432l0 989c0,273 155,433 420,433 268,0 425,-160 425,-433l0 -216 -263 -13 0 201c0,144 -54,209 -154,209 -101,0 -155,-65 -155,-183l0 -984c0,-119 54,-183 155,-183 100,0 154,64 154,209l0 146 263 -12 0 -163c0,-273 -157,-432 -425,-432z"/>
   <polygon id="7" class="fil2" points="28764,22958 28764,21155 28491,21155 28491,21915 28166,21915 28166,21155 27893,21155 27893,22958 28166,22958 28166,22173 28491,22173 28491,22958 "/>
   <g>
    <polygon class="fil2" points="29041,13640 27726,14399 26412,15157 26412,15157 26412,15157 26412,15157 25098,14399 23784,13640 25098,12881 26412,12122 26412,12122 26412,12122 26412,12122 26412,12122 27726,12881 "/>
    <polygon class="fil2" points="18526,13640 17212,14399 15898,15157 15898,15158 15897,15158 15897,15157 14583,14399 13269,13640 14583,12881 15897,12123 15897,12122 15897,12122 15898,12122 15898,12123 17212,12881 "/>
    <polygon class="fil1" points="18526,16675 17212,17434 15897,18193 15897,15158 17212,14398 18526,13640 18526,16675 "/>
    <polygon class="fil1" points="23783,13640 22469,14398 21155,15158 21155,12122 22469,11363 23784,10604 23784,13640 "/>
    <polygon class="fil3" points="18526,10598 17212,11358 15897,12116 15897,9081 17212,8322 18526,7564 18526,10598 "/>
    <polygon class="fil2" points="23784,10605 22470,11364 21156,12122 21156,12122 21155,12122 21155,12122 19842,11364 18527,10605 19842,9846 21155,9087 21155,9087 21156,9087 21156,9087 21156,9087 22470,9846 "/>
    <polygon class="fil4" points="25098,17434 23784,16675 23784,13640 25098,14399 26412,15158 26412,18193 "/>
    <polygon class="fil4" points="19841,14399 18526,13640 18526,10605 19841,11363 21155,12122 21155,15158 "/>
    <polygon class="fil4" points="22469,6810 23692,7516 23784,7569 26412,9087 26412,9086 26412,9092 26412,9092 26412,9087 27727,9846 29041,10605 29041,13640 27727,12881 26412,12122 26412,12128 26412,12127 26412,15157 25098,14398 23784,13640 23784,10604 22469,9846 22469,9846 21155,9086 21155,6051 "/>
    <polygon class="fil5" points="23783,16676 22469,17434 21155,18193 21155,18193 21154,18193 21154,18193 19841,17434 18526,16676 19841,15916 21154,15158 21154,15158 21155,15158 21155,15158 21155,15158 22469,15916 "/>
    <polygon class="fil2" points="21155,18193 19841,18952 18527,19710 18527,19711 18526,19711 18526,19710 17212,18952 15898,18193 17212,17434 18526,16676 18526,16675 17212,15916 15898,15158 17212,14399 18526,13640 18526,13640 18526,13640 18527,13640 18527,13640 19841,14399 19841,14399 19841,14399 19841,14399 19841,14399 19841,14399 21155,15158 21155,15158 21155,15157 21156,15158 21156,15158 21156,15157 21156,15157 22470,14398 23784,13640 23784,13640 23784,13640 23784,13640 23784,13640 25098,14398 26412,15158 25098,15916 23784,16675 23784,16676 25098,17434 26412,18193 25098,18952 23784,19710 23784,19711 23784,19711 23784,19710 22470,18952 22470,18952 22469,18952 22469,18952 22469,18952 22469,18952 21155,18193 "/>
    <polygon class="fil1" points="14583,9846 15897,9087 18526,7569 19840,6810 21155,6051 21155,9086 21155,9086 19842,9844 19842,9845 19841,9845 18527,10604 18526,10605 18526,13640 18526,13640 17212,14398 15897,15158 15897,12122 14584,12881 14584,12880 14583,12881 13269,13640 13269,10604 "/>
   </g>
  </g>
 </g>
</svg>
