<?xml version="1.0" encoding="UTF-8"?>
<!DOCTYPE svg PUBLIC "-//W3C//DTD SVG 1.1//EN" "http://www.w3.org/Graphics/SVG/1.1/DTD/svg11.dtd">
<!-- Creator: CorelDRAW X8 -->
<svg xmlns="http://www.w3.org/2000/svg" xml:space="preserve" width="297mm" height="210mm" version="1.1" style="shape-rendering:geometricPrecision; text-rendering:geometricPrecision; image-rendering:optimizeQuality; fill-rule:evenodd; clip-rule:evenodd"
viewBox="0 0 29700 21000"
 xmlns:xlink="http://www.w3.org/1999/xlink">
 <defs>
  <style type="text/css">
   <![CDATA[
    .str0 {stroke:white;stroke-width:7.62}
    .fil0 {fill:#1A1A1A;fill-rule:nonzero}
    .fil2 {fill:#1A1A1A;fill-rule:nonzero}
    .fil1 {fill:white;fill-rule:nonzero}
   ]]>
  </style>
 </defs>
 <g id="Layer_x0020_1">
  <metadata id="CorelCorpID_0Corel-Layer"/>
  <polygon class="fil0" points="0,21000 29700,21000 29700,0 0,0 "/>
  <g id="_1838794997024">
   <path class="fil1" d="M9107 17131c-118,0 -185,67 -185,184l0 17c0,96 39,164 152,260 84,71 108,112 108,163l0 27c0,52 -23,78 -70,78 -47,0 -70,-26 -70,-78l0 -58 -120 11 0 55c0,118 69,184 192,184 123,0 192,-66 192,-184l0 -41c0,-98 -42,-166 -155,-262 -84,-70 -105,-111 -105,-159l0 -11c0,-47 23,-71 64,-71 41,0 63,24 63,71l0 31 119 -12 0 -21c0,-117 -66,-184 -185,-184z"/>
   <polygon id="1" class="fil1" points="10924,17257 10924,17143 10575,17143 10575,17963 10924,17963 10924,17848 10699,17848 10699,17604 10881,17604 10881,17489 10699,17489 10699,17257 "/>
   <path id="2" class="fil1" d="M12491 17963l131 0 -113 -374c57,-33 87,-94 87,-181l0 -58c0,-135 -72,-207 -206,-207l-179 0 0 820 124 0 0 -347 58 0 98 347zm-156 -706l51 0c59,0 86,32 86,101l0 42c0,69 -27,101 -86,101l-51 0 0 -244z"/>
   <polygon id="3" class="fil1" points="14148,17963 14287,17143 14162,17143 14071,17768 14069,17768 13976,17143 13849,17143 13988,17963 "/>
   <polygon id="4" class="fil1" points="15693,17963 15693,17143 15569,17143 15569,17963 "/>
   <path id="5" class="fil1" d="M17198 17131c-121,0 -191,72 -191,197l0 450c0,124 70,196 191,196 122,0 193,-72 193,-196l0 -99 -119 -6 0 92c0,65 -25,95 -70,95 -46,0 -71,-30 -71,-84l0 -447c0,-54 25,-83 71,-83 45,0 70,29 70,95l0 66 119 -6 0 -73c0,-125 -71,-197 -193,-197z"/>
   <polygon id="6" class="fil1" points="19039,17257 19039,17143 18690,17143 18690,17963 19039,17963 19039,17848 18814,17848 18814,17604 18996,17604 18996,17489 18814,17489 18814,17257 "/>
   <path id="7" class="fil1" d="M20482 17131c-118,0 -185,67 -185,184l0 17c0,96 39,164 152,260 84,71 108,112 108,163l0 27c0,52 -23,78 -70,78 -47,0 -70,-26 -70,-78l0 -58 -120 11 0 55c0,118 69,184 192,184 123,0 192,-66 192,-184l0 -41c0,-98 -42,-166 -155,-262 -84,-70 -105,-111 -105,-159l0 -11c0,-47 22,-71 63,-71 42,0 64,24 64,71l0 31 119 -12 0 -21c0,-117 -67,-184 -185,-184z"/>
   <polygon class="fil1" points="9525,15571 9525,15376 8880,15376 8880,15571 9099,15571 9099,16737 9305,16737 9305,15571 "/>
   <polygon id="1" class="fil1" points="10968,15567 10968,15376 10389,15376 10389,16737 10968,16737 10968,16546 10595,16546 10595,16142 10896,16142 10896,15952 10595,15952 10595,15567 "/>
   <polygon id="2" class="fil1" points="12082,16543 12082,15376 11876,15376 11876,16737 12427,16737 12427,16543 "/>
   <path id="3" class="fil1" d="M13914 15357c-188,0 -289,105 -289,301l0 12c0,107 29,196 122,352 -111,126 -150,231 -150,353l0 49c0,216 133,332 339,332 97,0 175,-25 233,-81l39 62 245 0 -167 -251c23,-56 31,-124 31,-202l0 -224 -179 -9 0 200 -4 0 -140 -218c159,-159 210,-243 210,-371l0 -10c0,-184 -101,-295 -290,-295zm2 190c60,0 94,41 94,111l0 10c0,64 -28,113 -115,210l-4 0c-51,-97 -68,-152 -68,-206l0 -10c0,-76 35,-115 93,-115zm-56 644l206 326c-31,33 -72,49 -121,49 -83,0 -142,-49 -142,-161l0 -32c0,-60 14,-110 53,-182l4 0z"/>
   <polygon id="4" class="fil1" points="16191,15571 16191,15376 15546,15376 15546,15571 15766,15571 15766,16737 15972,16737 15972,15571 "/>
   <polygon id="5" class="fil1" points="17634,15567 17634,15376 17055,15376 17055,16737 17634,16737 17634,16546 17261,16546 17261,16142 17562,16142 17562,15952 17261,15952 17261,15567 "/>
   <path id="6" class="fil1" d="M18838 15357c-200,0 -317,120 -317,326l0 747c0,206 117,326 317,326 202,0 321,-120 321,-326l0 -163 -198 -10 0 151c0,109 -41,158 -117,158 -76,0 -117,-49 -117,-138l0 -743c0,-89 41,-138 117,-138 76,0 117,49 117,158l0 110 198 -9 0 -123c0,-206 -119,-326 -321,-326z"/>
   <polygon id="7" class="fil1" points="20724,16737 20724,15376 20518,15376 20518,15950 20273,15950 20273,15376 20067,15376 20067,16737 20273,16737 20273,16144 20518,16144 20518,16737 "/>
   <g>
    <polygon class="fil1 str0" points="20934,9703 19941,10276 18950,10848 18950,10848 18949,10848 18949,10848 17958,10276 16965,9703 17958,9130 18949,8557 18949,8557 18949,8557 18950,8557 18950,8557 19941,9130 "/>
    <polygon class="fil1 str0" points="12996,9703 12004,10276 11012,10848 11012,10849 11012,10849 11012,10848 10020,10276 9028,9703 10020,9130 11012,8558 11012,8557 11012,8557 11012,8557 11012,8558 12004,9130 "/>
    <polygon class="fil2 str0" points="12996,11994 12004,12567 11012,13140 11012,10849 12004,10275 12997,9703 12997,11994 "/>
    <polygon class="fil2 str0" points="16965,9703 15973,10275 14981,10849 14981,8557 15973,7984 16965,7411 16965,9703 "/>
    <polygon class="fil2 str0" points="12996,7407 12004,7980 11012,8553 11012,6262 12004,5688 12997,5116 12997,7407 "/>
    <polygon class="fil1 str0" points="16965,7412 15973,7984 14982,8557 14982,8557 14981,8557 14981,8557 13989,7984 12997,7412 13989,6839 14981,6266 14981,6266 14981,6266 14982,6266 14982,6266 15973,6839 "/>
    <polygon class="fil2 str0" points="17957,12567 16965,11994 16965,9703 17957,10276 18949,10849 18949,13140 "/>
    <polygon class="fil2 str0" points="13989,10276 12997,9703 12997,7412 13989,7984 14981,8557 14981,10849 "/>
    <polygon class="fil2 str0" points="15973,4547 16896,5080 16965,5120 18949,6266 18949,6265 18949,6270 18949,6270 18949,6266 19942,6839 20934,7412 20934,9703 19942,9130 18950,8557 18950,8561 18949,8561 18949,10848 17957,10275 16965,9703 16965,7411 15973,6839 15973,6839 14981,6265 14981,3974 "/>
    <polygon class="fil2 str0" points="16965,11994 15973,12567 14981,13140 14981,13140 14980,13140 14980,13140 13989,12567 12997,11994 13989,11421 14980,10849 14980,10849 14981,10849 14981,10849 14981,10849 15973,11421 "/>
    <polygon class="fil1 str0" points="14981,13140 13989,13713 12997,14285 12997,14286 12996,14286 12996,14285 12005,13713 11012,13140 12005,12567 12996,11994 12996,11994 12005,11421 11012,10849 12005,10276 12996,9703 12996,9703 12997,9703 12997,9703 12997,9703 13989,10276 13989,10276 13989,10276 13989,10276 13989,10276 13989,10276 14981,10849 14981,10849 14981,10848 14981,10849 14981,10849 14982,10848 14982,10848 15974,10275 16965,9703 16965,9703 16965,9703 16966,9703 16966,9703 17957,10275 18949,10849 17957,11421 16966,11994 16966,11994 17957,12567 18949,13140 17957,13713 16966,14285 16966,14285 16965,14285 16965,14285 15974,13713 15973,13712 15973,13713 15973,13713 15973,13713 15973,13713 14981,13140 "/>
    <polygon class="fil2 str0" points="10020,6839 11012,6266 12997,5120 13989,4547 14981,3974 14981,6265 14981,6265 13990,6838 13990,6838 13989,6838 12997,7411 12997,7412 12997,9703 12996,9703 12004,10275 11012,10849 11012,8557 10020,9130 10020,9129 10020,9130 9028,9703 9028,7411 "/>
   </g>
  </g>
 </g>
</svg>
