<?xml version="1.0" encoding="UTF-8"?>
<!DOCTYPE svg PUBLIC "-//W3C//DTD SVG 1.1//EN" "http://www.w3.org/Graphics/SVG/1.1/DTD/svg11.dtd">
<!-- Creator: CorelDRAW X8 -->
<svg xmlns="http://www.w3.org/2000/svg" xml:space="preserve" width="120.964mm" height="140.423mm" version="1.1" style="shape-rendering:geometricPrecision; text-rendering:geometricPrecision; image-rendering:optimizeQuality; fill-rule:evenodd; clip-rule:evenodd"
viewBox="0 0 6726 7808"
 xmlns:xlink="http://www.w3.org/1999/xlink">
 <defs>
  <style type="text/css">
   <![CDATA[
    .fil0 {fill:white;fill-rule:nonzero}
   ]]>
  </style>
 </defs>
 <g id="Layer_x0020_1">
  <metadata id="CorelCorpID_0Corel-Layer"/>
  <path class="fil0" d="M127 7339c-66,0 -103,37 -103,102l0 10c0,54 21,91 84,145 47,39 60,62 60,90l0 15c0,29 -13,43 -39,43 -26,0 -39,-14 -39,-43l0 -32 -66 6 0 31c0,65 38,102 107,102 68,0 106,-37 106,-102l0 -23c0,-55 -23,-92 -86,-146 -47,-39 -58,-62 -58,-88l0 -6c0,-26 12,-40 35,-40 23,0 35,14 35,40l0 17 67 -7 0 -12c0,-65 -38,-102 -103,-102z"/>
  <polygon id="1" class="fil0" points="1137,7410 1137,7346 943,7346 943,7802 1137,7802 1137,7738 1012,7738 1012,7602 1113,7602 1113,7539 1012,7539 1012,7410 "/>
  <path id="2" class="fil0" d="M2008 7802l73 0 -63 -208c32,-18 49,-52 49,-100l0 -33c0,-75 -41,-115 -115,-115l-100 0 0 456 69 0 0 -193 32 0 55 193zm-87 -392l28 0c34,0 49,17 49,56l0 23c0,38 -15,56 -49,56l-28 0 0 -135z"/>
  <polygon id="3" class="fil0" points="2930,7802 3007,7346 2937,7346 2887,7694 2885,7694 2834,7346 2764,7346 2840,7802 "/>
  <polygon id="4" class="fil0" points="3789,7802 3789,7346 3720,7346 3720,7802 "/>
  <path id="5" class="fil0" d="M4625 7339c-67,0 -106,41 -106,110l0 250c0,69 39,109 106,109 68,0 108,-40 108,-109l0 -55 -66 -3 0 51c0,36 -14,52 -40,52 -25,0 -39,-16 -39,-46l0 -249c0,-30 14,-46 39,-46 26,0 40,16 40,53l0 37 66 -3 0 -41c0,-69 -40,-110 -108,-110z"/>
  <polygon id="6" class="fil0" points="5649,7410 5649,7346 5455,7346 5455,7802 5649,7802 5649,7738 5524,7738 5524,7602 5625,7602 5625,7539 5524,7539 5524,7410 "/>
  <path id="7" class="fil0" d="M6452 7339c-66,0 -103,37 -103,102l0 10c0,54 21,91 84,145 47,39 60,62 60,90l0 15c0,29 -13,43 -39,43 -26,0 -39,-14 -39,-43l0 -32 -66 6 0 31c0,65 38,102 107,102 68,0 106,-37 106,-102l0 -23c0,-55 -23,-92 -86,-146 -47,-39 -58,-62 -58,-88l0 -6c0,-26 12,-40 35,-40 23,0 35,14 35,40l0 17 67 -7 0 -12c0,-65 -38,-102 -103,-102z"/>
  <polygon class="fil0" points="359,6472 359,6364 0,6364 0,6472 122,6472 122,7120 237,7120 237,6472 "/>
  <polygon id="1" class="fil0" points="1161,6469 1161,6364 839,6364 839,7120 1161,7120 1161,7014 954,7014 954,6789 1121,6789 1121,6683 954,6683 954,6469 "/>
  <polygon id="2" class="fil0" points="1781,7012 1781,6364 1666,6364 1666,7120 1972,7120 1972,7012 "/>
  <path id="3" class="fil0" d="M2800 6353c-105,0 -162,58 -162,167l0 7c0,59 17,109 69,195 -62,71 -84,129 -84,197l0 27c0,120 74,185 188,185 54,0 98,-14 130,-45l22 34 136 0 -93 -139c13,-32 17,-69 17,-113l0 -124 -99 -5 0 111 -2 0 -78 -121c89,-89 117,-135 117,-207l0 -5c0,-103 -57,-164 -161,-164zm1 106c33,0 52,22 52,61l0 6c0,35 -16,62 -64,116l-2 0c-29,-54 -38,-84 -38,-114l0 -6c0,-42 19,-63 52,-63zm-32 357l115 182c-17,18 -40,27 -67,27 -47,0 -79,-27 -79,-90l0 -17c0,-33 7,-62 29,-102l2 0z"/>
  <polygon id="4" class="fil0" points="4066,6472 4066,6364 3707,6364 3707,6472 3829,6472 3829,7120 3944,7120 3944,6472 "/>
  <polygon id="5" class="fil0" points="4868,6469 4868,6364 4546,6364 4546,7120 4868,7120 4868,7014 4661,7014 4661,6789 4828,6789 4828,6683 4661,6683 4661,6469 "/>
  <path id="6" class="fil0" d="M5537 6353c-111,0 -176,67 -176,181l0 415c0,115 65,182 176,182 113,0 179,-67 179,-182l0 -90 -110 -6 0 85c0,60 -23,87 -65,87 -42,0 -65,-27 -65,-77l0 -413c0,-49 23,-76 65,-76 42,0 65,27 65,87l0 62 110 -6 0 -68c0,-114 -66,-181 -179,-181z"/>
  <polygon id="7" class="fil0" points="6586,7120 6586,6364 6472,6364 6472,6682 6336,6682 6336,6364 6221,6364 6221,7120 6336,7120 6336,6790 6472,6790 6472,7120 "/>
  <g id="_2556139167664">
   <g>
    <path class="fil0" d="M6163 3548l0 0 -24 -41 552 -319 23 41 -551 319zm-24 -41l24 41c-12,6 -26,2 -32,-9 -7,-11 -3,-25 8,-32zm-528 359l-12 3 -11 -44 551 -318 24 41 -552 318zm-23 -41l23 41c-11,7 -25,3 -32,-8 -6,-12 -3,-26 9,-33zm11 21l0 0 0 0 0 0 0 23 0 -23zm-11 -21l23 41c-11,7 -25,3 -32,-8 -6,-12 -3,-26 9,-33zm11 44l-23 -23 23 -24 0 0 0 47 0 0zm0 -47l0 47c-13,0 -23,-10 -23,-23 0,-13 10,-24 23,-24zm0 24l0 0 0 0 0 0 -23 0 23 0zm0 -24l0 47c-13,0 -23,-10 -23,-23 0,-13 10,-24 23,-24zm-23 -1250l47 0 0 1274 -47 0 0 -1274zm47 0l-47 0c0,-13 10,-24 23,-24 13,0 24,11 24,24zm-47 0l43 -14 4 14 0 0 -47 0 0 0zm47 0l-47 0c0,-13 10,-24 23,-24 13,0 24,11 24,24zm-4 -14l2 23 -41 4 0 0 39 -27 0 0zm-39 27l39 -27c7,11 4,26 -6,33 -11,8 -26,5 -33,-6zm-2 -23l45 10 -2 9 0 0 -43 -19 0 0zm43 19l-43 -19c5,-12 19,-17 31,-12 12,6 17,19 12,31zm2 -9l-35 20 -12 -20 0 0 47 0 0 0zm-47 0l47 0c0,13 -11,23 -24,23 -13,0 -23,-10 -23,-23zm587 298l0 0 -24 41 -551 -319 23 -41 552 319zm-24 41l24 -41c11,6 15,21 8,32 -6,11 -21,15 -32,9zm575 277l0 41 -23 0 -552 -318 24 -41 551 318zm-23 41l23 -41c12,7 15,21 9,33 -7,11 -21,15 -32,8z"/>
   </g>
   <g>
    <path class="fil0" d="M1209 3846l-23 23 -24 -23 0 0 47 0 0 0zm-47 0l47 0c0,13 -10,23 -23,23 -13,0 -24,-10 -24,-23zm24 23l-24 -23 24 -24 0 0 0 47 0 0zm0 -47l0 47c-13,0 -24,-10 -24,-23 0,-13 11,-24 24,-24zm-24 24l35 -21 12 21 0 0 -47 0 0 0zm47 0l-47 0c0,-13 11,-24 24,-24 13,0 23,11 23,24zm-587 -298l0 0 24 -41 551 318 -23 41 -552 -318zm24 -41l-24 41c-11,-7 -15,-21 -8,-32 6,-12 21,-15 32,-9zm-575 -278l0 -41 23 0 552 319 -24 41 -551 -319zm23 -41l-23 41c-12,-6 -15,-21 -9,-32 7,-11 21,-15 32,-9zm528 -318l0 0 24 41 -552 318 -23 -41 551 -318zm24 41l-24 -41c12,-7 26,-3 33,9 6,11 2,25 -9,32zm528 -359l35 20 -12 20 -551 319 -24 -41 552 -318zm23 40l-23 -40c11,-7 26,-3 32,8 7,12 3,26 -9,32zm-35 -20l24 -24 23 24 0 0 -47 0 0 0zm47 0l-47 0c0,-13 11,-24 24,-24 13,0 23,11 23,24zm-23 -24l0 47 0 0 0 -47 0 0zm0 47l0 -47c13,0 23,11 23,24 0,13 -10,23 -23,23zm0 -47l23 24 -23 23 0 0 0 -47 0 0zm0 47l0 -47c13,0 23,11 23,24 0,13 -10,23 -23,23zm23 -23l-47 0 0 0 47 0 0 0zm-47 0l47 0c0,13 -10,24 -23,24 -13,0 -24,-11 -24,-24zm47 1274l-47 0 0 -1274 47 0 0 1274zm-47 0l47 0c0,13 -10,23 -23,23 -13,0 -24,-10 -24,-23z"/>
   </g>
   <g>
    <path class="fil0" d="M3956 3548l-24 -41 0 0 552 -319 24 41 -552 319zm-24 -41l24 41c-11,6 -26,2 -32,-9 -7,-11 -3,-26 8,-32zm-528 359l-35 -20 12 -20 551 -319 24 41 -552 318zm-23 -40l23 40c-11,7 -25,3 -32,-8 -6,-12 -2,-26 9,-32zm-12 -1254l12 -21 35 21 0 1274 -47 0 0 -1274zm47 0l-47 0c0,-13 11,-24 24,-24 13,0 23,11 23,24zm516 -339l0 0 24 41 -552 318 -23 -41 551 -318zm24 41l-24 -41c12,-7 26,-3 33,8 6,12 2,26 -9,33zm528 -360l36 21 -12 20 -552 319 -24 -41 552 -319zm24 41l-24 -41c12,-6 26,-2 32,9 7,11 3,26 -8,32zm12 1254l-24 23 -24 -23 0 -1274 48 0 0 1274zm-48 0l48 0c0,13 -11,23 -24,23 -13,0 -24,-10 -24,-23zm24 23l-12 -44 12 -3 0 0 0 47 0 0zm0 -47l0 47c-13,0 -24,-10 -24,-23 0,-13 11,-24 24,-24z"/>
   </g>
   <g>
    <path class="fil0" d="M4484 4503l0 -40 24 0 552 318 -24 41 -552 -319zm24 -40l-24 40c-11,-6 -15,-21 -8,-32 6,-11 21,-15 32,-8zm1080 -637l35 20 -12 20 -1103 637 -24 -40 1104 -637zm23 40l-23 -40c11,-7 25,-3 32,8 6,11 2,26 -9,32zm12 1254l-35 20 -12 -20 0 -1274 47 0 0 1274zm-47 0l47 0c0,13 -11,24 -24,24 -13,0 -23,-11 -23,-24zm-540 -298l24 -41 0 0 551 319 -23 40 -552 -318zm24 -41l-24 41c-11,-7 -15,-21 -9,-32 7,-12 21,-15 33,-9z"/>
   </g>
   <g>
    <path class="fil0" d="M2277 3229l-11 -20 35 -21 552 319 -24 41 -552 -319zm24 -41l-24 41c-11,-6 -15,-21 -8,-32 6,-11 21,-15 32,-9zm-35 -1253l35 -21 12 21 0 1274 -47 0 0 -1274zm47 0l-47 0c0,-13 10,-24 23,-24 13,0 24,11 24,24zm540 298l0 0 -24 41 -552 -319 24 -41 552 319zm-24 41l24 -41c11,6 15,21 8,32 -6,11 -21,15 -32,9zm575 277l12 21 -35 20 -552 -318 24 -41 551 318zm-23 41l23 -41c12,7 15,21 9,33 -7,11 -21,15 -32,8zm35 1254l-35 20 -12 -20 0 -1274 47 0 0 1274zm-47 0l47 0c0,13 -10,23 -23,23 -13,0 -24,-10 -24,-23zm-540 -298l24 -41 551 319 -23 40 -552 -318zm24 -41l-24 41c-11,-7 -15,-21 -8,-32 6,-12 20,-15 32,-9z"/>
   </g>
   <g>
    <g>
     <path class="fil0" d="M1749 4822l-23 -41 0 0 551 -319 24 41 -552 319zm-23 -41l23 41c-11,6 -25,2 -32,-9 -6,-11 -3,-25 9,-32zm-528 359l-36 -20 12 -20 552 -319 23 41 -551 318zm-24 -40l24 40c-12,7 -26,3 -33,-8 -6,-11 -2,-26 9,-32zm-12 -1254l36 -20 11 20 0 1274 -47 0 0 -1274zm47 0l-47 0c0,-13 11,-24 24,-24 13,0 23,11 23,24zm1092 616l-12 44 -12 -3 -1103 -637 24 -40 1103 636zm-24 41l24 -41c11,7 15,21 9,33 -7,11 -21,15 -33,8zm12 3l-12 -44 12 -3 0 0 0 47 0 0zm0 -47l0 47c-13,0 -23,-10 -23,-23 0,-13 10,-24 23,-24z"/>
    </g>
    <g>
     <path class="fil0" d="M2853 5459l0 0 -24 -41 552 -318 23 40 -551 319zm-24 -41l24 41c-12,6 -26,3 -33,-9 -6,-11 -2,-25 9,-32zm-528 359l-35 -20 12 -20 551 -319 24 41 -552 318zm-23 -40l23 40c-11,7 -26,3 -32,-8 -7,-12 -3,-26 9,-32zm35 20l-24 24 -23 -24 0 0 47 0 0 0zm-47 0l47 0c0,13 -11,24 -24,24 -13,0 -23,-11 -23,-24zm23 24l-23 -24 23 -23 0 0 0 47 0 0zm0 -47l0 47c-13,0 -23,-11 -23,-24 0,-13 10,-23 23,-23zm-23 23l35 -20 12 20 0 0 -47 0 0 0zm47 0l-47 0c0,-13 10,-24 23,-24 13,0 24,11 24,24zm-587 -298l23 -41 0 0 552 319 -24 40 -551 -318zm23 -41l-23 41c-11,-7 -15,-21 -9,-32 7,-11 21,-15 32,-9zm-575 -278l0 -40 24 0 551 318 -23 41 -552 -319zm24 -40l-24 40c-11,-6 -15,-20 -8,-32 6,-11 21,-15 32,-8zm528 -319l0 0 23 41 -551 318 -24 -40 552 -319zm23 41l-23 -41c11,-6 26,-3 32,9 7,11 3,25 -9,32zm528 -359l36 20 -12 20 -552 319 -23 -41 551 -318zm24 40l-24 -40c12,-7 26,-3 33,8 6,12 2,26 -9,32zm-35 -20l35 -20 12 20 0 0 -47 0 0 0zm47 0l-47 0c0,-13 10,-24 23,-24 13,0 24,11 24,24zm-587 -298l23 -41 0 0 552 319 -24 40 -551 -318zm23 -41l-23 41c-11,-7 -15,-21 -9,-32 7,-12 21,-15 32,-9zm-575 -278l0 -40 24 0 551 318 -23 41 -552 -319zm24 -40l-24 40c-11,-6 -15,-20 -8,-32 6,-11 20,-15 32,-8zm528 -319l0 0 23 41 -551 318 -24 -40 552 -319zm23 41l-23 -41c11,-6 26,-3 32,9 7,11 3,25 -9,32zm528 -359l36 20 -12 20 -552 319 -23 -41 551 -318zm24 40l-24 -40c12,-7 26,-3 33,8 6,12 2,26 -9,32zm-35 -20l23 -24 24 24 0 0 -47 0 0 0zm47 0l-47 0c0,-13 10,-24 23,-24 13,0 24,11 24,24zm-24 -24l0 47 0 0 0 -47 0 0zm0 47l0 -47c13,0 24,11 24,24 0,13 -11,23 -24,23zm0 -47l24 24 -24 23 0 0 0 -47 0 0zm0 47l0 -47c13,0 24,11 24,24 0,13 -11,23 -24,23zm24 -23l-35 20 -12 -20 0 0 47 0 0 0zm-47 0l47 0c0,13 -11,24 -24,24 -13,0 -23,-11 -23,-24zm587 298l-12 44 -12 -3 -551 -319 23 -40 552 318zm-24 41l24 -41c11,7 15,21 8,32 -6,11 -21,15 -32,9zm12 -44l0 47 0 0 0 -47 0 0zm0 47l0 -47c13,0 24,10 24,23 0,13 -11,24 -24,24zm0 -24l0 0 0 0 0 0 0 -23 0 23zm0 24l0 -47c13,0 24,10 24,23 0,13 -11,24 -24,24zm0 -47l0 47 0 0 0 -47 0 0zm0 47l0 -47c13,0 24,10 24,23 0,13 -11,24 -24,24zm0 -47l24 23 -24 24 0 0 0 -47 0 0zm0 47l0 -47c13,0 24,10 24,23 0,13 -11,24 -24,24zm24 -23l-36 20 -11 -20 0 -1 47 0 0 1zm-47 0l47 0c0,13 -11,23 -24,23 -13,0 -23,-10 -23,-23zm586 298l-11 43 -12 -3 -552 -318 24 -41 551 319zm-23 40l23 -40c12,6 16,20 9,32 -6,11 -21,15 -32,8zm12 -44l23 24 -23 23 0 0 0 -47 0 0zm0 47l0 -47c13,0 23,11 23,24 0,13 -10,23 -23,23zm-24 -23l46 -9 1 9 0 0 -47 0 0 0zm47 0l-47 0c0,-13 11,-24 24,-24 13,0 23,11 23,24zm-1 -9l-22 32 -22 -14 0 -1 44 -17 0 0zm-44 18l44 -18c5,12 -1,26 -13,31 -12,5 -26,-1 -31,-13zm22 -33l22 33 -22 14 0 0 0 -47 0 0zm0 47l0 -47c13,0 23,11 23,24 0,13 -10,23 -23,23zm-22 -32l10 -12 34 29 0 1 -44 -18 0 0zm44 17l-44 -17c5,-12 19,-18 31,-13 12,5 18,18 13,30zm-22 -8l0 0 0 0 0 0 -12 -21 12 21zm22 8l-44 -17c5,-12 19,-18 31,-13 12,5 18,18 13,30zm518 -347l23 41 -551 318 -24 -41 552 -318zm23 41l-23 -41c11,-7 25,-3 32,8 6,12 3,26 -9,33zm528 -360l36 21 -12 20 -552 319 -23 -41 551 -319zm24 41l-24 -41c12,-6 26,-2 32,9 7,11 3,26 -8,32zm-36 -20l43 -14 5 14 0 0 -48 0 0 0zm48 0l-48 0c0,-13 11,-24 24,-24 13,0 24,11 24,24zm-5 -14l1 26 -39 1 0 0 38 -27 0 0zm-38 27l38 -27c8,11 5,26 -5,33 -11,8 -26,5 -33,-6zm-1 -25l44 12 -4 12 0 0 -40 -24 0 0zm40 24l-40 -24c7,-12 21,-15 32,-8 11,6 15,21 8,32zm4 -12l-36 20 -11 -20 0 0 47 0 0 0zm-47 0l47 0c0,13 -11,23 -24,23 -13,0 -23,-10 -23,-23zm587 298l0 0 -24 41 -552 -319 24 -41 552 319zm-24 41l24 -41c11,6 15,21 8,32 -6,11 -21,15 -32,9zm575 278l0 40 -23 0 -552 -318 24 -41 551 319zm-23 40l23 -40c11,6 15,20 9,32 -7,11 -21,15 -32,8zm-528 319l0 0 -24 -41 552 -318 23 40 -551 319zm-24 -41l24 41c-12,6 -26,2 -33,-9 -6,-11 -2,-25 9,-32zm-528 359l-35 -20 11 -21 552 -318 24 41 -552 318zm-24 -41l24 41c-11,7 -26,3 -32,-9 -7,-11 -3,-25 8,-32zm36 21l-36 20 -11 -20 0 0 47 0 0 0zm-47 0l47 0c0,13 -11,24 -24,24 -13,0 -23,-11 -23,-24zm587 298l-24 41 -552 -319 24 -40 552 318zm-24 41l24 -41c11,7 15,21 8,32 -6,11 -21,15 -32,9zm575 278l0 40 -23 0 -552 -318 24 -41 551 319zm-23 40l23 -40c11,6 15,21 9,32 -7,11 -21,15 -32,8zm-528 319l-24 -41 552 -318 23 40 -551 319zm-24 -41l24 41c-12,6 -26,3 -33,-9 -6,-11 -2,-25 9,-32zm-528 359l-35 -20 11 -20 552 -319 24 41 -552 318zm-24 -40l24 40c-11,7 -26,3 -32,-8 -7,-12 -3,-26 8,-32zm36 20l-24 24 -23 -24 0 0 47 0 0 0zm-47 0l47 0c0,13 -11,24 -24,24 -13,0 -23,-11 -23,-24zm23 24l-24 -24 24 -24 0 0 0 48 0 0zm0 -48l0 48c-13,0 -24,-11 -24,-24 0,-13 11,-24 24,-24zm-24 24l36 -20 12 20 0 0 -48 0 0 0zm48 0l-48 0c0,-13 11,-24 24,-24 13,0 24,11 24,24zm-587 -298l-3 -2 26 -39 552 319 -24 40 -551 -318zm23 -41l-23 41c-11,-7 -15,-21 -9,-32 7,-12 21,-15 32,-9zm-26 39l-2 -35 31 -2 0 0 -29 37 0 0zm29 -37l-29 37c-10,-8 -12,-23 -4,-33 8,-10 23,-12 33,-4zm2 35l-40 -17 7 -16 0 0 33 33 0 0zm-33 -33l33 33c-9,9 -24,9 -33,0 -9,-9 -9,-24 0,-33zm40 17l-24 23 -23 -23 0 -1 47 0 0 1zm-47 0l47 0c0,13 -11,23 -24,23 -13,0 -23,-10 -23,-23zm23 23l-23 -23 23 -24 0 0 0 47 0 0zm0 -47l0 47c-13,0 -23,-10 -23,-23 0,-13 10,-24 23,-24zm-23 23l35 -20 12 20 0 1 -47 0 0 -1zm47 0l-47 0c0,-13 10,-23 23,-23 13,0 24,10 24,23zm-587 -298l9 -43 15 3 551 318 -24 41 -551 -319zm24 -40l-24 40c-11,-6 -15,-20 -9,-32 7,-11 21,-15 33,-8zm-10 43l-14 -43 9 -3 0 0 6 46 -1 0zm-5 -46l5 46c-12,2 -24,-7 -26,-20 -1,-13 8,-25 21,-26z"/>
    </g>
    <g>
     <path class="fil0" d="M4469 618l-23 41 0 0 -513 -297 23 -40 513 296zm-23 41l23 -41c12,7 15,21 9,32 -7,11 -21,15 -32,9zm62 -19l-24 41 -38 -22 23 -41 39 22zm-24 41l24 -41c11,7 15,21 8,32 -6,12 -21,15 -32,9zm1127 596l11 14 -34 27 -1104 -637 24 -41 1103 637zm-23 41l23 -41c11,7 15,21 9,32 -7,12 -21,16 -32,9zm-11 -14l-1 -7 46 -6 0 0 -45 13 0 0zm45 -13l-45 13c-4,-12 3,-26 16,-29 12,-4 25,3 29,16zm1 9l-24 23 -23 -23 0 -3 47 0 0 3zm-47 0l47 0c0,13 -11,23 -24,23 -13,0 -23,-10 -23,-23zm23 -24l24 24 -24 23 0 0 0 -47 0 0zm0 47l0 -47c13,0 24,11 24,24 0,13 -11,23 -24,23zm-23 -25l35 -21 12 21 0 2 -47 0 0 -2zm47 0l-47 0c0,-13 10,-24 23,-24 13,0 24,11 24,24zm540 298l0 0 -24 41 -551 -319 23 -41 552 319zm-24 41l24 -41c11,6 15,21 8,32 -6,11 -20,15 -32,9zm575 277l12 21 -35 20 -552 -318 24 -41 551 318zm-23 41l23 -41c12,7 16,21 9,33 -6,11 -21,15 -32,8zm35 1254l-35 20 -12 -20 0 -1274 47 0 0 1274zm-47 0l47 0c0,13 -10,23 -23,23 -13,0 -24,-10 -24,-23zm-540 -298l24 -41 0 0 551 318 -23 41 -552 -318zm24 -41l-24 41c-11,-7 -15,-21 -8,-33 6,-11 21,-15 32,-8zm-575 -278l-12 -20 35 -21 552 319 -24 41 -551 -319zm23 -41l-23 41c-12,-6 -15,-21 -9,-32 7,-11 21,-15 32,-9zm12 23l-44 12 -3 -12 0 -2 47 0 0 2zm-47 0l47 0c0,13 -11,24 -24,24 -13,0 -23,-11 -23,-24zm3 12l-3 -12 43 -13 0 1 -40 24 0 0zm40 -25l-40 25c-7,-11 -3,-25 8,-32 11,-7 25,-4 32,7zm4 1285l-35 20 -12 -20 0 -1272 47 0 0 1272zm-47 0l47 0c0,13 -11,23 -24,23 -13,0 -23,-10 -23,-23zm-540 -298l24 -41 0 0 551 318 -23 41 -552 -318zm24 -41l-24 41c-11,-7 -15,-21 -9,-33 7,-11 21,-15 33,-8zm-576 -278l-12 -20 36 -21 552 319 -24 41 -552 -319zm24 -41l-24 41c-11,-6 -15,-21 -8,-32 6,-11 21,-15 32,-9zm-36 -1253l36 -21 12 21 0 1274 -48 0 0 -1274zm48 0l-48 0c0,-13 11,-24 24,-24 13,0 24,11 24,24zm-587 -298l0 0 23 -41 552 318 -24 41 -551 -318zm23 -41l-23 41c-12,-7 -16,-21 -9,-33 6,-11 21,-15 32,-8zm-12 20l0 0 0 0 0 0 -11 21 11 -21zm12 -20l-23 41c-12,-7 -16,-21 -9,-33 6,-11 21,-15 32,-8zm-575 -278l-12 -21 35 -20 552 319 -23 41 -552 -319zm23 -41l-23 41c-11,-7 -15,-21 -9,-32 7,-12 21,-15 32,-9zm-35 -1253l35 -21 12 21 0 1273 -47 0 0 -1273zm47 0l-47 0c0,-13 11,-24 24,-24 13,0 23,11 23,24zm540 298l-23 40 -552 -318 23 -41 552 319zm-23 40l23 -40c11,6 15,21 9,32 -7,11 -21,15 -32,8z"/>
    </g>
    <g>
     <path class="fil0" d="M1174 1277l24 41 0 0 -552 319 -24 -41 552 -319zm24 41l-24 -41c11,-6 26,-2 32,9 7,11 3,26 -8,32zm1079 -678l24 41 0 0 -1103 637 -24 -41 1103 -637zm24 41l-24 -41c12,-6 26,-2 33,9 6,11 2,25 -9,32zm528 -359l0 0 24 40 -552 319 -24 -41 552 -318zm24 40l-24 -40c11,-7 26,-3 32,8 7,11 3,26 -8,32zm528 -359l35 21 -12 20 -551 318 -24 -40 552 -319zm23 41l-23 -41c11,-6 26,-2 32,9 7,11 3,25 -9,32zm12 1253l-23 24 -24 -24 0 -1273 47 0 0 1273zm-47 0l47 0c0,13 -10,24 -23,24 -13,0 -24,-11 -24,-24zm24 24l-12 -44 12 -3 0 0 0 47 0 0zm0 -47l0 47c-13,0 -24,-11 -24,-24 0,-13 11,-23 24,-23zm-540 362l-35 -20 12 -21 551 -318 23 41 -551 318zm-23 -41l23 41c-11,7 -25,3 -32,-9 -6,-11 -3,-25 9,-32zm35 21l-24 24 -23 -24 0 0 47 0 0 0zm-47 0l47 0c0,13 -11,24 -24,24 -13,0 -23,-11 -23,-24zm23 24l-11 -44 11 -4 0 0 0 48 0 0zm0 -48l0 48c-13,0 -23,-11 -23,-24 0,-13 10,-24 23,-24zm-540 363l-28 -37 5 -4 552 -318 23 40 -552 319zm-23 -41l23 41c-11,6 -25,3 -32,-9 -6,-11 -2,-25 9,-32zm28 37l-40 -16 7 -17 0 0 33 33 0 0zm-33 -33l33 33c-9,10 -24,10 -33,0 -10,-9 -10,-24 0,-33zm40 1291l-24 23 -23 -23 0 -1274 47 0 0 1274zm-47 0l47 0c0,13 -11,23 -24,23 -13,0 -23,-10 -23,-23zm23 23l-12 -44 12 -3 0 0 0 47 0 0zm0 -47l0 47c-13,0 -23,-10 -23,-23 0,-13 10,-24 23,-24zm-540 363l-23 -41 0 0 551 -319 24 41 -552 319zm-23 -41l23 41c-11,6 -25,2 -32,-9 -6,-11 -3,-26 9,-32zm-528 359l-36 -20 12 -20 552 -319 23 41 -551 318zm-24 -40l24 40c-12,7 -26,3 -33,-8 -6,-12 -2,-26 9,-32zm-12 -1254l12 -21 35 21 0 1274 -47 0 0 -1274zm47 0l-47 0c0,-13 11,-24 24,-24 13,0 23,11 23,24zm-563 339l-35 -21 11 -20 552 -319 24 41 -552 319zm-24 -41l24 41c-11,6 -26,2 -32,-9 -7,-11 -3,-26 8,-32zm-11 20l12 -21 35 21 0 0 -47 0 0 0zm47 0l-47 0c0,-13 10,-24 23,-24 13,0 24,11 24,24zm-13 21l-23 -41 1 -1 0 0 22 42 0 0zm-22 -42l22 42c-12,6 -26,2 -32,-10 -6,-11 -2,-26 10,-32zm-529 360l-35 -20 12 -21 551 -318 24 41 -552 318zm-23 -41l23 41c-11,7 -26,3 -32,-8 -7,-12 -3,-26 9,-33zm-12 -1253l12 -21 35 21 0 1274 -47 0 0 -1274zm47 0l-47 0c0,-13 10,-24 23,-24 13,0 24,11 24,24zm516 -339l0 0 24 41 -552 318 -23 -41 551 -318zm24 41l-24 -41c11,-7 26,-3 32,8 7,12 3,26 -8,33z"/>
    </g>
    <g>
     <path class="fil0" d="M3956 2274l0 0 -23 -41 551 -319 24 41 -552 319zm-23 -41l23 41c-11,6 -25,2 -32,-9 -6,-11 -2,-26 9,-32zm-528 359l-36 -20 12 -21 552 -318 23 41 -551 318zm-24 -41l24 41c-12,7 -26,3 -32,-9 -7,-11 -3,-25 8,-32zm36 21l-24 23 -24 -23 0 0 48 0 0 0zm-48 0l48 0c0,13 -11,23 -24,23 -13,0 -24,-10 -24,-23zm24 23l-24 -23 24 -24 0 0 0 47 0 0zm0 -47l0 47c-13,0 -24,-10 -24,-23 0,-13 11,-24 24,-24zm-24 24l36 -21 11 21 0 0 -47 0 0 0zm47 0l-47 0c0,-13 11,-24 24,-24 13,0 23,11 23,24zm-586 -298l0 0 23 -41 552 318 -24 41 -551 -318zm23 -41l-23 41c-12,-7 -16,-21 -9,-32 6,-12 21,-16 32,-9zm-575 -278l0 -41 23 0 552 319 -23 41 -552 -319zm23 -41l-23 41c-11,-6 -15,-21 -9,-32 7,-11 21,-15 32,-9zm529 -318l23 41 0 0 -552 318 -23 -41 552 -318zm23 41l-23 -41c11,-7 25,-3 32,9 6,11 2,25 -9,32zm528 -360l35 21 -11 20 -552 319 -23 -41 551 -319zm24 41l-24 -41c11,-6 26,-2 32,9 7,11 3,26 -8,32zm-36 -20l46 -9 1 9 0 0 -47 0 0 0zm47 0l-47 0c0,-13 11,-24 24,-24 13,0 23,11 23,24zm-1 -9l-2 21 -42 -3 0 0 44 -18 0 0zm-44 18l44 -18c5,12 -1,26 -13,31 -12,5 -26,-1 -31,-13zm2 -22l44 13 -4 12 0 0 -40 -25 0 0zm40 25l-40 -25c7,-11 21,-14 32,-7 11,6 15,21 8,32zm4 -12l-36 20 -12 -20 0 0 48 0 0 0zm-48 0l48 0c0,13 -11,23 -24,23 -13,0 -24,-10 -24,-23zm587 298l-23 41 0 0 -552 -319 24 -41 551 319zm-23 41l23 -41c12,6 15,21 9,32 -7,11 -21,15 -32,9zm575 277l0 41 -24 0 -551 -318 23 -41 552 318zm-24 41l24 -41c11,7 15,21 9,33 -7,11 -21,15 -33,8z"/>
    </g>
   </g>
  </g>
 </g>
</svg>
