<svg width="210" height="186" viewBox="0 0 210 186" fill="none" xmlns="http://www.w3.org/2000/svg">
<path d="M79.5263 5.86719H66.1204V109.499H79.5263V5.86719Z" fill="#004A98"/>
<path d="M66.2121 5.875H28.7988V109.505H66.2121V5.875Z" fill="#004A98"/>
<path d="M63.6734 20.8372H31.3354V102.951H63.6734V20.8372Z" fill="#0050A5"/>
<path d="M30.088 55.4347C29.7844 55.4347 29.5371 55.1878 29.5371 54.8812V45.7703C29.5371 45.4652 29.7828 45.2168 30.088 45.2168C30.3916 45.2168 30.6389 45.4637 30.6389 45.7703V54.8812C30.6389 55.1878 30.3916 55.4347 30.088 55.4347Z" fill="#265399"/>
<path d="M66.2098 28.8757H65.0063V35.3417H66.2098V28.8757Z" fill="#003A75"/>
<path d="M66.2098 85.8225H65.0063V92.2885H66.2098V85.8225Z" fill="#003A75"/>
<path d="M62.8972 33.7031H32.6392V43.693H62.8972V33.7031Z" fill="#005AB8"/>
<path d="M62.8972 45.3267H32.6392V55.3165H62.8972V45.3267Z" fill="#005AB8"/>
<path d="M62.8972 56.9519H32.6392V66.9418H62.8972V56.9519Z" fill="#005AB8"/>
<path d="M62.8972 68.5771H32.6392V78.567H62.8972V68.5771Z" fill="#005AB8"/>
<path d="M62.8972 80.2021H32.6392V90.192H62.8972V80.2021Z" fill="#005AB8"/>
<path d="M62.8972 91.8259H32.6392V101.816H62.8972V91.8259Z" fill="#005AB8"/>
<path d="M62.8972 22.0781H32.6392V32.068H62.8972V22.0781Z" fill="#005AB8"/>
<path d="M60.0291 24.6709H35.0874V29.6352H60.0291V24.6709Z" fill="#0050A5"/>
<path d="M53.9842 26.0298H36.0977V28.3067H53.9842V26.0298Z" fill="#00F5EB"/>
<path opacity="0.2" d="M55.2203 27.7735C55.5366 27.7735 55.7931 27.5025 55.7931 27.1681C55.7931 26.8338 55.5366 26.5627 55.2203 26.5627C54.9039 26.5627 54.6475 26.8338 54.6475 27.1681C54.6475 27.5025 54.9039 27.7735 55.2203 27.7735Z" fill="#00F5EB"/>
<path opacity="0.5" d="M56.878 27.7735C57.1943 27.7735 57.4508 27.5025 57.4508 27.1681C57.4508 26.8338 57.1943 26.5627 56.878 26.5627C56.5616 26.5627 56.3052 26.8338 56.3052 27.1681C56.3052 27.5025 56.5616 27.7735 56.878 27.7735Z" fill="#00F5EB"/>
<path d="M58.5359 27.7735C58.8523 27.7735 59.1087 27.5025 59.1087 27.1681C59.1087 26.8338 58.8523 26.5627 58.5359 26.5627C58.2196 26.5627 57.9631 26.8338 57.9631 27.1681C57.9631 27.5025 58.2196 27.7735 58.5359 27.7735Z" fill="#00F5EB"/>
<path d="M60.0291 36.4263H35.0874V41.3905H60.0291V36.4263Z" fill="#0050A5"/>
<path opacity="0.8" d="M53.9842 37.7837H36.0977V40.0606H53.9842V37.7837Z" fill="#00F5EB"/>
<path d="M60.0291 48.1807H35.0874V53.1449H60.0291V48.1807Z" fill="#0050A5"/>
<path opacity="0.6" d="M53.9842 49.5396H36.0977V51.8165H53.9842V49.5396Z" fill="#00F5EB"/>
<path d="M60.0291 59.9363H35.0874V64.9005H60.0291V59.9363Z" fill="#0050A5"/>
<path opacity="0.4" d="M53.9842 61.2949H36.0977V63.5718H53.9842V61.2949Z" fill="#00F5EB"/>
<path d="M60.0291 71.3826H35.0874V76.3468H60.0291V71.3826Z" fill="#0050A5"/>
<path opacity="0.2" d="M53.9842 72.7412H36.0977V75.0181H53.9842V72.7412Z" fill="#00F5EB"/>
<path opacity="0.2" d="M55.2203 74.5321C55.5366 74.5321 55.7931 74.261 55.7931 73.9267C55.7931 73.5923 55.5366 73.3213 55.2203 73.3213C54.9039 73.3213 54.6475 73.5923 54.6475 73.9267C54.6475 74.261 54.9039 74.5321 55.2203 74.5321Z" fill="#00F5EB"/>
<path opacity="0.5" d="M56.878 74.5321C57.1943 74.5321 57.4508 74.261 57.4508 73.9267C57.4508 73.5923 57.1943 73.3213 56.878 73.3213C56.5616 73.3213 56.3052 73.5923 56.3052 73.9267C56.3052 74.261 56.5616 74.5321 56.878 74.5321Z" fill="#00F5EB"/>
<path d="M58.5359 74.5321C58.8523 74.5321 59.1087 74.261 59.1087 73.9267C59.1087 73.5923 58.8523 73.3213 58.5359 73.3213C58.2196 73.3213 57.9631 73.5923 57.9631 73.9267C57.9631 74.261 58.2196 74.5321 58.5359 74.5321Z" fill="#00F5EB"/>
<path d="M60.0291 83.1824H35.0874V88.1466H60.0291V83.1824Z" fill="#0050A5"/>
<path opacity="0.1" d="M53.9842 84.541H36.0977V86.8179H53.9842V84.541Z" fill="#00F5EB"/>
<path d="M60.0291 94.7178H35.0874V99.682H60.0291V94.7178Z" fill="#0050A5"/>
<path opacity="0.05" d="M53.9842 96.075H36.0977V98.3519H53.9842V96.075Z" fill="#00F5EB"/>
<path opacity="0.2" d="M55.7931 97.2826C55.7931 97.6176 55.5364 97.888 55.2203 97.888C54.9041 97.888 54.6475 97.616 54.6475 97.2826C54.6475 96.9477 54.9041 96.6772 55.2203 96.6772C55.5364 96.6772 55.7931 96.9477 55.7931 97.2826Z" fill="#00F5EB"/>
<path opacity="0.5" d="M57.4522 97.2826C57.4522 97.6176 57.1956 97.888 56.8794 97.888C56.5633 97.888 56.3066 97.616 56.3066 97.2826C56.3066 96.9477 56.5633 96.6772 56.8794 96.6772C57.1956 96.6772 57.4522 96.9477 57.4522 97.2826Z" fill="#00F5EB"/>
<path d="M59.1087 97.2826C59.1087 97.6176 58.8521 97.888 58.5359 97.888C58.2198 97.888 57.9631 97.616 57.9631 97.2826C57.9631 96.9477 58.2198 96.6772 58.5359 96.6772C58.8521 96.6772 59.1087 96.9477 59.1087 97.2826Z" fill="#00F5EB"/>
<path opacity="0.2" d="M55.2203 39.6231C55.5366 39.6231 55.7931 39.3521 55.7931 39.0178C55.7931 38.6834 55.5366 38.4124 55.2203 38.4124C54.9039 38.4124 54.6475 38.6834 54.6475 39.0178C54.6475 39.3521 54.9039 39.6231 55.2203 39.6231Z" fill="#00F5EB"/>
<path opacity="0.5" d="M56.878 39.6231C57.1943 39.6231 57.4508 39.3521 57.4508 39.0178C57.4508 38.6834 57.1943 38.4124 56.878 38.4124C56.5616 38.4124 56.3052 38.6834 56.3052 39.0178C56.3052 39.3521 56.5616 39.6231 56.878 39.6231Z" fill="#00F5EB"/>
<path d="M58.5359 39.6231C58.8523 39.6231 59.1087 39.3521 59.1087 39.0178C59.1087 38.6834 58.8523 38.4124 58.5359 38.4124C58.2196 38.4124 57.9631 38.6834 57.9631 39.0178C57.9631 39.3521 58.2196 39.6231 58.5359 39.6231Z" fill="#00F5EB"/>
<path opacity="0.2" d="M55.7931 50.6479C55.7931 50.9828 55.5364 51.2533 55.2203 51.2533C54.9041 51.2533 54.6475 50.9812 54.6475 50.6479C54.6475 50.3129 54.9041 50.0425 55.2203 50.0425C55.5364 50.0425 55.7931 50.3129 55.7931 50.6479Z" fill="#00F5EB"/>
<path opacity="0.5" d="M57.4522 50.6479C57.4522 50.9828 57.1956 51.2533 56.8794 51.2533C56.5633 51.2533 56.3066 50.9812 56.3066 50.6479C56.3066 50.3129 56.5633 50.0425 56.8794 50.0425C57.1956 50.0425 57.4522 50.3129 57.4522 50.6479Z" fill="#00F5EB"/>
<path d="M59.1087 50.6479C59.1087 50.9828 58.8521 51.2533 58.5359 51.2533C58.2198 51.2533 57.9631 50.9812 57.9631 50.6479C57.9631 50.313 58.2198 50.0425 58.5359 50.0425C58.8521 50.0409 59.1087 50.313 59.1087 50.6479Z" fill="#00F5EB"/>
<path opacity="0.2" d="M55.2203 63.0738C55.5366 63.0738 55.7931 62.8028 55.7931 62.4684C55.7931 62.1341 55.5366 61.863 55.2203 61.863C54.9039 61.863 54.6475 62.1341 54.6475 62.4684C54.6475 62.8028 54.9039 63.0738 55.2203 63.0738Z" fill="#00F5EB"/>
<path opacity="0.5" d="M56.878 63.0738C57.1943 63.0738 57.4508 62.8028 57.4508 62.4684C57.4508 62.1341 57.1943 61.863 56.878 61.863C56.5616 61.863 56.3052 62.1341 56.3052 62.4684C56.3052 62.8028 56.5616 63.0738 56.878 63.0738Z" fill="#00F5EB"/>
<path d="M58.5359 63.0738C58.8523 63.0738 59.1087 62.8028 59.1087 62.4684C59.1087 62.1341 58.8523 61.863 58.5359 61.863C58.2196 61.863 57.9631 62.1341 57.9631 62.4684C57.9631 62.8028 58.2196 63.0738 58.5359 63.0738Z" fill="#00F5EB"/>
<path opacity="0.2" d="M55.2203 86.3429C55.5366 86.3429 55.7931 86.0718 55.7931 85.7375C55.7931 85.4031 55.5366 85.1321 55.2203 85.1321C54.9039 85.1321 54.6475 85.4031 54.6475 85.7375C54.6475 86.0718 54.9039 86.3429 55.2203 86.3429Z" fill="#00F5EB"/>
<path opacity="0.5" d="M56.878 86.3429C57.1943 86.3429 57.4508 86.0718 57.4508 85.7375C57.4508 85.4031 57.1943 85.1321 56.878 85.1321C56.5616 85.1321 56.3052 85.4031 56.3052 85.7375C56.3052 86.0718 56.5616 86.3429 56.878 86.3429Z" fill="#00F5EB"/>
<path d="M58.5359 86.3429C58.8523 86.3429 59.1087 86.0718 59.1087 85.7375C59.1087 85.4031 58.8523 85.1321 58.5359 85.1321C58.2196 85.1321 57.9631 85.4031 57.9631 85.7375C57.9631 86.0718 58.2196 86.3429 58.5359 86.3429Z" fill="#00F5EB"/>
<path d="M67.1173 5.86719H66.1204V109.499H67.1173V5.86719Z" fill="#005AB8"/>
<path d="M66.2116 56.3574H65.0081V62.8234H66.2116V56.3574Z" fill="#003A75"/>
<path d="M46.137 9.56889H32.3867L31.3225 8.53735H46.137V9.56889Z" fill="#003A75"/>
<path d="M46.137 11.1253H32.3867L31.3225 10.0938H46.137V11.1253Z" fill="#003A75"/>
<path d="M46.137 12.6824H32.3867L31.3225 11.6509H46.137V12.6824Z" fill="#003A75"/>
<path d="M46.137 14.2392H32.3867L31.3225 13.2092H46.137V14.2392Z" fill="#003A75"/>
<path d="M46.137 15.7974H32.3867L31.3225 14.7659H46.137V15.7974Z" fill="#003A75"/>
<path d="M46.137 17.354H32.3867L31.3225 16.3225H46.137V17.354Z" fill="#003A75"/>
<path d="M63.4568 9.56889H49.7065L48.6423 8.53735H63.4568V9.56889Z" fill="#003A75"/>
<path d="M63.4568 11.1255H49.7065L48.6423 10.094H63.4568V11.1255Z" fill="#003A75"/>
<path d="M63.4568 12.6824H49.7065L48.6423 11.6509H63.4568V12.6824Z" fill="#003A75"/>
<path d="M63.4568 14.2392H49.7065L48.6423 13.2092H63.4568V14.2392Z" fill="#003A75"/>
<path d="M63.4568 15.7974H49.7065L48.6423 14.7659H63.4568V15.7974Z" fill="#003A75"/>
<path d="M63.4568 17.3545H49.7065L48.6423 16.323H63.4568V17.3545Z" fill="#003A75"/>
<path d="M78.0749 20.9421H68.7161V27.1675H78.0749V20.9421Z" fill="#005AB8"/>
<path d="M78.0749 29.7163H68.7161V35.9417H78.0749V29.7163Z" fill="#005AB8"/>
<path d="M78.0749 38.9407H68.7161V45.1661H78.0749V38.9407Z" fill="#005AB8"/>
<path d="M78.0749 47.7168H68.7161V53.9422H78.0749V47.7168Z" fill="#005AB8"/>
<path d="M78.0749 57.4141H68.7161V102.725H78.0749V57.4141Z" fill="#005AB8"/>
<path d="M79.8942 109.514H37.512C37.0018 109.514 36.5886 109.929 36.5886 110.44V121.786C36.5886 122.297 37.0018 122.712 37.512 122.712H79.8942C80.4044 122.712 80.8175 122.297 80.8175 121.786V110.44C80.8175 109.929 80.4044 109.514 79.8942 109.514Z" fill="#113873"/>
<path d="M67.692 109.462C60.2879 109.472 34.3321 109.506 27.7434 109.514C27.0673 109.514 26.5273 110.055 26.5273 110.72V121.512C26.5273 122.177 27.0673 122.717 27.7418 122.717C34.3618 122.731 60.0187 122.803 67.6904 122.822C68.368 122.824 68.9111 122.284 68.9111 121.616V110.668C68.9127 110 68.368 109.461 67.692 109.462Z" fill="#004185"/>
<path d="M39.7906 112.881H29.1986C28.7259 112.881 28.3394 112.493 28.3394 112.018C28.3394 111.543 28.7259 111.155 29.1986 111.155H39.7906C40.2632 111.155 40.6498 111.543 40.6498 112.018C40.6498 112.493 40.2632 112.881 39.7906 112.881Z" fill="#003A75"/>
<path d="M134.349 109.498H147.755V5.86629H134.349V109.498Z" fill="#004A98"/>
<path d="M147.667 109.509H185.08V5.87859H147.667V109.509Z" fill="#004A98"/>
<path d="M150.202 102.956H182.54V20.8421H150.202V102.956Z" fill="#0050A5"/>
<path d="M183.788 55.4386C184.092 55.4386 184.339 55.1917 184.339 54.8851V45.7742C184.339 45.4692 184.094 45.2207 183.788 45.2207C183.485 45.2207 183.238 45.4676 183.238 45.7742V54.8851C183.238 55.1917 183.485 55.4386 183.788 55.4386Z" fill="#265399"/>
<path d="M147.669 35.3464H148.872V28.8805H147.669V35.3464Z" fill="#265399"/>
<path d="M147.669 92.2937H148.872V85.8277H147.669V92.2937Z" fill="#265399"/>
<path d="M150.947 43.6951L181.205 43.6951V33.7052H150.947V43.6951Z" fill="#005AB8"/>
<path d="M150.947 55.3208L181.205 55.3208V45.331H150.947V55.3208Z" fill="#005AB8"/>
<path d="M150.947 66.9453H181.205V56.9555H150.947V66.9453Z" fill="#005AB8"/>
<path d="M150.947 78.5696H181.205V68.5797H150.947V78.5696Z" fill="#005AB8"/>
<path d="M150.947 90.1941H181.205V80.2042H150.947V90.1941Z" fill="#005AB8"/>
<path d="M150.947 101.82H181.205V91.83H150.947V101.82Z" fill="#005AB8"/>
<path d="M150.946 32.0706L181.204 32.0706V22.0807L150.946 22.0807V32.0706Z" fill="#005AB8"/>
<path d="M153.847 29.6353L178.789 29.6353V24.671L153.847 24.671V29.6353Z" fill="#0050A5"/>
<path d="M159.892 28.3042L177.779 28.3042V26.0273L159.892 26.0273V28.3042Z" fill="#00F5EB"/>
<path opacity="0.2" d="M158.655 27.7723C158.971 27.7723 159.227 27.5013 159.227 27.1669C159.227 26.8326 158.971 26.5615 158.655 26.5615C158.338 26.5615 158.082 26.8326 158.082 27.1669C158.082 27.5013 158.338 27.7723 158.655 27.7723Z" fill="#00F5EB"/>
<path opacity="0.5" d="M156.999 27.7723C157.315 27.7723 157.571 27.5013 157.571 27.1669C157.571 26.8326 157.315 26.5615 156.999 26.5615C156.682 26.5615 156.426 26.8326 156.426 27.1669C156.426 27.5013 156.682 27.7723 156.999 27.7723Z" fill="#00F5EB"/>
<path d="M155.339 27.7723C155.655 27.7723 155.911 27.5013 155.911 27.1669C155.911 26.8326 155.655 26.5615 155.339 26.5615C155.022 26.5615 154.766 26.8326 154.766 27.1669C154.766 27.5013 155.022 27.7723 155.339 27.7723Z" fill="#00F5EB"/>
<path d="M153.847 41.3899H178.789V36.4256H153.847V41.3899Z" fill="#0050A5"/>
<path opacity="0.8" d="M159.856 40.0605H177.742V37.7836H159.856V40.0605Z" fill="#00F5EB"/>
<path d="M153.847 53.146H178.789V48.1817H153.847V53.146Z" fill="#0050A5"/>
<path opacity="0.6" d="M159.856 51.8152H177.742V49.5383H159.856V51.8152Z" fill="#00F5EB"/>
<path d="M153.847 64.9004H178.789V59.9361H153.847V64.9004Z" fill="#0050A5"/>
<path opacity="0.4" d="M159.856 63.5701H177.742V61.2931H159.856V63.5701Z" fill="#00F5EB"/>
<path d="M153.847 76.3481H178.789V71.3839H153.847V76.3481Z" fill="#0050A5"/>
<path opacity="0.2" d="M159.856 75.0173H177.742V72.7404H159.856V75.0173Z" fill="#00F5EB"/>
<path opacity="0.2" d="M158.655 74.5318C158.971 74.5318 159.227 74.2608 159.227 73.9264C159.227 73.5921 158.971 73.321 158.655 73.321C158.338 73.321 158.082 73.5921 158.082 73.9264C158.082 74.2608 158.338 74.5318 158.655 74.5318Z" fill="#00F5EB"/>
<path opacity="0.5" d="M156.999 74.5318C157.315 74.5318 157.571 74.2608 157.571 73.9264C157.571 73.5921 157.315 73.321 156.999 73.321C156.682 73.321 156.426 73.5921 156.426 73.9264C156.426 74.2608 156.682 74.5318 156.999 74.5318Z" fill="#00F5EB"/>
<path d="M155.339 74.5318C155.655 74.5318 155.911 74.2608 155.911 73.9264C155.911 73.5921 155.655 73.321 155.339 73.321C155.022 73.321 154.766 73.5921 154.766 73.9264C154.766 74.2608 155.022 74.5318 155.339 74.5318Z" fill="#00F5EB"/>
<path d="M153.847 88.1465H178.789V83.1822H153.847V88.1465Z" fill="#0050A5"/>
<path opacity="0.1" d="M159.856 86.8157H177.742V84.5388H159.856V86.8157Z" fill="#00F5EB"/>
<path d="M153.847 99.6804H178.789V94.7162H153.847V99.6804Z" fill="#0050A5"/>
<path opacity="0.05" d="M159.856 98.3513H177.742V96.0744H159.856V98.3513Z" fill="#00F5EB"/>
<path opacity="0.2" d="M158.082 97.2822C158.082 97.6171 158.338 97.8876 158.655 97.8876C158.971 97.8876 159.227 97.6155 159.227 97.2822C159.227 96.9472 158.971 96.6768 158.655 96.6768C158.338 96.6768 158.082 96.9472 158.082 97.2822Z" fill="#00F5EB"/>
<path opacity="0.5" d="M156.424 97.2822C156.424 97.6171 156.68 97.8876 156.997 97.8876C157.313 97.8876 157.569 97.6155 157.569 97.2822C157.569 96.9472 157.313 96.6768 156.997 96.6768C156.68 96.6768 156.424 96.9472 156.424 97.2822Z" fill="#00F5EB"/>
<path d="M154.766 97.2822C154.766 97.6171 155.023 97.8876 155.339 97.8876C155.655 97.8876 155.911 97.6155 155.911 97.2822C155.911 96.9472 155.655 96.6768 155.339 96.6768C155.023 96.6768 154.766 96.9472 154.766 97.2822Z" fill="#00F5EB"/>
<path opacity="0.2" d="M158.622 39.6273C158.938 39.6273 159.195 39.3563 159.195 39.0219C159.195 38.6876 158.938 38.4165 158.622 38.4165C158.306 38.4165 158.049 38.6876 158.049 39.0219C158.049 39.3563 158.306 39.6273 158.622 39.6273Z" fill="#00F5EB"/>
<path opacity="0.5" d="M156.966 39.6273C157.282 39.6273 157.538 39.3563 157.538 39.0219C157.538 38.6876 157.282 38.4165 156.966 38.4165C156.649 38.4165 156.393 38.6876 156.393 39.0219C156.393 39.3563 156.649 39.6273 156.966 39.6273Z" fill="#00F5EB"/>
<path d="M155.306 39.6273C155.623 39.6273 155.879 39.3563 155.879 39.0219C155.879 38.6876 155.623 38.4165 155.306 38.4165C154.99 38.4165 154.734 38.6876 154.734 39.0219C154.734 39.3563 154.99 39.6273 155.306 39.6273Z" fill="#00F5EB"/>
<path opacity="0.2" d="M158.049 50.6518C158.049 50.9867 158.306 51.2572 158.622 51.2572C158.938 51.2572 159.195 50.9852 159.195 50.6518C159.195 50.3169 158.938 50.0464 158.622 50.0464C158.306 50.0448 158.049 50.3169 158.049 50.6518Z" fill="#00F5EB"/>
<path opacity="0.5" d="M156.391 50.6518C156.391 50.9867 156.648 51.2572 156.964 51.2572C157.28 51.2572 157.537 50.9851 157.537 50.6518C157.537 50.3169 157.28 50.0464 156.964 50.0464C156.648 50.0464 156.391 50.3169 156.391 50.6518Z" fill="#00F5EB"/>
<path d="M154.734 50.6518C154.734 50.9867 154.99 51.2572 155.306 51.2572C155.623 51.2572 155.879 50.9851 155.879 50.6518C155.879 50.3169 155.623 50.0464 155.306 50.0464C154.99 50.0464 154.734 50.3169 154.734 50.6518Z" fill="#00F5EB"/>
<path opacity="0.2" d="M158.622 63.0772C158.938 63.0772 159.195 62.8062 159.195 62.4719C159.195 62.1375 158.938 61.8665 158.622 61.8665C158.306 61.8665 158.049 62.1375 158.049 62.4719C158.049 62.8062 158.306 63.0772 158.622 63.0772Z" fill="#00F5EB"/>
<path opacity="0.5" d="M156.966 63.0772C157.282 63.0772 157.538 62.8062 157.538 62.4719C157.538 62.1375 157.282 61.8665 156.966 61.8665C156.649 61.8665 156.393 62.1375 156.393 62.4719C156.393 62.8062 156.649 63.0772 156.966 63.0772Z" fill="#00F5EB"/>
<path d="M155.306 63.0772C155.623 63.0772 155.879 62.8062 155.879 62.4719C155.879 62.1375 155.623 61.8665 155.306 61.8665C154.99 61.8665 154.734 62.1375 154.734 62.4719C154.734 62.8062 154.99 63.0772 155.306 63.0772Z" fill="#00F5EB"/>
<path opacity="0.2" d="M158.622 86.3468C158.938 86.3468 159.195 86.0757 159.195 85.7414C159.195 85.407 158.938 85.136 158.622 85.136C158.306 85.136 158.049 85.407 158.049 85.7414C158.049 86.0757 158.306 86.3468 158.622 86.3468Z" fill="#00F5EB"/>
<path opacity="0.5" d="M156.966 86.3468C157.282 86.3468 157.538 86.0757 157.538 85.7414C157.538 85.407 157.282 85.136 156.966 85.136C156.649 85.136 156.393 85.407 156.393 85.7414C156.393 86.0757 156.649 86.3468 156.966 86.3468Z" fill="#00F5EB"/>
<path d="M155.306 86.3468C155.623 86.3468 155.879 86.0757 155.879 85.7414C155.879 85.407 155.623 85.136 155.306 85.136C154.99 85.136 154.734 85.407 154.734 85.7414C154.734 86.0757 154.99 86.3468 155.306 86.3468Z" fill="#00F5EB"/>
<path d="M146.76 109.498H147.757V5.86629H146.76V109.498Z" fill="#005AB8"/>
<path d="M147.667 62.8232H148.871V56.3573H147.667V62.8232Z" fill="#265399"/>
<path d="M167.741 9.56864H181.491L182.555 8.53711H167.741V9.56864Z" fill="#003A75"/>
<path d="M167.741 11.1253H181.491L182.555 10.0938H167.741V11.1253Z" fill="#003A75"/>
<path d="M167.741 12.6824H181.491L182.555 11.6509H167.741V12.6824Z" fill="#003A75"/>
<path d="M167.741 14.2392H181.491L182.555 13.2092H167.741V14.2392Z" fill="#003A75"/>
<path d="M167.741 15.7974H181.491L182.555 14.7659H167.741V15.7974Z" fill="#003A75"/>
<path d="M167.741 17.3536H181.491L182.555 16.322H167.741V17.3536Z" fill="#003A75"/>
<path d="M150.423 9.56864H164.174L165.238 8.53711H150.423V9.56864Z" fill="#003A75"/>
<path d="M150.423 11.1253H164.174L165.238 10.0938H150.423V11.1253Z" fill="#003A75"/>
<path d="M150.423 12.6824H164.174L165.238 11.6509H150.423V12.6824Z" fill="#003A75"/>
<path d="M150.423 14.2392H164.174L165.238 13.2092H150.423V14.2392Z" fill="#003A75"/>
<path d="M150.423 15.7974H164.174L165.238 14.7659H150.423V15.7974Z" fill="#003A75"/>
<path d="M150.423 17.3536H164.174L165.238 16.322H150.423V17.3536Z" fill="#003A75"/>
<path d="M135.803 27.1658H145.162V20.9404H135.803V27.1658Z" fill="#005AB8"/>
<path d="M135.803 35.9414H145.162V29.716H135.803V35.9414Z" fill="#005AB8"/>
<path d="M135.803 45.1665H145.162V38.9411H135.803V45.1665Z" fill="#005AB8"/>
<path d="M135.803 53.9402H145.162V47.7148H135.803V53.9402Z" fill="#005AB8"/>
<path d="M135.803 102.723H145.162V57.4124H135.803V102.723Z" fill="#005AB8"/>
<path d="M133.984 109.514H176.366C176.876 109.514 177.289 109.929 177.289 110.44V121.785C177.289 122.296 176.876 122.712 176.366 122.712H133.984C133.474 122.712 133.061 122.296 133.061 121.785V110.44C133.061 109.929 133.474 109.514 133.984 109.514Z" fill="#113873"/>
<path d="M146.185 109.462C153.589 109.472 179.545 109.506 186.133 109.514C186.809 109.514 187.349 110.055 187.349 110.72V121.512C187.349 122.177 186.811 122.716 186.135 122.716C179.515 122.731 153.858 122.803 146.186 122.822C145.509 122.823 144.966 122.284 144.966 121.616V110.668C144.964 110 145.509 109.461 146.185 109.462Z" fill="#004185"/>
<path d="M132.598 0H81.136V108.835H132.598V0Z" fill="#004A98"/>
<path d="M127.978 15.7134H84.5437V101.952H127.978V15.7134Z" fill="#0050A5"/>
<path d="M82.9544 52.0499H82.7838C82.4223 52.0499 82.1296 51.7559 82.1296 51.3926V41.9752C82.1296 41.6119 82.4223 41.3179 82.7838 41.3179H82.9544C83.3159 41.3179 83.6086 41.6119 83.6086 41.9752V51.3926C83.607 51.7559 83.3144 52.0499 82.9544 52.0499Z" fill="#003A75"/>
<path d="M126.933 29.2256H86.2942V39.7171H126.933V29.2256Z" fill="#005AB8"/>
<path d="M126.933 41.4346H86.2942V51.926H126.933V41.4346Z" fill="#005AB8"/>
<path d="M126.933 53.6431H86.2942V64.1345H126.933V53.6431Z" fill="#005AB8"/>
<path d="M126.933 65.8516H86.2942V76.343H126.933V65.8516Z" fill="#005AB8"/>
<path d="M126.933 78.0603H86.2942V88.5518H126.933V78.0603Z" fill="#005AB8"/>
<path d="M126.933 90.2688H86.2942V100.76H126.933V90.2688Z" fill="#005AB8"/>
<path d="M126.933 17.0171H86.2942V27.5086H126.933V17.0171Z" fill="#005AB8"/>
<path d="M123.085 19.7407H89.5842V24.955H123.085V19.7407Z" fill="#0050A5"/>
<path d="M114.966 21.1665H90.9426V23.5566H114.966V21.1665Z" fill="#00F5EB"/>
<path opacity="0.2" d="M116.626 23.1575C117.051 23.1575 117.396 22.8013 117.396 22.3618C117.396 21.9224 117.051 21.5662 116.626 21.5662C116.2 21.5662 115.856 21.9224 115.856 22.3618C115.856 22.8013 116.2 23.1575 116.626 23.1575Z" fill="#00F5EB"/>
<path opacity="0.5" d="M118.85 23.1575C119.275 23.1575 119.62 22.8013 119.62 22.3618C119.62 21.9224 119.275 21.5662 118.85 21.5662C118.425 21.5662 118.08 21.9224 118.08 22.3618C118.08 22.8013 118.425 23.1575 118.85 23.1575Z" fill="#00F5EB"/>
<path d="M121.078 23.1575C121.504 23.1575 121.848 22.8013 121.848 22.3618C121.848 21.9224 121.504 21.5662 121.078 21.5662C120.653 21.5662 120.308 21.9224 120.308 22.3618C120.308 22.8013 120.653 23.1575 121.078 23.1575Z" fill="#00F5EB"/>
<path d="M123.085 32.0859H89.5842V37.3002H123.085V32.0859Z" fill="#0050A5"/>
<path opacity="0.8" d="M114.966 33.512H90.9426V35.9021H114.966V33.512Z" fill="#00F5EB"/>
<path d="M123.085 44.4316H89.5842V49.6459H123.085V44.4316Z" fill="#0050A5"/>
<path opacity="0.6" d="M114.966 45.8577H90.9426V48.2478H114.966V45.8577Z" fill="#00F5EB"/>
<path d="M123.085 56.7771H89.5842V61.9914H123.085V56.7771Z" fill="#0050A5"/>
<path opacity="0.4" d="M114.966 58.2036H90.9426V60.5938H114.966V58.2036Z" fill="#00F5EB"/>
<path d="M123.085 68.7983H89.5842V74.0126H123.085V68.7983Z" fill="#0050A5"/>
<path opacity="0.2" d="M114.966 70.2246H90.9426V72.6148H114.966V70.2246Z" fill="#00F5EB"/>
<path d="M123.085 81.1912H89.5842V86.4054H123.085V81.1912Z" fill="#0050A5"/>
<path opacity="0.1" d="M114.966 82.6172H90.9426V85.0073H114.966V82.6172Z" fill="#00F5EB"/>
<path d="M123.085 93.3049H89.5842V98.5192H123.085V93.3049Z" fill="#0050A5"/>
<path opacity="0.05" d="M114.966 94.731H90.9426V97.1211H114.966V94.731Z" fill="#00F5EB"/>
<path opacity="0.2" d="M116.77 35.5562C117.195 35.5562 117.54 35.1999 117.54 34.7605C117.54 34.3211 117.195 33.9648 116.77 33.9648C116.344 33.9648 116 34.3211 116 34.7605C116 35.1999 116.344 35.5562 116.77 35.5562Z" fill="#00F5EB"/>
<path opacity="0.5" d="M118.998 35.5562C119.423 35.5562 119.768 35.1999 119.768 34.7605C119.768 34.3211 119.423 33.9648 118.998 33.9648C118.573 33.9648 118.228 34.3211 118.228 34.7605C118.228 35.1999 118.573 35.5562 118.998 35.5562Z" fill="#00F5EB"/>
<path d="M121.224 35.5562C121.649 35.5562 121.994 35.1999 121.994 34.7605C121.994 34.3211 121.649 33.9648 121.224 33.9648C120.798 33.9648 120.454 34.3211 120.454 34.7605C120.454 35.1999 120.798 35.5562 121.224 35.5562Z" fill="#00F5EB"/>
<path opacity="0.2" d="M116.605 47.8074C117.03 47.8074 117.375 47.4512 117.375 47.0117C117.375 46.5723 117.03 46.2161 116.605 46.2161C116.179 46.2161 115.835 46.5723 115.835 47.0117C115.835 47.4512 116.179 47.8074 116.605 47.8074Z" fill="#00F5EB"/>
<path opacity="0.5" d="M118.832 47.8074C119.258 47.8074 119.602 47.4512 119.602 47.0117C119.602 46.5723 119.258 46.2161 118.832 46.2161C118.407 46.2161 118.062 46.5723 118.062 47.0117C118.062 47.4512 118.407 47.8074 118.832 47.8074Z" fill="#00F5EB"/>
<path d="M121.059 47.8074C121.484 47.8074 121.829 47.4512 121.829 47.0117C121.829 46.5723 121.484 46.2161 121.059 46.2161C120.634 46.2161 120.289 46.5723 120.289 47.0117C120.289 47.4512 120.634 47.8074 121.059 47.8074Z" fill="#00F5EB"/>
<path opacity="0.2" d="M116.605 60.1673C117.03 60.1673 117.375 59.811 117.375 59.3716C117.375 58.9322 117.03 58.5759 116.605 58.5759C116.179 58.5759 115.835 58.9322 115.835 59.3716C115.835 59.811 116.179 60.1673 116.605 60.1673Z" fill="#00F5EB"/>
<path opacity="0.5" d="M118.832 60.1673C119.258 60.1673 119.602 59.811 119.602 59.3716C119.602 58.9322 119.258 58.5759 118.832 58.5759C118.407 58.5759 118.062 58.9322 118.062 59.3716C118.062 59.811 118.407 60.1673 118.832 60.1673Z" fill="#00F5EB"/>
<path d="M121.059 60.1673C121.484 60.1673 121.829 59.811 121.829 59.3716C121.829 58.9322 121.484 58.5759 121.059 58.5759C120.634 58.5759 120.289 58.9322 120.289 59.3716C120.289 59.811 120.634 60.1673 121.059 60.1673Z" fill="#00F5EB"/>
<path opacity="0.2" d="M116.496 72.1729C116.921 72.1729 117.266 71.8166 117.266 71.3772C117.266 70.9378 116.921 70.5815 116.496 70.5815C116.071 70.5815 115.726 70.9378 115.726 71.3772C115.726 71.8166 116.071 72.1729 116.496 72.1729Z" fill="#00F5EB"/>
<path opacity="0.5" d="M118.724 72.1729C119.149 72.1729 119.494 71.8166 119.494 71.3772C119.494 70.9378 119.149 70.5815 118.724 70.5815C118.298 70.5815 117.954 70.9378 117.954 71.3772C117.954 71.8166 118.298 72.1729 118.724 72.1729Z" fill="#00F5EB"/>
<path d="M120.95 72.1729C121.375 72.1729 121.72 71.8166 121.72 71.3772C121.72 70.9378 121.375 70.5815 120.95 70.5815C120.525 70.5815 120.18 70.9378 120.18 71.3772C120.18 71.8166 120.525 72.1729 120.95 72.1729Z" fill="#00F5EB"/>
<path opacity="0.2" d="M116.632 84.5325C117.057 84.5325 117.402 84.1763 117.402 83.7368C117.402 83.2974 117.057 82.9412 116.632 82.9412C116.207 82.9412 115.862 83.2974 115.862 83.7368C115.862 84.1763 116.207 84.5325 116.632 84.5325Z" fill="#00F5EB"/>
<path opacity="0.5" d="M119.63 83.7368C119.63 84.1771 119.286 84.5325 118.86 84.5325C118.434 84.5325 118.09 84.1755 118.09 83.7368C118.09 83.2965 118.434 82.9412 118.86 82.9412C119.286 82.9412 119.63 83.2965 119.63 83.7368Z" fill="#00F5EB"/>
<path d="M121.086 84.5325C121.511 84.5325 121.856 84.1763 121.856 83.7368C121.856 83.2974 121.511 82.9412 121.086 82.9412C120.661 82.9412 120.316 83.2974 120.316 83.7368C120.316 84.1763 120.661 84.5325 121.086 84.5325Z" fill="#00F5EB"/>
<path opacity="0.2" d="M116.632 96.6199C117.057 96.6199 117.402 96.2637 117.402 95.8242C117.402 95.3848 117.057 95.0286 116.632 95.0286C116.207 95.0286 115.862 95.3848 115.862 95.8242C115.862 96.2637 116.207 96.6199 116.632 96.6199Z" fill="#00F5EB"/>
<path opacity="0.5" d="M119.63 95.8242C119.63 96.2645 119.286 96.6199 118.86 96.6199C118.434 96.6199 118.09 96.263 118.09 95.8242C118.09 95.3839 118.434 95.0286 118.86 95.0286C119.286 95.027 119.63 95.3839 119.63 95.8242Z" fill="#00F5EB"/>
<path d="M121.086 96.6199C121.511 96.6199 121.856 96.2637 121.856 95.8242C121.856 95.3848 121.511 95.0286 121.086 95.0286C120.661 95.0286 120.316 95.3848 120.316 95.8242C120.316 96.2637 120.661 96.6199 121.086 96.6199Z" fill="#00F5EB"/>
<path d="M104.424 2.79565H85.0427V3.87908H104.424V2.79565Z" fill="#003A75"/>
<path d="M104.424 4.43091H85.0427V5.51433H104.424V4.43091Z" fill="#003A75"/>
<path d="M104.424 6.06665H85.0427V7.15008H104.424V6.06665Z" fill="#003A75"/>
<path d="M104.424 7.70166H85.0427V8.78509H104.424V7.70166Z" fill="#003A75"/>
<path d="M104.424 9.33716H85.0427V10.4206H104.424V9.33716Z" fill="#003A75"/>
<path d="M104.424 10.9724H85.0427V12.0558H104.424V10.9724Z" fill="#003A75"/>
<path d="M127.682 2.79565H108.34V3.87908H127.682V2.79565Z" fill="#003A75"/>
<path d="M127.682 4.43091H108.34V5.51433H127.682V4.43091Z" fill="#003A75"/>
<path d="M127.682 6.06665H108.34V7.15008H127.682V6.06665Z" fill="#003A75"/>
<path d="M127.682 7.70166H108.34V8.78509H127.682V7.70166Z" fill="#003A75"/>
<path d="M127.682 9.33716H108.34V10.4206H127.682V9.33716Z" fill="#003A75"/>
<path d="M127.682 10.9724H108.34V12.0558H127.682V10.9724Z" fill="#003A75"/>
<path d="M133.376 108.791C123.432 108.8 88.5711 108.838 79.7209 108.844C78.8132 108.846 78.0886 109.412 78.0886 110.11V121.443C78.0886 122.141 78.8132 122.707 79.7194 122.709C88.6118 122.723 123.07 122.799 133.374 122.819C134.285 122.821 135.015 122.253 135.015 121.553V110.057C135.016 109.357 134.287 108.789 133.376 108.791Z" fill="#004185"/>
<path d="M96.1536 112.383H81.4237C80.9276 112.383 80.5222 111.975 80.5222 111.477C80.5222 110.978 80.9276 110.571 81.4237 110.571H96.1536C96.6497 110.571 97.055 110.978 97.055 111.477C97.055 111.974 96.6497 112.383 96.1536 112.383Z" fill="#003A75"/>
<path d="M79.1557 46.003C79.0663 45.9836 78.9768 45.9632 78.8864 45.9407C77.3474 45.9131 75.8318 45.3341 74.3406 44.2034C72.3625 42.8103 70.6863 40.8739 69.3099 38.3961L69.5711 36.4668C68.2731 39.9669 66.3356 45.8222 65.3821 45.9775C63.1418 46.3431 66.8408 51.1015 69.6006 55.6976C72.0036 59.7012 78.3283 64.5086 77.3108 60.6102C75.4943 53.6447 78.4472 48.7034 79.1557 46.003Z" fill="url(#paint0_linear_12296_98702)"/>
<path d="M76.8941 32.4079L83.664 20.7769C80.8737 23.8062 77.13 23.1464 77.13 23.1464C80.6023 21.3397 82.121 17.4555 82.121 17.4555C79.8451 21.1906 74.7615 21.5123 73.8009 21.5399C74.296 21.497 75.9854 21.116 79.3988 18.1674C81.1513 16.6528 82.1047 15.2627 82.6221 14.1597C80.2049 15.466 77.8283 17.5863 74.5603 17.9304C61.0662 19.3511 67.3268 37.057 70.4688 37.7628C72.9623 38.3235 71.7201 34.6783 74.0235 33.5794C74.7747 33.2209 75.7628 32.8348 76.8941 32.4079Z" fill="url(#paint1_linear_12296_98702)"/>
<path d="M80.8574 23.4878C78.8691 26.0994 75.0633 21.871 72.1175 24.1139C70.1455 25.6142 69.4289 29.7394 69.3191 29.5209C66.2462 23.4439 66.6772 33.1068 68.6533 33.739C68.6858 33.7492 67.7273 38.4811 68.2416 40.4992C68.7549 42.5174 76.1632 48.5719 81.6421 46.4812C82.9392 45.1483 85.9684 26.5957 80.8574 23.4878Z" fill="url(#paint2_linear_12296_98702)"/>
<path opacity="0.5" d="M76.8738 35.3914C76.8738 35.3914 76.4987 37.195 77.1208 37.7425C77.7429 38.2909 79.4567 37.2737 79.4567 37.2737L76.8738 35.3914Z" fill="url(#paint3_linear_12296_98702)"/>
<path opacity="0.3" d="M72.9358 23.6541C72.6573 23.7613 72.3838 23.9104 72.1175 24.1126C70.1455 25.613 69.4289 29.7382 69.3191 29.5196C66.2462 23.4426 66.6772 33.1055 68.6533 33.7377C68.6858 33.7479 67.7273 38.4798 68.2416 40.498C68.6279 42.0157 72.9144 45.8171 77.3464 46.7189L73.9767 43.2586C73.9767 43.2586 74.3477 41.4355 72.6624 36.5433C70.6985 30.8453 72.0779 26.8631 72.9358 23.6541Z" fill="url(#paint4_linear_12296_98702)"/>
<path opacity="0.5" d="M75.0135 27.7883C75.0135 27.7883 78.0905 27.7342 78.7918 29.2795C79.4942 30.8248 77.9603 35.8988 77.9603 35.8988L76.8737 35.3901C76.8737 35.3901 77.4338 31.9799 75.7423 30.8452C74.0509 29.7125 75.0135 27.7883 75.0135 27.7883Z" fill="url(#paint5_linear_12296_98702)"/>
<path d="M76.8745 35.3914C76.8745 35.3914 77.6837 35.9592 78.4603 36.3259C79.1789 36.665 80.0033 36.3187 80.0033 36.3187C80.0033 36.3187 79.9118 37.049 79.4574 37.2737C79.3355 37.3339 79.186 37.3585 79.0061 37.3217C76.8948 36.8937 76.8745 35.3914 76.8745 35.3914Z" fill="url(#paint6_linear_12296_98702)"/>
<path d="M73.6045 38.1692C73.6045 38.1692 75.5755 41.1168 77.5434 41.7306C79.5114 42.3444 79.0153 42.9082 76.7343 41.6458C74.4543 40.3824 73.6045 38.1692 73.6045 38.1692Z" fill="url(#paint7_linear_12296_98702)"/>
<path d="M68.785 29.9679C68.785 29.9679 67.8498 27.8691 67.5164 28.9016C66.9034 30.8023 68.1243 32.029 68.1243 32.029L68.785 29.9679Z" fill="url(#paint8_linear_12296_98702)"/>
<path d="M78.9872 29.0532C79.1255 28.9654 79.4477 28.4169 79.2607 28.2412C77.6241 26.7011 74.54 27.2107 74.54 27.2107C74.54 27.2107 74.5614 27.7357 74.844 28.0114C77.0305 27.9808 78.6924 29.2411 78.9872 29.0532Z" fill="url(#paint9_linear_12296_98702)"/>
<path d="M78.1618 30.6424C78.0632 31.2379 77.927 31.2991 77.0396 31.1521C76.1533 31.004 75.5261 30.383 74.9497 30.1073C74.9497 30.1073 75.829 29.2544 76.7164 29.4025C77.6038 29.5496 78.2604 30.047 78.1618 30.6424Z" fill="url(#paint10_linear_12296_98702)"/>
<path d="M77.8503 30.3634C77.8665 30.824 77.5992 31.1989 77.2525 31.1999C76.9069 31.2009 76.6132 30.8281 76.5969 30.3675C76.5806 29.9069 76.848 29.532 77.1946 29.531C77.5402 29.53 77.834 29.9028 77.8503 30.3634Z" fill="#3E89AE"/>
<path d="M74.9497 30.1067C74.9497 30.1067 76.5731 28.7902 78.1446 30.3212C78.2442 29.3632 75.8513 28.8341 74.9497 30.1067Z" fill="black"/>
<path d="M77.7069 30.1846C77.7161 30.4583 77.5575 30.6819 77.3511 30.6819C77.1448 30.683 76.971 30.4613 76.9608 30.1866C76.9517 29.9129 77.1103 29.6892 77.3166 29.6892C77.5219 29.6892 77.6968 29.9108 77.7069 30.1846Z" fill="black"/>
<path d="M77.2625 30.6075C77.2411 30.7341 77.122 30.8199 76.9968 30.7985C76.8706 30.777 76.7851 30.6575 76.8065 30.5319C76.8279 30.4063 76.947 30.3195 77.0722 30.3409C77.1974 30.3613 77.2829 30.4808 77.2625 30.6075Z" fill="white"/>
<path d="M78.5021 34.7866C78.5021 34.7866 77.1633 34.1707 77.1166 35.1359C77.0922 35.6323 78.2957 36.2522 78.2957 36.2522L78.5021 34.7866Z" fill="url(#paint11_linear_12296_98702)"/>
<path opacity="0.44" d="M77.3184 36.4289C77.3184 36.4289 77.8723 36.288 78.2413 36.622C78.6103 36.956 78.3186 37.1204 78.3186 37.1204L77.3184 36.4289Z" fill="url(#paint12_linear_12296_98702)"/>
<path d="M83.0183 32.0997C82.9329 32.6165 82.814 32.6706 82.0435 32.5419C81.273 32.4132 80.7292 31.874 80.228 31.6339C80.228 31.6339 80.9924 30.8935 81.763 31.0211C82.5335 31.1509 83.1037 31.5829 83.0183 32.0997Z" fill="url(#paint13_linear_12296_98702)"/>
<path d="M82.7495 31.8574C82.7637 32.2577 82.5309 32.5836 82.23 32.5846C81.9292 32.5856 81.674 32.2618 81.6598 31.8615C81.6456 31.4611 81.8783 31.1353 82.1792 31.1343C82.4801 31.1333 82.7353 31.457 82.7495 31.8574Z" fill="#3E89AE"/>
<path d="M80.228 31.6352C80.228 31.6352 81.6379 30.4913 83.0041 31.8221C83.0905 30.9887 81.0117 30.5301 80.228 31.6352Z" fill="black"/>
<path d="M82.6239 31.7024C82.632 31.9404 82.4936 32.1345 82.3144 32.1345C82.1353 32.1355 81.9836 31.9425 81.9754 31.7045C81.9673 31.4665 82.1057 31.2725 82.2849 31.2725C82.463 31.2714 82.6147 31.4645 82.6239 31.7024Z" fill="black"/>
<path d="M82.2376 32.0701C82.2193 32.1804 82.1155 32.254 82.0065 32.2356C81.8976 32.2172 81.8233 32.113 81.8416 32.0037C81.86 31.8934 81.9638 31.8199 82.0727 31.8383C82.1816 31.8566 82.2549 31.9598 82.2376 32.0701Z" fill="white"/>
<path d="M80.2114 29.7247C80.1616 29.6073 80.1738 29.0793 80.3517 29.018C81.9029 28.4767 83.5516 29.9995 83.5516 29.9995C83.5516 29.9995 83.3432 30.3835 83.0708 30.4836C81.7788 29.6512 80.3171 29.975 80.2114 29.7247Z" fill="url(#paint14_linear_12296_98702)"/>
<path d="M75.8936 42.4387C75.8936 42.4387 78.4256 42.5082 78.3209 43.3375C78.2173 44.1668 75.8936 42.4387 75.8936 42.4387Z" fill="url(#paint15_linear_12296_98702)"/>
<path d="M73.8584 38.5239C73.8584 38.5239 76.0266 40.7239 76.8967 41.0068C77.7668 41.2907 78.0108 41.6359 78.0108 41.6359C78.0108 41.6359 78.8362 41.7544 78.8382 41.8218C78.8403 41.8882 78.7589 42.3141 78.7589 42.3141C78.7589 42.3141 76.5806 41.5328 75.8609 40.9813C75.1422 40.4287 73.8584 38.5239 73.8584 38.5239Z" fill="url(#paint16_linear_12296_98702)"/>
<path d="M78.2427 37.2859C78.2427 37.2859 77.7497 41.4744 78.0089 41.6368C78.2671 41.7992 78.8364 41.8227 78.8364 41.8227L78.2427 37.2859Z" fill="url(#paint17_linear_12296_98702)"/>
<path d="M107.273 27.0841C107.273 27.0841 101.23 24.8729 96.0724 33.436C91.8736 40.4081 97.3603 43.4539 97.3603 43.4539C97.3603 43.4539 106.674 46.1551 109.954 42.7495C113.233 39.3438 112.032 30.5326 111.368 29.5541C110.705 28.5741 107.273 27.0841 107.273 27.0841Z" fill="url(#paint18_linear_12296_98702)"/>
<path d="M96.8576 35.731C96.8576 35.731 94.3368 34.8719 96.5497 29.5062C98.5326 24.6963 99.7472 24.5279 101.044 24.8954C102.341 25.2629 104.324 27.8447 102.666 31.4877C101.008 35.1307 96.8576 35.731 96.8576 35.731Z" fill="#70BCE7"/>
<path d="M89.1192 23.9906C88.7275 23.8008 85.8592 23.0565 84.96 22.9494C84.0669 22.8422 83.1677 23.0336 82.2868 23.2219C81.4394 23.4042 80.4975 23.2051 79.7447 23.7686C78.9918 24.3321 78.8897 25.6062 78.4614 26.5234C78.4248 26.6031 78.3867 26.6858 78.3867 26.7746C78.3867 26.9323 78.5132 27.0671 78.6595 27.1268C78.8043 27.1865 78.9674 27.185 79.1244 27.1834C79.1244 27.1834 80.3375 26.7179 80.8374 25.7608C81.3373 24.8038 83.4405 24.7502 84.64 24.7042C85.8379 24.6583 89.1192 23.9906 89.1192 23.9906Z" fill="url(#paint19_linear_12296_98702)"/>
<path d="M88.9202 29.9045C87.5821 30.4405 85.9255 29.7943 85.5292 31.494C85.1909 32.9473 83.6576 33.3347 83.3041 32.9856C82.8926 32.5782 83.3269 31.0224 83.5601 30.491C84.3831 28.6198 85.5643 28.5968 87.4907 27.9383C85.5109 28.1588 83.4839 28.3625 82.9871 30.3011C82.4841 32.2658 81.2938 31.7314 81.0164 31.6074C80.3672 31.3164 80.9479 29.2476 81.1247 28.8969C82.1092 26.9414 83.3848 26.1605 85.7715 25.6704C83.9457 25.9246 81.4996 26.0671 80.8336 27.7929C80.0441 29.8341 79.5168 29.0547 79.0885 28.8786C78.6999 28.7178 79.1114 25.43 80.4525 24.7379C81.7937 24.0457 83.3224 23.8222 84.7245 23.2663C90.0023 22.9968 97.17 24.989 102.062 26.995C102.065 28.0409 100.759 34.9717 99.008 34.3607C98.5828 34.2121 95.7145 31.1235 94.4998 31.1755C92.9834 31.2383 89.8438 30.883 88.9202 29.9045Z" fill="url(#paint20_linear_12296_98702)"/>
<path d="M103.98 39.7768L96.5044 35.5902C96.5044 35.5902 98.4704 36.7479 100.747 31.1127C103.155 25.1528 101.099 24.8955 101.099 24.8955L109.828 27.1955L103.98 39.7768Z" fill="url(#paint21_linear_12296_98702)"/>
<path d="M97.3587 43.4538C144.734 65.1311 100.57 54.0107 84.52 53.487C92.5092 63.8555 90.886 93.7866 97.6712 92.6366C106.639 91.1145 152.8 106.025 156.517 63.6656C159.202 33.0669 105.141 25.9692 105.141 25.9692C110.607 29.1911 103.822 44.4277 97.3587 43.4538Z" fill="url(#paint22_linear_12296_98702)"/>
<path d="M55.2729 52.9894L59.9701 49.4719L73.9702 56.4134L78.5759 51.3218L81.2476 52.432C81.2476 52.432 95.3406 73.1629 96.2612 86.859C97.1817 100.557 94.7142 168.967 94.7142 168.967L77.2134 169.011C77.2134 169.011 76.5504 94.8188 70.6553 81.1212C64.7587 67.4266 55.2729 52.9894 55.2729 52.9894Z" fill="url(#paint23_linear_12296_98702)"/>
<path d="M84.5257 75.48L84.3685 74.9965C83.4997 72.3244 79.6884 71.1786 75.856 72.4365L79.1588 82.5954C80.0276 85.2675 83.839 86.4132 87.6714 85.1554" stroke="#00BAEB" stroke-width="0.622599" stroke-miterlimit="10"/>
<path d="M84.5257 75.48L84.3685 74.9965C83.4997 72.3244 79.6884 71.1786 75.856 72.4365L77.586 77.7577C81.4184 76.4999 85.2298 77.6456 86.0985 80.3177L86.2557 80.8012" stroke="#00BAEB" stroke-width="0.622599" stroke-miterlimit="10"/>
<path d="M88.477 64.0107C84.6446 65.2686 82.2414 68.4541 83.1101 71.1262L84.3683 74.996L84.5255 75.4795L86.0984 80.3172C86.6804 82.1073 85.7927 84.1281 83.9908 85.6449C85.1452 85.7214 86.4073 85.5698 87.6712 85.1549C91.5036 83.897 93.9068 80.7115 93.038 78.0395L88.477 64.0107Z" stroke="#00BAEB" stroke-width="0.622599" stroke-miterlimit="10"/>
<path d="M75.6089 54.5547L71.8323 55.1932L68.7598 59.974L74.0041 62.2174C74.0041 62.2174 79.8915 71.0699 80.5682 85.2269C81.6031 106.86 80.3945 148.061 80.3945 148.061L89.6318 160.73L99.3279 148.836C99.3279 148.836 95.6595 102.079 92.2014 87.968C87.5469 68.9812 79.6096 59.6632 79.6096 59.6632L79.4145 55.0064L75.6089 54.5547Z" fill="url(#paint24_linear_12296_98702)"/>
<path opacity="0.2" d="M80.7795 90.9356C81.3495 89.4594 81.9241 87.9801 82.5063 86.4963C84.0685 82.5041 86.1199 78.8014 88.0493 75.0512C85.7389 69.3302 83.2546 64.8557 81.2566 61.7058C79.9215 64.1437 78.5453 66.5402 77.1919 68.9443C78.8211 73.6685 80.2888 79.3971 80.5677 85.2284C80.6531 87.0093 80.7216 88.9234 80.7795 90.9356Z" fill="white"/>
<path opacity="0.2" d="M96.7142 120.336C95.8318 111.832 94.7985 102.962 93.7316 96.1125C88.9781 103.784 84.7534 111.758 81.1215 120.2C81.0529 120.362 80.9859 120.526 80.9188 120.689C80.7618 135.547 80.3945 148.064 80.3945 148.064L82.9839 151.617C84.543 147.508 86.1311 143.403 87.9127 139.352C90.7612 132.87 93.8033 126.682 96.7142 120.336Z" fill="white"/>
<path d="M71.833 55.1944C71.3788 55.5343 67.4238 52.83 66.4439 48.942C66.1434 45.1856 66.9724 43.728 66.9724 43.728L59.7334 49.7031C59.7334 49.7031 61.5638 55.4088 64.0739 57.9201C66.5841 60.43 72.4228 63.7361 72.4228 63.7361C72.4228 63.7361 71.5266 60.1819 71.2447 58.0013C71.0679 56.6323 71.833 55.1944 71.833 55.1944Z" fill="url(#paint25_linear_12296_98702)"/>
<path d="M77.9224 49.6711C79.0166 50.812 81.2342 56.7458 79.7086 59.0382C79.7086 59.0382 78.4847 56.435 77.6175 55.5621C76.7504 54.6908 75.6104 54.553 75.6104 54.553C76.8738 52.7705 77.2335 51.6864 77.9224 49.6711Z" fill="url(#paint26_linear_12296_98702)"/>
<path d="M20.9189 76.7832C22.0605 65.0364 26.9253 65.7638 38.1211 59.2021C97.1634 24.5989 84.3399 169.019 84.3399 169.019L23.9595 169.091C23.9595 169.092 20.9388 84.6694 20.9189 76.7832Z" fill="url(#paint27_radial_12296_98702)"/>
<path d="M37.8112 154.903H70.3226C70.3226 154.903 72.0813 164.465 53.0656 164.465C37.5948 164.465 37.8112 154.903 37.8112 154.903Z" fill="url(#paint28_linear_12296_98702)"/>
<path d="M72.2052 109.971C67.7534 91.0255 67.4958 70.7371 47.0962 55.2019C52.7474 52.4731 58.0725 50.8208 58.0725 50.8208C58.0725 50.8208 71.5666 59.3074 77.2346 73.3312C87.8314 99.5534 85.2176 129.347 85.3792 150.704C79.8819 145.357 73.9746 117.499 72.2052 109.971Z" fill="url(#paint29_linear_12296_98702)"/>
<path d="M110.356 169.085C110.356 169.085 113.561 95.1283 103.2 71.7757C99.3263 63.0426 95.4384 54.798 92.1586 53.8486C88.9428 52.9176 84.5215 53.4872 84.5215 53.4872C84.5215 53.4872 88.7035 60.4853 92.8215 78.1184C93.8731 82.6236 94.5315 90.1729 94.7769 100.56C94.9735 108.883 92.8703 168.997 92.8703 168.997L110.356 169.085Z" fill="url(#paint30_linear_12296_98702)"/>
<path d="M92.7608 83.3861C88.1215 60.2203 83.9304 56.9433 80.3945 52.0798L87.7329 54.582C90.9152 56.9984 94.6613 61.3581 98.0386 68.9013C105.289 85.095 103.315 140.634 93.5076 148.839C94.3306 126.813 95.306 96.0975 92.7608 83.3861Z" fill="url(#paint31_linear_12296_98702)"/>
<path d="M38.2127 169.539C37.7036 170.469 37.0453 171.238 36.2954 171.899C49.1189 181.161 62.866 186.353 63.4664 185.981C65.0545 184.998 57.0166 181.733 57.3656 181.23C57.8762 180.491 65.7693 186.924 66.7447 185.254C67.6957 183.625 59.2539 180.072 59.3759 179.663C59.6365 178.79 67.7689 184.626 68.4654 183.093C69.203 181.465 60.1044 177.398 60.6408 176.87C61.2627 176.257 68.0143 182.004 68.3572 180.505C68.9348 177.977 58.9232 173.215 58.8668 172.239C58.8104 171.265 63.1235 175.152 64.2117 174.855C65.8242 174.414 63.5808 170.965 57.5622 168.589C54.8082 167.501 55.0292 168.527 52.4917 167.523C51.8378 167.264 47.1071 164.638 41.8064 160.92C40.6481 163.799 39.7322 166.723 38.2127 169.539Z" fill="url(#paint32_linear_12296_98702)"/>
<path d="M50.0648 165.667C46.5107 163.266 43.7643 160.924 41.3121 158.292L28.5298 170.305C28.5298 170.305 33.1889 173.646 36.2675 175.205C39.3461 176.763 41.8196 177.326 41.8196 177.326C41.8196 177.326 46.4482 176.126 48.5514 173.063C50.6546 170 50.0648 165.667 50.0648 165.667Z" fill="url(#paint33_linear_12296_98702)"/>
<path d="M31.4695 130.826C30.4743 104.538 51.4637 103.627 60.5014 87.7304C66.9787 76.3374 58.1604 62.0962 42.8512 61.2708C20.2112 60.0488 3.11272 86.144 0.431886 110.18C-2.68178 138.091 11.3899 163.739 31.3689 179.406C37.1801 177.55 46.2742 170.314 45.1601 161.404C45.1601 161.404 32.0654 146.533 31.4695 130.826Z" fill="url(#paint34_linear_12296_98702)"/>
<path d="M67.4092 169.253L141.287 168.836V163.562L72.2618 163.979C69.581 163.979 67.4092 166.163 67.4092 168.855V169.253Z" fill="#00345B"/>
<path d="M209.519 109.052L137.963 104.948L106.622 168.383L181.269 168.316L209.519 109.052Z" fill="#00345B"/>
<path d="M106.624 168.746C106.499 168.746 106.383 168.682 106.316 168.575C106.25 168.467 106.243 168.334 106.299 168.221L137.64 104.786C137.704 104.656 137.841 104.576 137.984 104.585L209.541 108.688C209.661 108.694 209.771 108.761 209.832 108.865C209.893 108.97 209.899 109.098 209.847 109.207L181.595 168.47C181.536 168.596 181.408 168.677 181.269 168.677L106.624 168.746ZM138.182 105.325L107.207 168.019L181.042 167.953L208.962 109.383L138.182 105.325Z" fill="#00345B"/>
<path d="M210 109.415L139.168 105.311L107.827 169.109L181.75 168.679L210 109.415Z" fill="url(#paint35_linear_12296_98702)"/>
<path d="M167.774 136.958C169.313 133.011 168.233 128.896 165.363 127.767C162.493 126.638 158.92 128.921 157.381 132.868C155.843 136.814 156.922 140.929 159.792 142.058C162.662 143.188 166.236 140.904 167.774 136.958Z" fill="url(#paint36_linear_12296_98702)"/>
<path d="M162.568 134.83L162.631 134.626C162.981 133.497 161.957 132.174 160.345 131.67L159.017 135.96C158.667 137.088 159.691 138.411 161.303 138.915C162.915 139.419 164.505 138.913 164.854 137.785C165.203 136.657 164.18 135.334 162.568 134.83Z" fill="url(#paint37_linear_12296_98702)"/>
<path d="M161.935 136.873L161.872 137.077C162.891 137.395 163.674 138.041 164.025 138.758C164.428 138.531 164.725 138.201 164.854 137.785C165.203 136.657 164.18 135.334 162.568 134.83L162.631 134.625C162.981 133.497 161.957 132.174 160.345 131.67L159.649 133.917C161.261 134.421 162.285 135.744 161.935 136.873Z" fill="url(#paint38_linear_12296_98702)"/>
<path d="M166.69 131.861C165.078 131.357 163.488 131.863 163.138 132.991L162.632 134.625L162.569 134.829L161.936 136.872C161.702 137.628 160.911 138.105 159.929 138.185C160.304 138.493 160.772 138.749 161.303 138.915C162.915 139.419 164.506 138.913 164.855 137.785L166.69 131.861Z" fill="url(#paint39_linear_12296_98702)"/>
<path d="M30.0925 171.664C30.9436 172.535 32.2576 172.625 33.0276 171.865C33.7975 171.105 33.7318 169.784 32.8808 168.913C32.0297 168.042 30.7157 167.952 29.9457 168.712C29.1758 169.472 29.2415 170.794 30.0925 171.664Z" fill="#00CEC6"/>
<path d="M32.6917 169.105C33.5431 169.976 33.6085 171.297 32.8376 172.058C32.0679 172.817 30.7533 172.729 29.903 171.858C29.0517 170.987 28.9862 169.666 29.7571 168.906C30.5269 168.145 31.8403 168.235 32.6917 169.105Z" fill="#00F5EB"/>
<path d="M31.6562 170.648C31.8665 170.562 32.1055 170.664 32.1909 170.874C32.2763 171.086 32.1752 171.326 31.966 171.412C31.7557 171.497 31.5167 171.396 31.4313 171.186C31.3459 170.974 31.4459 170.734 31.6562 170.648Z" fill="url(#paint40_linear_12296_98702)"/>
<path d="M30.625 169.549C30.8353 169.463 31.0742 169.565 31.1597 169.775C31.2451 169.986 31.144 170.226 30.9347 170.312C30.7244 170.398 30.4855 170.296 30.4 170.086C30.3146 169.876 30.4146 169.635 30.625 169.549Z" fill="url(#paint41_linear_12296_98702)"/>
<path d="M26.7589 163.523C27.8702 164.014 28.4188 165.217 27.9836 166.21C27.5483 167.203 26.2952 167.609 25.1838 167.117C24.0725 166.626 23.5239 165.423 23.9591 164.43C24.3933 163.438 25.6475 163.032 26.7589 163.523Z" fill="#00CEC6"/>
<path d="M26.6397 163.792C27.7511 164.283 28.2997 165.487 27.8644 166.48C27.4292 167.473 26.176 167.879 25.0647 167.387C23.9533 166.896 23.4047 165.692 23.84 164.699C24.2752 163.708 25.5284 163.301 26.6397 163.792Z" fill="#00F5EB"/>
<path d="M26.2506 165.612C26.4145 165.454 26.674 165.459 26.8316 165.623C26.9891 165.788 26.9835 166.048 26.8208 166.207C26.6569 166.365 26.3974 166.359 26.2398 166.196C26.0823 166.032 26.0868 165.769 26.2506 165.612Z" fill="url(#paint42_linear_12296_98702)"/>
<path d="M24.8859 164.975C25.0498 164.817 25.3093 164.822 25.4668 164.986C25.6244 165.151 25.6188 165.411 25.456 165.57C25.2921 165.728 25.0326 165.722 24.8751 165.559C24.7175 165.394 24.7231 165.133 24.8859 164.975Z" fill="url(#paint43_linear_12296_98702)"/>
<defs>
<linearGradient id="paint0_linear_12296_98702" x1="67.3118" y1="70.3237" x2="82.0668" y2="47.5174" gradientUnits="userSpaceOnUse">
<stop offset="0.0955" stop-color="#F7D5D5"/>
<stop offset="0.2215" stop-color="#F6D0D0"/>
<stop offset="0.3623" stop-color="#F4C3C3"/>
<stop offset="0.4415" stop-color="#F2B8B8"/>
</linearGradient>
<linearGradient id="paint1_linear_12296_98702" x1="82.7367" y1="14.5571" x2="66.1592" y2="32.3761" gradientUnits="userSpaceOnUse">
<stop stop-color="#E45959"/>
<stop offset="1" stop-color="#E45959" stop-opacity="0"/>
</linearGradient>
<linearGradient id="paint2_linear_12296_98702" x1="74.5387" y1="46.654" x2="75.9179" y2="23.197" gradientUnits="userSpaceOnUse">
<stop offset="0.106" stop-color="#F2B8B8"/>
<stop offset="0.424" stop-color="#F6CFCF"/>
<stop offset="0.4958" stop-color="#F7D5D5"/>
</linearGradient>
<linearGradient id="paint3_linear_12296_98702" x1="78.2954" y1="36.0472" x2="77.4344" y2="37.9131" gradientUnits="userSpaceOnUse">
<stop stop-color="#E5928A"/>
<stop offset="0.3518" stop-color="#EAA09B"/>
<stop offset="0.9987" stop-color="#F2B8B8"/>
</linearGradient>
<linearGradient id="paint4_linear_12296_98702" x1="71.7229" y1="46.3875" x2="73.0594" y2="23.6617" gradientUnits="userSpaceOnUse">
<stop offset="0.106" stop-color="#F2B8B8"/>
<stop offset="0.424" stop-color="#F6CFCF"/>
<stop offset="0.4958" stop-color="#F7D5D5"/>
</linearGradient>
<linearGradient id="paint5_linear_12296_98702" x1="73.8788" y1="30.2776" x2="79.3803" y2="32.7847" gradientUnits="userSpaceOnUse">
<stop stop-color="#E5928A"/>
<stop offset="0.3518" stop-color="#EAA09B"/>
<stop offset="0.9987" stop-color="#F2B8B8"/>
</linearGradient>
<linearGradient id="paint6_linear_12296_98702" x1="78.4642" y1="35.8153" x2="78.0622" y2="37.0442" gradientUnits="userSpaceOnUse">
<stop stop-color="#E5928A"/>
<stop offset="0.3518" stop-color="#EAA09B"/>
<stop offset="0.9987" stop-color="#F2B8B8"/>
</linearGradient>
<linearGradient id="paint7_linear_12296_98702" x1="73.2193" y1="39.3716" x2="79.1202" y2="41.2634" gradientUnits="userSpaceOnUse">
<stop stop-color="#E5928A"/>
<stop offset="0.2432" stop-color="#DA8366"/>
<stop offset="0.7591" stop-color="#C5661D"/>
<stop offset="0.9987" stop-color="#BD5A00"/>
</linearGradient>
<linearGradient id="paint8_linear_12296_98702" x1="66.4694" y1="29.8376" x2="69.9041" y2="30.9387" gradientUnits="userSpaceOnUse">
<stop stop-color="#E5928A"/>
<stop offset="0.5823" stop-color="#F0BBB8"/>
<stop offset="0.9987" stop-color="#F7D5D5"/>
</linearGradient>
<linearGradient id="paint9_linear_12296_98702" x1="79.0631" y1="27.1625" x2="78.3581" y2="29.6952" gradientUnits="userSpaceOnUse">
<stop stop-color="#E45959"/>
<stop offset="1" stop-color="#E45959" stop-opacity="0"/>
</linearGradient>
<linearGradient id="paint10_linear_12296_98702" x1="74.9749" y1="29.9592" x2="78.1873" y2="30.4898" gradientUnits="userSpaceOnUse">
<stop offset="1.348e-05" stop-color="#CDE8F7"/>
<stop offset="1" stop-color="white"/>
</linearGradient>
<linearGradient id="paint11_linear_12296_98702" x1="77.1434" y1="34.9425" x2="78.5918" y2="35.6026" gradientUnits="userSpaceOnUse">
<stop offset="0.5042" stop-color="#F7D5D5"/>
<stop offset="0.576" stop-color="#F6CFCF"/>
<stop offset="0.894" stop-color="#F2B8B8"/>
</linearGradient>
<linearGradient id="paint12_linear_12296_98702" x1="77.326" y1="36.4123" x2="78.4517" y2="36.9253" gradientUnits="userSpaceOnUse">
<stop offset="0.001302" stop-color="#F7D5D5"/>
<stop offset="0.4177" stop-color="#F0BBB8"/>
<stop offset="1" stop-color="#E5928A"/>
</linearGradient>
<linearGradient id="paint13_linear_12296_98702" x1="80.2496" y1="31.5066" x2="83.0405" y2="31.9675" gradientUnits="userSpaceOnUse">
<stop offset="1.348e-05" stop-color="#CDE8F7"/>
<stop offset="1" stop-color="white"/>
</linearGradient>
<linearGradient id="paint14_linear_12296_98702" x1="83.3724" y1="28.9282" x2="82.7242" y2="30.9421" gradientUnits="userSpaceOnUse">
<stop stop-color="#E45959"/>
<stop offset="1" stop-color="#E45959" stop-opacity="0"/>
</linearGradient>
<linearGradient id="paint15_linear_12296_98702" x1="77.1448" y1="42.2838" x2="77.0308" y2="44.1521" gradientUnits="userSpaceOnUse">
<stop stop-color="#E5928A"/>
<stop offset="0.3518" stop-color="#EAA09B"/>
<stop offset="0.9987" stop-color="#F2B8B8"/>
</linearGradient>
<linearGradient id="paint16_linear_12296_98702" x1="73.5504" y1="39.1994" x2="79.0391" y2="41.7007" gradientUnits="userSpaceOnUse">
<stop offset="0.001302" stop-color="#F2B8B8"/>
<stop offset="0.6482" stop-color="#EAA09B"/>
<stop offset="1" stop-color="#E5928A"/>
</linearGradient>
<linearGradient id="paint17_linear_12296_98702" x1="77.4022" y1="39.1308" x2="79.6054" y2="40.1348" gradientUnits="userSpaceOnUse">
<stop stop-color="#E5928A"/>
<stop offset="0.3518" stop-color="#EAA09B"/>
<stop offset="0.9987" stop-color="#F2B8B8"/>
</linearGradient>
<linearGradient id="paint18_linear_12296_98702" x1="109.712" y1="34.2289" x2="91.5943" y2="37.9654" gradientUnits="userSpaceOnUse">
<stop offset="0.1951" stop-color="#003258"/>
<stop offset="0.7989" stop-color="#015EA5"/>
</linearGradient>
<linearGradient id="paint19_linear_12296_98702" x1="78.5451" y1="24.7863" x2="88.9862" y2="25.6298" gradientUnits="userSpaceOnUse">
<stop stop-color="#F2B8B8"/>
<stop offset="0.9488" stop-color="#F7D3D3"/>
<stop offset="0.9987" stop-color="#F7D5D5"/>
</linearGradient>
<linearGradient id="paint20_linear_12296_98702" x1="86.9108" y1="23.8169" x2="87.8586" y2="35.2591" gradientUnits="userSpaceOnUse">
<stop offset="0.001302" stop-color="#F7D5D5"/>
<stop offset="0.074" stop-color="#F6D0D0"/>
<stop offset="0.1553" stop-color="#F4C3C3"/>
<stop offset="0.201" stop-color="#F2B8B8"/>
</linearGradient>
<linearGradient id="paint21_linear_12296_98702" x1="101.601" y1="40.214" x2="104.331" y2="24.6016" gradientUnits="userSpaceOnUse">
<stop stop-color="#E0F2FF"/>
<stop offset="0.1558" stop-color="#E0F2FF"/>
<stop offset="1" stop-color="#E0F2FF"/>
</linearGradient>
<linearGradient id="paint22_linear_12296_98702" x1="120.523" y1="46.8247" x2="118.92" y2="104.157" gradientUnits="userSpaceOnUse">
<stop offset="0.1327" stop-color="#015EA5"/>
<stop offset="0.7066" stop-color="#00487E"/>
</linearGradient>
<linearGradient id="paint23_linear_12296_98702" x1="71.0294" y1="172.523" x2="119.703" y2="65.3894" gradientUnits="userSpaceOnUse">
<stop stop-color="#E0F2FF"/>
<stop offset="0.1558" stop-color="#E0F2FF"/>
<stop offset="1" stop-color="#E0F2FF"/>
</linearGradient>
<linearGradient id="paint24_linear_12296_98702" x1="80.2492" y1="161.601" x2="132.393" y2="76.1931" gradientUnits="userSpaceOnUse">
<stop stop-color="#8F68AE"/>
<stop offset="0.1713" stop-color="#A683C2"/>
<stop offset="0.4097" stop-color="#B799D0"/>
<stop offset="0.6875" stop-color="#C5ABDB"/>
<stop offset="0.875" stop-color="#D1BCE3"/>
<stop offset="0.9929" stop-color="#D1BCE3"/>
</linearGradient>
<linearGradient id="paint25_linear_12296_98702" x1="75.7276" y1="56.3849" x2="59.9245" y2="49.2776" gradientUnits="userSpaceOnUse">
<stop stop-color="white"/>
<stop offset="1" stop-color="#E3F2FB"/>
</linearGradient>
<linearGradient id="paint26_linear_12296_98702" x1="81.3344" y1="55.4994" x2="76.2189" y2="53.1987" gradientUnits="userSpaceOnUse">
<stop offset="1.348e-05" stop-color="#E3F2FB"/>
<stop offset="1" stop-color="white"/>
</linearGradient>
<radialGradient id="paint27_radial_12296_98702" cx="0" cy="0" r="1" gradientUnits="userSpaceOnUse" gradientTransform="translate(34.6048 104.01) scale(77.3216 91.569)">
<stop offset="0.1951" stop-color="#003D6C"/>
<stop offset="0.3354" stop-color="#004E89"/>
<stop offset="0.4861" stop-color="#005393"/>
<stop offset="0.6396" stop-color="#005596"/>
<stop offset="0.7989" stop-color="#0066B5"/>
</radialGradient>
<linearGradient id="paint28_linear_12296_98702" x1="42.4212" y1="146.431" x2="47.0854" y2="170.392" gradientUnits="userSpaceOnUse">
<stop offset="0.2934" stop-color="#003359"/>
<stop offset="0.8673" stop-color="#015EA5"/>
</linearGradient>
<linearGradient id="paint29_linear_12296_98702" x1="72.9901" y1="50.4036" x2="68.6954" y2="163.994" gradientUnits="userSpaceOnUse">
<stop offset="0.3052" stop-color="#0066B4"/>
<stop offset="0.449" stop-color="#0060AA"/>
<stop offset="0.5919" stop-color="#00579A"/>
<stop offset="0.7345" stop-color="#004F8C"/>
<stop offset="0.8761" stop-color="#003A67"/>
<stop offset="0.9568" stop-color="#00335B"/>
</linearGradient>
<linearGradient id="paint30_linear_12296_98702" x1="85.3984" y1="187.104" x2="123.779" y2="79.0401" gradientUnits="userSpaceOnUse">
<stop offset="0.00640264" stop-color="#00345B"/>
<stop offset="0.1907" stop-color="#003863"/>
<stop offset="0.4432" stop-color="#004275"/>
<stop offset="0.7339" stop-color="#005392"/>
<stop offset="1" stop-color="#0066B4"/>
</linearGradient>
<linearGradient id="paint31_linear_12296_98702" x1="80.4196" y1="163.577" x2="110.18" y2="72.0208" gradientUnits="userSpaceOnUse">
<stop offset="0.0432" stop-color="#003258"/>
<stop offset="0.1239" stop-color="#003F70"/>
<stop offset="0.2655" stop-color="#004F8B"/>
<stop offset="0.4081" stop-color="#015EA5"/>
<stop offset="0.551" stop-color="#006CBF"/>
<stop offset="0.6948" stop-color="#006EC2"/>
</linearGradient>
<linearGradient id="paint32_linear_12296_98702" x1="47.3919" y1="162.213" x2="50.7912" y2="187.656" gradientUnits="userSpaceOnUse">
<stop offset="0.001302" stop-color="#F7D5D5"/>
<stop offset="0.074" stop-color="#F6D0D0"/>
<stop offset="0.1553" stop-color="#F4C3C3"/>
<stop offset="0.201" stop-color="#F2B8B8"/>
</linearGradient>
<linearGradient id="paint33_linear_12296_98702" x1="36.796" y1="177.885" x2="39.5809" y2="157.689" gradientUnits="userSpaceOnUse">
<stop stop-color="#E0F2FF"/>
<stop offset="0.1558" stop-color="#E0F2FF"/>
<stop offset="1" stop-color="#E0F2FF"/>
</linearGradient>
<linearGradient id="paint34_linear_12296_98702" x1="35.9743" y1="175.278" x2="6.51261" y2="114.657" gradientUnits="userSpaceOnUse">
<stop offset="0.2934" stop-color="#00487E"/>
<stop offset="0.8673" stop-color="#015EA5"/>
</linearGradient>
<linearGradient id="paint35_linear_12296_98702" x1="210.146" y1="108.696" x2="62.2854" y2="196.965" gradientUnits="userSpaceOnUse">
<stop offset="0.001302" stop-color="#015EA5"/>
<stop offset="0.0471" stop-color="#005495"/>
<stop offset="0.2502" stop-color="#00467B"/>
<stop offset="0.4666" stop-color="#003D6C"/>
<stop offset="0.7036" stop-color="#00345C"/>
<stop offset="1" stop-color="#002A49"/>
</linearGradient>
<linearGradient id="paint36_linear_12296_98702" x1="164.347" y1="129.799" x2="168.913" y2="115.17" gradientUnits="userSpaceOnUse">
<stop stop-color="#00355E"/>
<stop offset="0.9987" stop-color="#005DA5"/>
</linearGradient>
<linearGradient id="paint37_linear_12296_98702" x1="159.364" y1="134.836" x2="165.207" y2="136.646" gradientUnits="userSpaceOnUse">
<stop stop-color="#1BB2E2"/>
<stop offset="0.00334227" stop-color="#1BB2E2"/>
<stop offset="0.313" stop-color="#3588C0"/>
<stop offset="0.5932" stop-color="#4769A8"/>
<stop offset="0.8316" stop-color="#525799"/>
<stop offset="1" stop-color="#565094"/>
</linearGradient>
<linearGradient id="paint38_linear_12296_98702" x1="163.791" y1="130.879" x2="161.881" y2="136.99" gradientUnits="userSpaceOnUse">
<stop stop-color="#1BB2E2"/>
<stop offset="0.00334227" stop-color="#1BB2E2"/>
<stop offset="0.313" stop-color="#3588C0"/>
<stop offset="0.5932" stop-color="#4769A8"/>
<stop offset="0.8316" stop-color="#525799"/>
<stop offset="1" stop-color="#565094"/>
</linearGradient>
<linearGradient id="paint39_linear_12296_98702" x1="165.229" y1="128.824" x2="162.34" y2="138.066" gradientUnits="userSpaceOnUse">
<stop stop-color="#565094"/>
<stop offset="1" stop-color="#1BB2E2"/>
</linearGradient>
<linearGradient id="paint40_linear_12296_98702" x1="32.4962" y1="169.769" x2="31.1374" y2="172.247" gradientUnits="userSpaceOnUse">
<stop offset="0.2011" stop-color="#0D7499"/>
<stop offset="0.3061" stop-color="#096388"/>
<stop offset="0.4932" stop-color="#044A70"/>
<stop offset="0.6647" stop-color="#013B61"/>
<stop offset="0.8049" stop-color="#00365C"/>
</linearGradient>
<linearGradient id="paint41_linear_12296_98702" x1="31.4649" y1="168.67" x2="30.106" y2="171.148" gradientUnits="userSpaceOnUse">
<stop offset="0.2011" stop-color="#0D7499"/>
<stop offset="0.3061" stop-color="#096388"/>
<stop offset="0.4932" stop-color="#044A70"/>
<stop offset="0.6647" stop-color="#013B61"/>
<stop offset="0.8049" stop-color="#00365C"/>
</linearGradient>
<linearGradient id="paint42_linear_12296_98702" x1="26.7062" y1="164.483" x2="26.3665" y2="167.291" gradientUnits="userSpaceOnUse">
<stop offset="0.2011" stop-color="#0D7499"/>
<stop offset="0.3061" stop-color="#096388"/>
<stop offset="0.4932" stop-color="#044A70"/>
<stop offset="0.6647" stop-color="#013B61"/>
<stop offset="0.8049" stop-color="#00365C"/>
</linearGradient>
<linearGradient id="paint43_linear_12296_98702" x1="25.3417" y1="163.846" x2="25.002" y2="166.654" gradientUnits="userSpaceOnUse">
<stop offset="0.2011" stop-color="#0D7499"/>
<stop offset="0.3061" stop-color="#096388"/>
<stop offset="0.4932" stop-color="#044A70"/>
<stop offset="0.6647" stop-color="#013B61"/>
<stop offset="0.8049" stop-color="#00365C"/>
</linearGradient>
</defs>
</svg>
