<svg width="303" height="286" viewBox="0 0 303 286" fill="none" xmlns="http://www.w3.org/2000/svg">
<path d="M206.451 79.9917H95.4399V143.938H206.451V79.9917Z" fill="white"/>
<path d="M206.677 144.164H95.2146V79.7659H206.677V144.164ZM95.6658 143.712H206.226V80.217H95.6658V143.712Z" fill="#D2DBE2"/>
<path d="M206.451 79.9917H95.4399V89.6638H206.451V79.9917Z" fill="white"/>
<path d="M206.677 89.8892H95.2146V79.7659H206.677V89.8892ZM95.6658 89.438H206.226V80.217H95.6658V89.438Z" fill="#D2DBE2"/>
<path d="M100.291 86.3434C101.335 86.3434 102.182 85.4966 102.182 84.4521C102.182 83.4076 101.335 82.5608 100.291 82.5608C99.2464 82.5608 98.3997 83.4076 98.3997 84.4521C98.3997 85.4966 99.2464 86.3434 100.291 86.3434Z" fill="#FF6259"/>
<path d="M106.135 86.3434C107.179 86.3434 108.026 85.4966 108.026 84.4521C108.026 83.4076 107.179 82.5608 106.135 82.5608C105.09 82.5608 104.243 83.4076 104.243 84.4521C104.243 85.4966 105.09 86.3434 106.135 86.3434Z" fill="#FFBE2F"/>
<path d="M111.978 86.3434C113.023 86.3434 113.869 85.4966 113.869 84.4521C113.869 83.4076 113.023 82.5608 111.978 82.5608C110.933 82.5608 110.087 83.4076 110.087 84.4521C110.087 85.4966 110.933 86.3434 111.978 86.3434Z" fill="#29CD41"/>
<path d="M121.967 97.8867H100.594V102.41H121.967V97.8867Z" fill="#EDF1F4"/>
<path d="M177.422 97.8867H156.048V102.41H177.422V97.8867Z" fill="#EDF1F4"/>
<path d="M154.934 97.8867H123.08V102.41H154.934V97.8867Z" fill="#EDF1F4"/>
<path d="M134.81 116.311H100.594V120.834H134.81V116.311Z" fill="#EDF1F4"/>
<path d="M157.294 116.311H135.92V120.834H157.294V116.311Z" fill="#EDF1F4"/>
<path d="M128.232 110.169H100.594V114.693H128.232V110.169Z" fill="#EDF1F4"/>
<path d="M161.3 110.169H129.446V114.693H161.3V110.169Z" fill="#EDF1F4"/>
<path d="M130.195 104.028H100.594V108.551H130.195V104.028Z" fill="#EDF1F4"/>
<path d="M166.734 104.028H153.698V108.551H166.734V104.028Z" fill="#EDF1F4"/>
<path d="M152.709 104.028H131.222V108.551H152.709V104.028Z" fill="#EDF1F4"/>
<path d="M130.195 122.453H100.594V126.976H130.195V122.453Z" fill="#EDF1F4"/>
<path d="M166.734 122.453H153.698V126.976H166.734V122.453Z" fill="#EDF1F4"/>
<path d="M152.709 122.453H131.222V126.976H152.709V122.453Z" fill="#EDF1F4"/>
<path d="M201.57 97.8867H182.091V122.453H201.57V97.8867Z" fill="#EDF1F4"/>
<path d="M155.159 263.68C155.159 263.68 85.3479 235.9 79.029 260.354C70.6177 292.905 153.632 283.161 153.632 283.161L155.159 263.68Z" fill="url(#paint0_linear_11100_4898)"/>
<path d="M81.6777 255.47C86.6025 252.869 93.0881 250.641 97.1673 253.927C104.459 259.801 121.307 270.131 137.29 270.941C144.753 271.32 150.542 271.168 154.593 270.899L155.16 263.68C155.159 263.68 96.0161 240.146 81.6777 255.47Z" fill="url(#paint1_linear_11100_4898)"/>
<path d="M153.223 259.255C153.223 259.255 227.399 236.73 226.8 266.389C226.201 296.047 153.632 283.161 153.632 283.161C146.71 275.431 149.501 267.359 153.223 259.255Z" fill="url(#paint2_linear_11100_4898)"/>
<path d="M224.346 258.222C211.566 241.539 153.222 259.255 153.222 259.255C151.307 263.424 149.639 267.585 149.413 271.695C152.313 272.467 158.061 272.747 169.275 270.131C189.525 265.406 215.681 253.079 224.346 258.222Z" fill="url(#paint3_linear_11100_4898)"/>
<path d="M149.401 273.547L149.097 272.84C149.097 272.84 146.451 271.334 140.706 268.334C137.698 266.764 131.407 267.399 130.449 268.811C131.711 273.175 133.228 274.293 136.527 275.349C139.181 276.198 145.685 276.58 145.685 276.58L149.401 273.547Z" fill="#00365C"/>
<path d="M149.401 273.546C149.401 273.546 146.851 272.11 141.107 269.11C138.099 267.54 132.128 268.254 131.169 269.667C130.525 271.688 132.062 274.83 136.927 276.125C138.548 276.556 141.939 277.09 144.378 277.445C145.989 277.68 151.467 280.235 151.467 280.235C151.467 280.235 149.78 277.13 149.401 273.546Z" fill="url(#paint4_linear_11100_4898)"/>
<path d="M140.487 277.505C140.405 277.505 140.328 277.459 140.29 277.382C140.248 277.296 140.267 277.192 140.337 277.126C140.602 276.878 140.845 276.635 141.046 276.362C140.357 276.708 139.666 276.919 138.965 276.996C138.868 277.007 138.774 276.951 138.738 276.86C138.701 276.769 138.73 276.665 138.807 276.605C139.07 276.401 139.276 276.108 139.425 275.769C138.413 276.178 137.311 276.35 136.404 276.168C136.314 276.15 136.244 276.078 136.23 275.987C136.216 275.897 136.26 275.807 136.339 275.762C136.6 275.616 136.823 275.474 137.011 275.335C136.544 275.484 136.027 275.598 135.424 275.683C135.328 275.696 135.234 275.645 135.194 275.556C135.154 275.467 135.177 275.363 135.251 275.299L137.984 272.951C138.044 272.9 138.126 272.884 138.201 272.911C138.275 272.938 138.329 273.002 138.343 273.08C138.419 273.517 138.421 273.899 138.339 274.245C138.786 273.97 139.229 273.636 139.728 273.229C139.788 273.181 139.868 273.166 139.94 273.192C140.012 273.219 140.065 273.279 140.081 273.354C140.183 273.838 140.197 274.405 140.109 274.956C140.714 274.6 141.234 274.151 141.576 273.648C141.627 273.573 141.718 273.537 141.807 273.557C141.895 273.578 141.961 273.65 141.974 273.739C142.06 274.341 142.055 274.84 141.982 275.266C142.493 274.89 143.006 274.431 143.525 273.888C143.586 273.825 143.678 273.804 143.76 273.834C143.842 273.865 143.898 273.942 143.902 274.029C143.942 274.857 143.957 275.43 143.813 275.964C144.371 275.591 144.674 275.182 144.895 274.772C144.953 274.665 145.086 274.626 145.192 274.684C145.299 274.741 145.339 274.874 145.28 274.981C144.872 275.737 144.26 276.259 143.533 276.633C143.404 276.861 143.235 277.096 143.018 277.357C142.94 277.45 142.802 277.462 142.709 277.384C142.616 277.306 142.604 277.168 142.682 277.075C142.715 277.036 142.746 276.997 142.777 276.959C142.071 277.214 141.298 277.375 140.522 277.501C140.511 277.504 140.499 277.505 140.487 277.505ZM141.793 275.931C141.632 276.323 141.403 276.647 141.135 276.945C142.028 276.762 142.704 276.541 143.224 276.295C143.475 275.8 143.511 275.326 143.487 274.551C142.92 275.105 142.357 275.564 141.793 275.931ZM139.984 275.514C139.882 275.855 139.737 276.175 139.544 276.451C140.175 276.302 140.802 276.033 141.431 275.641C141.559 275.28 141.621 274.856 141.593 274.328C141.168 274.791 140.606 275.197 139.984 275.514ZM137.109 275.805C137.912 275.821 138.807 275.601 139.61 275.221C139.724 274.76 139.756 274.261 139.71 273.807C139.135 274.261 138.613 274.622 138.051 274.909C137.84 275.226 137.53 275.518 137.109 275.805ZM137.961 273.55L136.141 275.113C136.751 274.983 137.263 274.807 137.741 274.576C137.931 274.252 137.984 273.92 137.961 273.55Z" fill="#00345B"/>
<path d="M138.282 282.144C137.891 282.144 137.568 281.991 137.323 281.689C137.074 281.382 136.995 281.022 137.097 280.646C137.676 278.506 144.343 275.975 144.627 275.869C144.725 275.832 144.836 275.863 144.899 275.946C144.962 276.03 144.963 276.145 144.901 276.23C144.727 276.469 140.609 282.084 138.321 282.144C138.308 282.143 138.295 282.144 138.282 282.144ZM144.013 276.62C141.817 277.522 137.931 279.375 137.554 280.77C137.491 281.001 137.534 281.198 137.69 281.389C137.849 281.585 138.052 281.677 138.309 281.669C139.809 281.63 142.583 278.457 144.013 276.62Z" fill="#00345B"/>
<path d="M142.022 284.434C141.582 284.434 141.365 284.217 141.26 284.032C141.109 283.767 140.651 282.96 142.812 278.829C143.856 276.835 145.022 275.005 145.033 274.987C145.091 274.897 145.203 274.856 145.305 274.889C145.408 274.922 145.475 275.02 145.469 275.128C145.468 275.151 145.337 277.421 144.88 279.672C144.245 282.794 143.298 284.397 142.064 284.434C142.05 284.434 142.036 284.434 142.022 284.434ZM144.919 276.066C143.214 278.864 141.143 282.867 141.671 283.798C141.716 283.878 141.8 283.966 142.049 283.96C143.005 283.93 143.845 282.376 144.414 279.582C144.684 278.26 144.839 276.929 144.919 276.066Z" fill="#00345B"/>
<path d="M273.686 170.985C259.933 165.415 259.933 175.239 259.933 175.239C259.933 175.239 266.126 201.294 271.332 204.811C276.54 208.328 284.903 199.488 287.942 192.658C288.58 191.223 291.742 178.298 273.686 170.985Z" fill="url(#paint5_linear_11100_4898)"/>
<path d="M263.854 169.104C263.854 169.104 264.871 165.706 272.09 168.393C278.56 170.801 278.842 172.41 278.417 174.154C277.993 175.897 274.667 178.664 269.759 176.632C264.851 174.602 263.854 169.104 263.854 169.104Z" fill="url(#paint6_linear_11100_4898)"/>
<path d="M260.631 183.763C261.402 180.434 264.868 163.597 264.547 159.808C264.219 155.935 266.023 151.729 269.499 148.04C270.776 146.684 274.428 144.56 276.03 145.93C278.546 143.068 287.561 152.969 284.6 155.446C284.6 155.446 295.14 147.516 297.334 148.608C299.467 149.67 287.368 157.786 287.368 157.786C287.368 157.786 299.538 149.801 301.816 152.182C304.56 155.051 290.136 160.757 290.136 160.757C290.136 160.757 296.38 160.016 298.117 160.217C302.199 160.689 300.939 164.606 288.853 164.471C286.803 164.448 278.671 167.694 277.375 167.644C275.045 169.064 275.687 173.315 272.706 191.622C272.139 195.107 259.969 186.623 260.631 183.763ZM272.571 154.862C273.538 157.01 275.801 155.663 279.604 154.612C282.632 153.776 277.917 149.795 276.278 147.383C275.007 148.647 270.259 149.726 272.571 154.862Z" fill="url(#paint7_linear_11100_4898)"/>
<path d="M255.548 186.94L263.854 166.699C263.854 166.699 262.584 171.302 270.163 174.061C278.179 176.98 278.419 174.229 278.419 174.229L271.199 200.828L255.548 186.94Z" fill="url(#paint8_linear_11100_4898)"/>
<path d="M271.2 200.828L255.548 186.94L261.3 172.922C263.727 182.279 272.63 184.72 275.425 185.262L271.2 200.828Z" fill="url(#paint9_linear_11100_4898)"/>
<path d="M260.902 171.909C259.868 174.677 245.06 217.663 232.949 213.352C223.85 210.113 219.367 159.175 204.997 147.383C195.072 139.239 189.807 198.793 190.284 206.324C192.192 236.512 204.322 248.627 218.816 253.494C268.817 270.284 287.942 192.656 287.942 192.656C284.999 200.573 257.559 188.202 260.902 171.909Z" fill="url(#paint10_linear_11100_4898)"/>
<path d="M283.444 202.383C284.435 201.453 284.568 199.986 283.741 199.105C282.915 198.225 281.442 198.265 280.451 199.195C279.461 200.124 279.328 201.592 280.154 202.472C280.981 203.353 282.454 203.313 283.444 202.383Z" fill="#00CEC6"/>
<path d="M283.221 202.144C284.211 201.214 284.344 199.747 283.518 198.866C282.692 197.986 281.219 198.026 280.229 198.955C279.238 199.885 279.105 201.352 279.932 202.233C280.758 203.114 282.231 203.074 283.221 202.144Z" fill="#00F5EB"/>
<path d="M282.136 200.38C282.367 200.485 282.64 200.384 282.745 200.153C282.849 199.922 282.748 199.649 282.517 199.544C282.286 199.439 282.013 199.541 281.908 199.772C281.802 200.003 281.905 200.275 282.136 200.38Z" fill="url(#paint11_linear_11100_4898)"/>
<path d="M280.933 201.555C281.164 201.66 281.436 201.559 281.542 201.327C281.646 201.096 281.545 200.824 281.314 200.719C281.083 200.614 280.811 200.715 280.705 200.947C280.6 201.178 280.702 201.45 280.933 201.555Z" fill="url(#paint12_linear_11100_4898)"/>
<path d="M279.258 209.388C280.466 209.378 281.434 208.267 281.422 206.909C281.41 205.55 280.421 204.458 279.214 204.469C278.006 204.48 277.037 205.59 277.049 206.948C277.062 208.307 278.05 209.399 279.258 209.388Z" fill="#00CEC6"/>
<path d="M277.367 206.941C277.378 208.299 278.367 209.391 279.575 209.38C280.782 209.369 281.751 208.259 281.739 206.901C281.728 205.542 280.739 204.45 279.531 204.461C278.323 204.472 277.355 205.583 277.367 206.941Z" fill="#00F5EB"/>
<path d="M279.399 207.339C279.165 207.437 279.055 207.707 279.154 207.941C279.253 208.174 279.523 208.284 279.756 208.185C279.99 208.086 280.1 207.817 280.001 207.583C279.903 207.35 279.633 207.24 279.399 207.339Z" fill="url(#paint13_linear_11100_4898)"/>
<path d="M279.35 205.657C279.116 205.755 279.006 206.025 279.105 206.259C279.203 206.493 279.473 206.603 279.707 206.504C279.94 206.405 280.051 206.135 279.951 205.902C279.853 205.668 279.583 205.559 279.35 205.657Z" fill="url(#paint14_linear_11100_4898)"/>
<path d="M118.232 248.361C118.232 248.361 130.242 194.162 114.518 144.617C132.729 130.739 186.886 134.777 183.723 150.086C171.03 211.512 184.51 251.064 184.51 251.064C184.51 251.064 166.137 262.569 150.489 262.569C134.841 262.569 118.232 248.361 118.232 248.361Z" fill="url(#paint15_linear_11100_4898)"/>
<path d="M158.19 125.609L143.131 125.301C143.131 125.301 143.904 137.306 142.952 137.97C140.713 139.53 150.771 150.398 150.771 150.398C150.771 150.398 160.311 140.52 158.636 137.943C158.02 136.998 158.19 125.609 158.19 125.609Z" fill="url(#paint16_linear_11100_4898)"/>
<path opacity="0.3" d="M158.19 125.609L143.194 125.302L143.134 125.343C143.16 125.746 143.362 129.041 143.416 132.167C144.872 135.489 147.301 139.042 151.059 139.191C154.342 139.322 156.666 136.459 158.218 133.336C158.127 129.822 158.19 125.609 158.19 125.609Z" fill="url(#paint17_linear_11100_4898)"/>
<path d="M159.093 120.032C161.177 118.74 163.251 107.957 158.762 113.912C158.662 109.695 156.965 107.449 153.972 106.783C150.391 107.651 149.648 106.451 147.653 106.783C145.657 107.116 143.069 112.296 142.641 113.912C138.152 107.956 140.226 118.74 142.31 120.032C142.666 122.988 141.481 125.871 142.518 128.239C143.663 130.856 147.344 134.393 150.702 134.393C154.061 134.393 157.741 130.856 158.887 128.239C159.922 125.871 158.736 122.988 159.093 120.032Z" fill="url(#paint18_linear_11100_4898)"/>
<path d="M157.081 108.509L160.956 103.446C158.143 106.486 154.368 105.824 154.368 105.824C157.869 104.011 159.4 100.113 159.4 100.113C157.106 103.861 151.98 104.184 151.012 104.212C151.511 104.169 153.214 103.786 156.656 100.828C158.423 99.3076 159.384 97.9128 159.906 96.8059C157.468 98.1167 155.072 100.244 151.777 100.59C134.248 104.65 142.997 117.426 142.733 113.102C146.818 105.291 147.468 106.625 151.311 107.116C153.449 107.279 153.983 105.824 157.081 108.509Z" fill="url(#paint19_linear_11100_4898)"/>
<path d="M147.641 122.79C147.524 122.408 148.163 122.342 148.732 122.569C149.238 122.77 149.857 122.961 150.397 122.961C150.905 122.961 151.522 122.757 152.024 122.548C152.553 122.327 153.078 122.358 152.864 122.712C152.65 123.065 152.548 122.557 151.951 122.944C151.51 123.23 151.118 123.48 150.551 123.479C149.722 123.479 148.987 123.155 148.584 122.912C147.913 122.509 147.758 123.171 147.641 122.79Z" fill="url(#paint20_linear_11100_4898)"/>
<path d="M146.802 127.268C146.802 127.268 147.999 127.52 150.71 127.445C152.035 127.409 154.858 127.042 154.858 127.042C154.858 127.042 154.104 127.868 150.836 127.993C147.412 128.124 146.802 127.268 146.802 127.268Z" fill="url(#paint21_linear_11100_4898)"/>
<path d="M149.959 113.758C149.959 113.758 148.788 121.847 149.114 122.284C150.173 123.709 151.735 122.695 151.729 122.291L150.91 113.874L149.959 113.758Z" fill="url(#paint22_linear_11100_4898)"/>
<path d="M155.752 115.932C155.752 115.932 152.727 116.987 151.95 115.516C151.922 117.268 154.214 117.341 155.752 115.932Z" fill="black"/>
<path d="M155.752 115.933C155.752 115.933 154.203 113.896 152.913 114.489C151.623 115.08 151.95 115.517 151.95 115.517C151.95 115.517 152.119 116.693 153.057 116.671C153.995 116.648 155.752 115.933 155.752 115.933Z" fill="url(#paint23_linear_11100_4898)"/>
<path d="M144.872 115.942C144.872 115.942 147.85 117.105 148.688 115.663C148.644 117.414 146.35 117.405 144.872 115.942Z" fill="black"/>
<path d="M144.872 115.942C144.872 115.942 146.505 113.963 147.769 114.602C149.034 115.24 148.689 115.664 148.689 115.664C148.689 115.664 148.471 116.834 147.535 116.777C146.598 116.72 144.872 115.942 144.872 115.942Z" fill="url(#paint24_linear_11100_4898)"/>
<path d="M148.607 113.049C148.819 113.086 149.324 112.171 149.016 112.043C145.789 110.702 142.807 113.309 142.807 113.309C142.807 113.309 143.211 113.935 143.687 113.709C145.402 112.897 146.674 112.709 148.607 113.049Z" fill="url(#paint25_linear_11100_4898)"/>
<path d="M151.831 113.049C151.619 113.086 151.113 112.171 151.421 112.043C154.649 110.702 157.631 113.309 157.631 113.309C157.631 113.309 157.227 113.935 156.75 113.709C155.036 112.897 153.764 112.709 151.831 113.049Z" fill="url(#paint26_linear_11100_4898)"/>
<path opacity="0.3" d="M147.641 122.79C147.524 122.408 148.163 122.342 148.732 122.569C149.238 122.77 149.857 122.961 150.397 122.961C150.905 122.961 151.522 122.758 152.024 122.549C152.553 122.328 152.849 122.306 152.864 122.712C152.913 123.982 151.326 125.222 150.551 125.222C149.057 125.222 147.758 123.171 147.641 122.79Z" fill="url(#paint27_linear_11100_4898)"/>
<path d="M158.662 115.576C158.662 115.576 160.624 112.568 160.845 113.875C161.193 115.936 158.766 118.479 158.766 118.479C158.766 118.479 159.474 116.643 158.957 116.721C158.439 116.8 158.662 115.576 158.662 115.576Z" fill="url(#paint28_linear_11100_4898)"/>
<path d="M142.578 115.576C142.578 115.576 140.616 112.568 140.395 113.875C140.046 115.936 142.474 118.479 142.474 118.479C142.474 118.479 141.766 116.643 142.283 116.721C142.8 116.8 142.578 115.576 142.578 115.576Z" fill="url(#paint29_linear_11100_4898)"/>
<path opacity="0.3" d="M143.009 115.626C143.009 115.626 147.374 112.19 148.727 113.229C150.079 114.269 149.114 120.22 149.114 120.22C149.114 120.22 147.765 117.967 145.844 117.777C142.419 117.439 143.009 115.626 143.009 115.626Z" fill="url(#paint30_linear_11100_4898)"/>
<path opacity="0.3" d="M157.626 115.626C157.626 115.626 153.26 112.19 151.907 113.229C150.555 114.269 151.519 120.22 151.519 120.22C151.519 120.22 152.87 117.967 154.791 117.777C158.214 117.439 157.626 115.626 157.626 115.626Z" fill="url(#paint31_linear_11100_4898)"/>
<path d="M148.181 128.977C148.181 128.977 149.312 129.375 150.767 129.391C152.138 129.406 153.852 128.977 153.852 128.977C153.852 128.977 152.638 130.364 150.909 130.38C149.466 130.393 148.181 128.977 148.181 128.977Z" fill="url(#paint32_linear_11100_4898)"/>
<path opacity="0.5" d="M150.252 123.419C150.252 123.419 149.633 126.949 149.999 127.102C150.364 127.256 150.929 127.446 151.402 126.939C151.75 126.567 151.278 124.872 150.712 123.451C150.351 123.636 150.252 123.419 150.252 123.419Z" fill="url(#paint33_linear_11100_4898)"/>
<path d="M150.766 180.455V179.432C150.766 173.776 144.154 169.193 136 169.193V190.695C136 196.35 142.611 200.934 150.766 200.934" stroke="#00BAEB" stroke-width="1.5" stroke-miterlimit="10"/>
<path d="M150.766 180.455V179.432C150.766 173.776 144.154 169.193 136 169.193V180.455C144.154 180.455 150.766 185.039 150.766 190.695V191.718" stroke="#00BAEB" stroke-width="1.5" stroke-miterlimit="10"/>
<path d="M165.53 161C157.376 161 150.764 165.584 150.764 171.239V179.43V180.453V190.693C150.764 194.482 147.794 197.789 143.382 199.559C145.554 200.43 148.075 200.932 150.764 200.932C158.919 200.932 165.53 196.348 165.53 190.693V161Z" stroke="#00BAEB" stroke-width="1.5" stroke-miterlimit="10"/>
<path d="M28.4779 171.59C42.2313 166.021 42.2313 175.844 42.2313 175.844C42.2313 175.844 36.0385 201.899 30.8319 205.416C25.6244 208.933 17.2613 200.093 14.2225 193.263C13.5843 191.829 10.421 178.903 28.4779 171.59Z" fill="url(#paint34_linear_11100_4898)"/>
<path d="M38.3096 169.709C38.3096 169.709 37.293 166.311 30.0743 168.997C23.6039 171.406 23.322 173.015 23.747 174.759C24.1711 176.502 27.4968 179.269 32.4047 177.237C37.3133 175.206 38.3096 169.709 38.3096 169.709Z" fill="url(#paint35_linear_11100_4898)"/>
<path d="M41.533 184.369C40.7618 181.04 37.2964 164.203 37.6172 160.414C37.9448 156.54 36.141 152.334 32.6654 148.645C31.388 147.289 27.7355 145.165 26.134 146.536C23.6183 143.673 14.6034 153.575 17.5644 156.052C17.5644 156.052 7.02414 148.121 4.8301 149.213C2.697 150.276 14.7964 158.392 14.7964 158.392C14.7964 158.392 2.62505 150.406 0.3472 152.787C-2.39705 155.656 12.0276 161.362 12.0276 161.362C12.0276 161.362 5.78322 160.62 4.04627 160.822C-0.0354039 161.294 1.22414 165.211 13.31 165.075C15.3602 165.052 23.4922 168.299 24.7881 168.249C27.1185 169.668 26.476 173.92 29.4572 192.227C30.0252 195.712 42.1949 187.228 41.533 184.369ZM29.5927 155.468C28.626 157.615 26.3626 156.269 22.5602 155.217C19.5316 154.381 24.2472 150.401 25.886 147.988C27.1565 149.252 31.9052 150.331 29.5927 155.468Z" fill="url(#paint36_linear_11100_4898)"/>
<path d="M46.6163 187.545L38.3099 167.304C38.3099 167.304 39.5805 171.907 32.0012 174.666C23.9852 177.585 23.7456 174.834 23.7456 174.834L30.9651 201.433L46.6163 187.545Z" fill="url(#paint37_linear_11100_4898)"/>
<path d="M30.9645 201.433L46.6165 187.545L40.8639 173.527C38.4371 182.884 29.5339 185.325 26.7397 185.867L30.9645 201.433Z" fill="url(#paint38_linear_11100_4898)"/>
<path d="M41.2614 172.515C42.2958 175.282 57.103 218.268 69.2143 213.957C78.3138 210.719 82.7959 159.781 97.1664 147.988C107.091 139.845 112.356 199.399 111.88 206.93C109.971 237.117 97.841 249.233 83.3478 254.099C33.3461 270.89 14.2209 193.262 14.2209 193.262C17.165 201.178 44.6049 188.807 41.2614 172.515Z" fill="url(#paint39_linear_11100_4898)"/>
<path d="M22.0062 203.079C22.8326 202.198 22.6996 200.731 21.7091 199.801C20.7186 198.871 19.2457 198.831 18.4192 199.712C17.5928 200.592 17.7258 202.059 18.7163 202.989C19.7068 203.919 21.1797 203.959 22.0062 203.079Z" fill="#00CEC6"/>
<path d="M18.9433 202.749C17.9529 201.82 17.82 200.352 18.6462 199.471C19.4723 198.591 20.9452 198.631 21.9355 199.56C22.9259 200.49 23.0588 201.958 22.2327 202.838C21.4065 203.718 19.9336 203.678 18.9433 202.749Z" fill="#00F5EB"/>
<path d="M20.0284 200.985C19.7973 201.09 19.5256 200.988 19.4198 200.757C19.3148 200.526 19.4164 200.253 19.6475 200.148C19.8786 200.043 20.1503 200.145 20.2561 200.376C20.3611 200.607 20.2595 200.88 20.0284 200.985Z" fill="url(#paint40_linear_11100_4898)"/>
<path d="M21.231 202.16C20.9999 202.265 20.7274 202.164 20.6224 201.933C20.5175 201.702 20.619 201.429 20.8501 201.324C21.0812 201.219 21.3529 201.321 21.4587 201.552C21.5637 201.783 21.4613 202.055 21.231 202.16Z" fill="url(#paint41_linear_11100_4898)"/>
<path d="M25.1304 207.548C25.1427 206.189 24.1738 205.079 22.9662 205.068C21.7587 205.057 20.7699 206.15 20.7576 207.508C20.7453 208.867 21.7142 209.977 22.9218 209.988C24.1293 209.999 25.1182 208.906 25.1304 207.548Z" fill="#00CEC6"/>
<path d="M24.7975 207.546C24.7857 208.905 23.797 209.997 22.5891 209.986C21.382 209.975 20.4128 208.865 20.4247 207.506C20.4365 206.148 21.4252 205.056 22.6331 205.067C23.8402 205.078 24.8094 206.187 24.7975 207.546Z" fill="#00F5EB"/>
<path d="M22.7652 207.943C22.9988 208.041 23.1089 208.311 23.0098 208.545C22.9116 208.778 22.6416 208.888 22.408 208.789C22.1744 208.691 22.0643 208.421 22.1634 208.187C22.2616 207.954 22.5307 207.845 22.7652 207.943Z" fill="url(#paint42_linear_11100_4898)"/>
<path d="M22.8143 206.263C23.0479 206.361 23.1579 206.631 23.0589 206.865C22.9607 207.098 22.6907 207.208 22.4571 207.109C22.2234 207.011 22.1134 206.741 22.2124 206.507C22.3106 206.274 22.5798 206.164 22.8143 206.263Z" fill="url(#paint43_linear_11100_4898)"/>
<path d="M143.125 135.727C122.825 136.204 108.436 141.514 97.1665 147.988C112.891 197.534 110.619 253.192 110.619 253.192C110.619 253.192 131.988 271.577 136.857 262.414C141.727 253.251 131.661 216.457 130.654 184.368C129.595 150.561 137.342 140.24 142.403 136.467C142.641 136.291 143.075 136.203 143.125 135.727Z" fill="url(#paint44_linear_11100_4898)"/>
<path d="M203.676 146.78C189.775 138.782 174.186 135.501 157.988 134.962C157.931 135.908 158.381 136.391 158.381 136.391C167.04 139.119 174.613 152.215 172.415 181.84C171.38 195.798 161.612 258.383 167.923 263.514C174.235 268.646 191.376 251.587 191.376 251.587C191.376 251.587 187.992 204.809 203.676 146.78Z" fill="url(#paint45_linear_11100_4898)"/>
<path d="M148.093 150.221L150.602 142.659H151.361L153.746 149.748L152.632 151.773L149.189 151.605L148.093 150.221Z" fill="#DAC9E9"/>
<path d="M141.822 137.692L143.409 132.896C145.44 138.608 147.949 141.759 150.883 142.625L148.636 152.854C145.087 149.572 142.258 145.446 141.822 137.692Z" fill="url(#paint46_linear_11100_4898)"/>
<path d="M159.678 137.675L158.011 133.14C155.98 138.852 153.862 141.759 150.928 142.625L153.176 152.854C156.724 149.571 159.242 145.43 159.678 137.675Z" fill="url(#paint47_linear_11100_4898)"/>
<path d="M149.189 151.605L138.179 251.722L152.147 266.08L166.116 251.663L152.632 151.769L149.189 151.605Z" fill="url(#paint48_linear_11100_4898)"/>
<path opacity="0.2" d="M152.632 151.769L149.189 151.604L146.874 172.654C149.315 170.263 151.879 167.997 154.529 165.823L152.632 151.769Z" fill="white"/>
<path opacity="0.2" d="M160.359 230.578C153.136 236.224 145.694 240.953 138.769 246.351L138.178 251.723L152.146 266.081L166.115 251.664L162.992 228.529C162.112 229.203 161.235 229.886 160.359 230.578Z" fill="white"/>
<path opacity="0.2" d="M160.211 207.912L157.471 187.611C152.722 190.874 148.235 194.425 144.055 198.29L141.498 221.542C143.436 219.904 145.441 218.304 147.537 216.721C151.805 213.54 156.011 210.673 160.211 207.912Z" fill="white"/>
<path d="M173.993 225.807L183.215 215.274C183.336 184.93 177.794 158.447 166.018 136.216C163.321 135.312 161.182 134.755 158.59 134.668L159.686 137.516C168.344 140.244 174.915 152.991 172.717 182.616C171.682 196.574 161.915 259.159 168.226 264.29C169.141 265.034 170.283 265.311 171.568 265.242L184.812 240.12L173.993 225.807Z" fill="#004072"/>
<path d="M173.691 225.029L182.913 214.497C183.034 184.152 177.492 157.67 165.716 135.439C163.018 134.534 160.88 133.978 158.287 133.891L159.384 136.738C168.042 139.467 174.613 152.214 172.415 181.839C171.38 195.796 161.612 258.382 167.924 263.513C168.839 264.257 169.98 264.534 171.265 264.465L184.51 239.342L173.691 225.029Z" fill="url(#paint49_linear_11100_4898)"/>
<path d="M141.459 138.901L142.459 135.877C139.685 135.942 137.224 136.645 134.767 137.395C124.027 163.926 117.285 189.849 118.055 214.627L126.543 224.89L121.244 240.554L136.919 262.654C140.725 252.096 131.266 216.635 130.291 185.579C129.232 151.772 136.398 142.675 141.459 138.901Z" fill="#004072"/>
<path d="M141.822 137.692L142.822 134.667C140.049 134.732 137.587 135.435 135.13 136.185C124.39 162.717 117.648 188.64 118.418 213.418L126.906 223.68L121.607 239.344L137.282 261.444C141.088 250.886 131.629 215.425 130.654 184.369C129.595 150.562 136.761 141.465 141.822 137.692Z" fill="url(#paint50_linear_11100_4898)"/>
<path d="M149.54 270.859L149.845 270.152C149.845 270.152 152.491 268.646 158.236 265.646C161.243 264.076 167.534 264.711 168.492 266.123C167.23 270.487 165.713 271.605 162.415 272.661C159.76 273.51 153.256 273.892 153.256 273.892L149.54 270.859Z" fill="#00365C"/>
<path d="M149.54 270.858C149.54 270.858 152.09 269.422 157.834 266.422C160.842 264.852 166.813 265.566 167.772 266.979C168.417 269 166.879 272.142 162.014 273.437C160.392 273.868 157.002 274.402 154.563 274.757C152.952 274.992 147.474 277.547 147.474 277.547C147.474 277.547 149.161 274.442 149.54 270.858Z" fill="url(#paint51_linear_11100_4898)"/>
<path d="M158.454 274.817C158.442 274.817 158.43 274.816 158.419 274.815C157.642 274.688 156.87 274.528 156.164 274.273C156.194 274.311 156.225 274.349 156.258 274.389C156.336 274.482 156.324 274.62 156.231 274.698C156.138 274.776 156 274.763 155.922 274.671C155.704 274.41 155.535 274.174 155.407 273.947C154.681 273.573 154.069 273.051 153.66 272.295C153.602 272.188 153.642 272.055 153.748 271.998C153.854 271.94 153.987 271.98 154.045 272.086C154.311 272.579 154.682 272.964 155.125 273.267C154.984 272.738 154.999 272.164 155.039 271.343C155.043 271.255 155.099 271.178 155.181 271.148C155.263 271.117 155.355 271.139 155.416 271.202C155.935 271.745 156.448 272.203 156.959 272.58C156.886 272.153 156.881 271.655 156.966 271.053C156.979 270.963 157.046 270.891 157.134 270.871C157.222 270.851 157.313 270.886 157.364 270.962C157.706 271.464 158.226 271.914 158.831 272.27C158.744 271.718 158.757 271.152 158.859 270.668C158.875 270.593 158.928 270.532 159 270.506C159.072 270.481 159.152 270.494 159.212 270.543C159.711 270.95 160.154 271.284 160.601 271.559C160.519 271.213 160.521 270.83 160.597 270.394C160.611 270.316 160.665 270.251 160.74 270.225C160.814 270.198 160.896 270.214 160.956 270.265L163.69 272.613C163.763 272.677 163.787 272.781 163.746 272.87C163.706 272.958 163.613 273.009 163.516 272.997C162.913 272.912 162.396 272.798 161.929 272.649C162.118 272.788 162.34 272.931 162.602 273.076C162.682 273.121 162.725 273.211 162.711 273.301C162.697 273.392 162.627 273.464 162.537 273.482C161.63 273.664 160.528 273.491 159.516 273.083C159.665 273.421 159.87 273.713 160.134 273.917C160.212 273.978 160.24 274.082 160.204 274.173C160.167 274.265 160.075 274.32 159.977 274.309C159.275 274.231 158.584 274.021 157.896 273.675C158.097 273.948 158.34 274.192 158.605 274.44C158.675 274.506 158.694 274.61 158.651 274.696C158.613 274.771 158.536 274.817 158.454 274.817ZM155.719 273.609C156.346 273.915 157.065 274.112 157.808 274.259C157.54 273.961 157.309 273.636 157.148 273.242C156.584 272.876 156.021 272.417 155.455 271.863C155.43 272.64 155.466 273.113 155.719 273.609ZM157.509 272.953C158.138 273.345 158.765 273.614 159.396 273.763C159.203 273.487 159.058 273.167 158.956 272.826C158.334 272.509 157.772 272.103 157.347 271.64C157.32 272.168 157.382 272.592 157.509 272.953ZM159.331 272.533C160.134 272.913 161.028 273.133 161.832 273.116C161.411 272.829 161.101 272.537 160.89 272.22C160.328 271.934 159.806 271.572 159.231 271.118C159.185 271.573 159.217 272.071 159.331 272.533ZM161.2 271.888C161.678 272.12 162.19 272.295 162.801 272.425L160.981 270.862C160.957 271.231 161.01 271.564 161.2 271.888Z" fill="#00345B"/>
<circle cx="37.1134" cy="106.355" r="25.1115" stroke="#D2DBE2" stroke-width="0.984765"/>
<g clip-path="url(#clip0_11100_4898)">
<path d="M27.4047 115.959L37.1189 119.157L46.8331 115.959L48.4263 93.5527H25.8115L27.4047 115.959ZM44.3952 97.3033L44.1813 100.304H33.0673L33.3383 104.154H43.9139L43.2698 113.186L37.1189 115.241L30.9678 113.186L30.7576 110.155H33.758L33.8188 110.98L37.1189 112.075L40.4196 110.98L40.6892 107.155H30.5328L29.8426 97.3033H44.3952Z" fill="#D2DBE2"/>
</g>
<circle cx="80.443" cy="47.2687" r="25.1115" stroke="#D2DBE2" stroke-width="0.984765"/>
<g clip-path="url(#clip1_11100_4898)">
<path d="M75.2731 48.9919C76.2249 48.9919 76.9964 49.7635 76.9964 50.7152H78.7198C78.7198 48.8117 77.1766 47.2686 75.2731 47.2686C73.3696 47.2686 71.8264 48.8117 71.8264 50.7152V52.4386C71.8264 54.3421 73.3696 55.8853 75.2731 55.8853C77.1766 55.8853 78.7198 54.3421 78.7198 52.4386H76.9964C76.9964 53.3903 76.2249 54.1619 75.2731 54.1619C74.3213 54.1619 73.5498 53.3903 73.5498 52.4386V50.7152C73.5498 49.7635 74.3213 48.9919 75.2731 48.9919Z" fill="#D2DBE2"/>
<path d="M68.3796 58.4704V36.067C68.3796 35.591 68.7653 35.2053 69.2413 35.2053H82.1663V38.652C82.1663 39.6037 82.9379 40.3753 83.8896 40.3753H87.3363V42.9603H89.0597V39.5136C89.061 39.2846 88.9711 39.0644 88.8098 38.9018L83.6398 33.7318C83.4772 33.5705 83.257 33.4807 83.028 33.4819H69.2413C67.8136 33.4819 66.6562 34.6393 66.6562 36.067V58.4704C66.6562 59.898 67.8136 61.0554 69.2413 61.0554H75.2729V59.332H69.2413C68.7654 59.332 68.3796 58.9463 68.3796 58.4704Z" fill="#D2DBE2"/>
<path d="M91.6448 50.7152H89.9214C89.4455 50.7152 89.0598 50.3295 89.0598 49.8536C89.0598 49.3777 89.4455 48.9919 89.9214 48.9919H91.6448C92.1207 48.9919 92.5064 49.3777 92.5064 49.8536H94.2298C94.2298 48.4259 93.0725 47.2686 91.6448 47.2686H89.9214C88.4938 47.2686 87.3364 48.4259 87.3364 49.8536C87.3364 51.2812 88.4938 52.4386 89.9214 52.4386H91.6448C92.1207 52.4386 92.5064 52.8243 92.5064 53.3002C92.5064 53.7762 92.1207 54.1619 91.6448 54.1619H89.9214C89.4455 54.1619 89.0598 53.7762 89.0598 53.3002H87.3364C87.3364 54.7279 88.4938 55.8853 89.9214 55.8853H91.6448C93.0725 55.8853 94.2298 54.7279 94.2298 53.3002C94.2298 51.8726 93.0725 50.7152 91.6448 50.7152Z" fill="#D2DBE2"/>
<path d="M82.1663 48.9919H83.8896C84.3656 48.9919 84.7513 49.3777 84.7513 49.8536H86.4747C86.4747 48.4259 85.3173 47.2686 83.8896 47.2686H82.1663C80.7386 47.2686 79.5813 48.4259 79.5813 49.8536C79.5813 51.2812 80.7386 52.4386 82.1663 52.4386H83.8896C84.3656 52.4386 84.7513 52.8243 84.7513 53.3002C84.7513 53.7762 84.3656 54.1619 83.8896 54.1619H82.1663C81.6904 54.1619 81.3046 53.7762 81.3046 53.3002H79.5813C79.5813 54.7279 80.7386 55.8853 82.1663 55.8853H83.8896C85.3173 55.8853 86.4747 54.7279 86.4747 53.3002C86.4747 51.8726 85.3173 50.7152 83.8896 50.7152H82.1663C81.6904 50.7152 81.3046 50.3295 81.3046 49.8536C81.3046 49.3777 81.6905 48.9919 82.1663 48.9919Z" fill="#D2DBE2"/>
</g>
<circle cx="154.3" cy="25.6039" r="25.1115" stroke="#D2DBE2" stroke-width="0.984765"/>
<g clip-path="url(#clip2_11100_4898)">
<path d="M157.603 29.5159C158.446 30.892 159.542 31.9035 161.481 31.9035C163.11 31.9035 164.151 31.0892 164.151 29.9642C164.151 28.6161 163.082 28.1386 161.289 27.3543L160.306 26.9325C157.469 25.7238 155.584 24.2096 155.584 21.0086C155.584 18.0599 157.83 15.8152 161.342 15.8152C163.841 15.8152 165.639 16.6851 166.933 18.9631L163.872 20.9289C163.198 19.7202 162.471 19.2441 161.342 19.2441C160.19 19.2441 159.46 19.9746 159.46 20.9289C159.46 22.1084 160.191 22.5859 161.878 23.3164L162.86 23.7374C166.201 25.17 168.087 26.6303 168.087 29.9137C168.087 33.4535 165.306 35.3927 161.572 35.3927C157.921 35.3927 155.562 33.6527 154.408 31.3721L157.603 29.5159ZM143.714 29.8566C144.332 30.9524 144.894 31.8789 146.244 31.8789C147.536 31.8789 148.351 31.3735 148.351 29.4084V16.0397H152.283V29.4614C152.283 33.5324 149.896 35.3854 146.412 35.3854C143.264 35.3854 141.441 33.7563 140.514 31.7941L143.714 29.8566Z" fill="#D2DBE2"/>
</g>
<circle cx="232.097" cy="48.2533" r="25.1115" stroke="#D2DBE2" stroke-width="0.984765"/>
<g clip-path="url(#clip3_11100_4898)">
<path d="M245.707 47.3323L238.418 40.0438C238.191 39.8171 237.79 39.8171 237.564 40.0438L235.984 41.6239C235.748 41.8599 235.748 42.2425 235.984 42.4785L241.265 47.7593L235.984 53.041C235.748 53.277 235.748 53.6596 235.984 53.8956L237.564 55.4757C237.677 55.589 237.831 55.6531 237.991 55.6531C238.151 55.6531 238.305 55.589 238.419 55.4757L245.707 48.1875C245.943 47.9512 245.943 47.5683 245.707 47.3323Z" fill="#D2DBE2"/>
<path d="M227.225 53.0409L221.944 47.7598L227.226 42.479C227.339 42.3657 227.403 42.2122 227.403 42.0517C227.403 41.8916 227.339 41.7377 227.226 41.6244L225.646 40.0443C225.532 39.9309 225.378 39.8672 225.218 39.8672C225.058 39.8672 224.904 39.9309 224.791 40.0443L217.502 47.3322C217.266 47.5682 217.266 47.9508 217.502 48.1871L224.791 55.4753C224.904 55.5886 225.058 55.6527 225.218 55.6527C225.378 55.6527 225.532 55.5886 225.645 55.4753L227.225 53.8952C227.461 53.6595 227.461 53.2769 227.225 53.0409Z" fill="#D2DBE2"/>
<path d="M235.749 37.592C235.672 37.4511 235.543 37.3466 235.389 37.3012L234.108 36.9232C233.789 36.8283 233.452 37.0118 233.358 37.3318L227.411 57.4706C227.366 57.6245 227.383 57.7898 227.46 57.9303C227.536 58.0714 227.666 58.1757 227.819 58.2213L229.1 58.5993C229.157 58.6162 229.215 58.6244 229.272 58.6244C229.532 58.6244 229.773 58.454 229.851 58.1908L235.798 38.0516C235.843 37.8978 235.826 37.7325 235.749 37.592Z" fill="#D2DBE2"/>
</g>
<circle cx="277.396" cy="106.355" r="25.1115" stroke="#D2DBE2" stroke-width="0.984765"/>
<g clip-path="url(#clip4_11100_4898)">
<path d="M276.904 91.583C269.03 91.583 262.625 97.9878 262.625 105.862C262.625 113.736 269.03 120.141 276.904 120.141C284.777 120.141 291.182 113.736 291.182 105.862C291.182 97.9887 284.777 91.583 276.904 91.583ZM264.264 105.862C264.264 104.029 264.657 102.289 265.359 100.718L271.388 117.237C267.172 115.189 264.264 110.865 264.264 105.862ZM276.904 118.503C275.663 118.503 274.466 118.32 273.333 117.988L277.125 106.968L281.012 117.611C281.036 117.674 281.067 117.731 281.101 117.786C279.788 118.248 278.376 118.503 276.904 118.503ZM278.646 99.9355C279.407 99.8954 280.092 99.8147 280.092 99.8147C280.773 99.7344 280.694 98.7339 280.012 98.7741C280.012 98.7741 277.964 98.9345 276.643 98.9345C275.401 98.9345 273.313 98.7741 273.313 98.7741C272.633 98.7339 272.553 99.7754 273.234 99.8147C273.234 99.8147 273.878 99.8951 274.559 99.9355L276.528 105.331L273.762 113.627L269.16 99.9361C269.922 99.896 270.607 99.8156 270.607 99.8156C271.287 99.7353 271.208 98.7342 270.526 98.775C270.526 98.775 268.479 98.9351 267.157 98.9351C266.919 98.9351 266.64 98.9289 266.344 98.9197C268.603 95.4877 272.488 93.2221 276.904 93.2221C280.195 93.2221 283.191 94.4804 285.44 96.5398C285.384 96.5372 285.332 96.5301 285.275 96.5301C284.034 96.5301 283.153 97.6115 283.153 98.7735C283.153 99.8147 283.752 100.696 284.394 101.737C284.875 102.58 285.436 103.662 285.436 105.224C285.436 106.306 285.021 107.561 284.474 109.31L283.213 113.523L278.646 99.9355ZM283.258 116.787L287.119 105.624C287.841 103.821 288.08 102.379 288.08 101.097C288.08 100.632 288.049 100.199 287.995 99.797C288.983 101.597 289.544 103.664 289.544 105.862C289.544 110.525 287.016 114.596 283.258 116.787Z" fill="#D2DBE2"/>
</g>
<defs>
<linearGradient id="paint0_linear_11100_4898" x1="121.896" y1="252.072" x2="110.553" y2="292.178" gradientUnits="userSpaceOnUse">
<stop offset="0.2011" stop-color="#015EA5"/>
<stop offset="0.8097" stop-color="#00345B"/>
</linearGradient>
<linearGradient id="paint1_linear_11100_4898" x1="81.6774" y1="260.728" x2="155.159" y2="260.728" gradientUnits="userSpaceOnUse">
<stop offset="0.2011" stop-color="#015EA5"/>
<stop offset="0.8097" stop-color="#00355E"/>
</linearGradient>
<linearGradient id="paint2_linear_11100_4898" x1="184.308" y1="247.922" x2="193.018" y2="297.142" gradientUnits="userSpaceOnUse">
<stop offset="0.2011" stop-color="#015EA5"/>
<stop offset="0.8097" stop-color="#003762"/>
</linearGradient>
<linearGradient id="paint3_linear_11100_4898" x1="149.414" y1="261.649" x2="224.346" y2="261.649" gradientUnits="userSpaceOnUse">
<stop offset="0.1903" stop-color="#00345B"/>
<stop offset="0.7989" stop-color="#015EA5"/>
</linearGradient>
<linearGradient id="paint4_linear_11100_4898" x1="138.711" y1="280.334" x2="140.068" y2="267.207" gradientUnits="userSpaceOnUse">
<stop stop-color="#8F68AE"/>
<stop offset="0.1713" stop-color="#A683C2"/>
<stop offset="0.4097" stop-color="#B799D0"/>
<stop offset="0.6875" stop-color="#C5ABDB"/>
<stop offset="0.875" stop-color="#D1BCE3"/>
<stop offset="0.9929" stop-color="#D1BCE3"/>
</linearGradient>
<linearGradient id="paint5_linear_11100_4898" x1="289.114" y1="178.504" x2="264.323" y2="190.102" gradientUnits="userSpaceOnUse">
<stop offset="0.2011" stop-color="#015EA5"/>
<stop offset="0.3061" stop-color="#00508C"/>
<stop offset="0.4932" stop-color="#003D6C"/>
<stop offset="0.6647" stop-color="#003762"/>
<stop offset="0.8049" stop-color="#002F53"/>
</linearGradient>
<linearGradient id="paint6_linear_11100_4898" x1="270.71" y1="157.685" x2="271.862" y2="189.319" gradientUnits="userSpaceOnUse">
<stop stop-color="#3E89AE"/>
<stop offset="1" stop-color="white"/>
</linearGradient>
<linearGradient id="paint7_linear_11100_4898" x1="264.474" y1="198.07" x2="291.708" y2="138.531" gradientUnits="userSpaceOnUse">
<stop stop-color="#F2B8B8"/>
<stop offset="0.2287" stop-color="#F4C3C3"/>
<stop offset="0.6351" stop-color="#F6D0D0"/>
<stop offset="0.9987" stop-color="#F7D5D5"/>
</linearGradient>
<linearGradient id="paint8_linear_11100_4898" x1="264.296" y1="201.831" x2="272.471" y2="166.84" gradientUnits="userSpaceOnUse">
<stop stop-color="#E0F2FF"/>
<stop offset="0.1558" stop-color="#E0F2FF"/>
<stop offset="1" stop-color="#E0F2FF"/>
</linearGradient>
<linearGradient id="paint9_linear_11100_4898" x1="256.509" y1="174.074" x2="284.731" y2="211.884" gradientUnits="userSpaceOnUse">
<stop offset="1.348e-05" stop-color="#CDE8F7"/>
<stop offset="1" stop-color="white"/>
</linearGradient>
<linearGradient id="paint10_linear_11100_4898" x1="232.493" y1="186.916" x2="300.394" y2="229.434" gradientUnits="userSpaceOnUse">
<stop offset="0.3298" stop-color="#015EA5"/>
<stop offset="0.914" stop-color="#00487E"/>
</linearGradient>
<linearGradient id="paint11_linear_11100_4898" x1="283.034" y1="201.396" x2="281.639" y2="198.572" gradientUnits="userSpaceOnUse">
<stop offset="0.2011" stop-color="#0D7499"/>
<stop offset="0.3061" stop-color="#096388"/>
<stop offset="0.4932" stop-color="#044A70"/>
<stop offset="0.6647" stop-color="#013B61"/>
<stop offset="0.8049" stop-color="#00365C"/>
</linearGradient>
<linearGradient id="paint12_linear_11100_4898" x1="281.832" y1="202.571" x2="280.436" y2="199.747" gradientUnits="userSpaceOnUse">
<stop offset="0.2011" stop-color="#0D7499"/>
<stop offset="0.3061" stop-color="#096388"/>
<stop offset="0.4932" stop-color="#044A70"/>
<stop offset="0.6647" stop-color="#013B61"/>
<stop offset="0.8049" stop-color="#00365C"/>
</linearGradient>
<linearGradient id="paint13_linear_11100_4898" x1="278.043" y1="207.311" x2="281.065" y2="208.199" gradientUnits="userSpaceOnUse">
<stop offset="0.2011" stop-color="#0D7499"/>
<stop offset="0.3061" stop-color="#096388"/>
<stop offset="0.4932" stop-color="#044A70"/>
<stop offset="0.6647" stop-color="#013B61"/>
<stop offset="0.8049" stop-color="#00365C"/>
</linearGradient>
<linearGradient id="paint14_linear_11100_4898" x1="277.994" y1="205.63" x2="281.016" y2="206.518" gradientUnits="userSpaceOnUse">
<stop offset="0.2011" stop-color="#0D7499"/>
<stop offset="0.3061" stop-color="#096388"/>
<stop offset="0.4932" stop-color="#044A70"/>
<stop offset="0.6647" stop-color="#013B61"/>
<stop offset="0.8049" stop-color="#00365C"/>
</linearGradient>
<linearGradient id="paint15_linear_11100_4898" x1="141.29" y1="266.284" x2="177.096" y2="139.693" gradientUnits="userSpaceOnUse">
<stop stop-color="#E0F2FF"/>
<stop offset="0.1558" stop-color="#E0F2FF"/>
<stop offset="1" stop-color="#E0F2FF"/>
</linearGradient>
<linearGradient id="paint16_linear_11100_4898" x1="155.906" y1="158.425" x2="161.23" y2="119.976" gradientUnits="userSpaceOnUse">
<stop offset="0.0955" stop-color="#F7D5D5"/>
<stop offset="0.2215" stop-color="#F6D0D0"/>
<stop offset="0.3623" stop-color="#F4C3C3"/>
<stop offset="0.4415" stop-color="#F2B8B8"/>
</linearGradient>
<linearGradient id="paint17_linear_11100_4898" x1="154.995" y1="148.847" x2="150.199" y2="126.015" gradientUnits="userSpaceOnUse">
<stop offset="0.106" stop-color="#F2B8B8"/>
<stop offset="0.424" stop-color="#F6CFCF"/>
<stop offset="0.4958" stop-color="#F7D5D5"/>
</linearGradient>
<linearGradient id="paint18_linear_11100_4898" x1="155.245" y1="133.39" x2="147.965" y2="105.251" gradientUnits="userSpaceOnUse">
<stop offset="0.106" stop-color="#F2B8B8"/>
<stop offset="0.424" stop-color="#F6CFCF"/>
<stop offset="0.4958" stop-color="#F7D5D5"/>
</linearGradient>
<linearGradient id="paint19_linear_11100_4898" x1="159.952" y1="97.0925" x2="150.971" y2="117.917" gradientUnits="userSpaceOnUse">
<stop stop-color="#E45959"/>
<stop offset="1" stop-color="#E45959" stop-opacity="0"/>
</linearGradient>
<linearGradient id="paint20_linear_11100_4898" x1="150.382" y1="121.995" x2="150.121" y2="123.456" gradientUnits="userSpaceOnUse">
<stop stop-color="#E5928A"/>
<stop offset="0.3518" stop-color="#EAA09B"/>
<stop offset="0.9987" stop-color="#F2B8B8"/>
</linearGradient>
<linearGradient id="paint21_linear_11100_4898" x1="147.347" y1="128.618" x2="154.352" y2="125.79" gradientUnits="userSpaceOnUse">
<stop stop-color="#E5928A"/>
<stop offset="0.2432" stop-color="#DA8366"/>
<stop offset="0.7591" stop-color="#C5661D"/>
<stop offset="0.9987" stop-color="#BD5A00"/>
</linearGradient>
<linearGradient id="paint22_linear_11100_4898" x1="150.253" y1="122.917" x2="151.565" y2="113.823" gradientUnits="userSpaceOnUse">
<stop offset="0.106" stop-color="#F2B8B8"/>
<stop offset="0.424" stop-color="#F6CFCF"/>
<stop offset="0.4958" stop-color="#F7D5D5"/>
</linearGradient>
<linearGradient id="paint23_linear_11100_4898" x1="154.645" y1="116.592" x2="154.376" y2="114.243" gradientUnits="userSpaceOnUse">
<stop offset="0.106" stop-color="#F2B8B8"/>
<stop offset="0.424" stop-color="#F6CFCF"/>
<stop offset="0.4958" stop-color="#F7D5D5"/>
</linearGradient>
<linearGradient id="paint24_linear_11100_4898" x1="147.619" y1="116.699" x2="147.348" y2="114.337" gradientUnits="userSpaceOnUse">
<stop offset="0.106" stop-color="#F2B8B8"/>
<stop offset="0.424" stop-color="#F6CFCF"/>
<stop offset="0.4958" stop-color="#F7D5D5"/>
</linearGradient>
<linearGradient id="paint25_linear_11100_4898" x1="148.777" y1="111.695" x2="148.139" y2="114.498" gradientUnits="userSpaceOnUse">
<stop stop-color="#E45959"/>
<stop offset="1" stop-color="#E45959" stop-opacity="0"/>
</linearGradient>
<linearGradient id="paint26_linear_11100_4898" x1="157.295" y1="111.695" x2="156.656" y2="114.498" gradientUnits="userSpaceOnUse">
<stop stop-color="#E45959"/>
<stop offset="1" stop-color="#E45959" stop-opacity="0"/>
</linearGradient>
<linearGradient id="paint27_linear_11100_4898" x1="150.387" y1="121.992" x2="149.827" y2="125.119" gradientUnits="userSpaceOnUse">
<stop offset="0.106" stop-color="#F2B8B8"/>
<stop offset="0.424" stop-color="#F6CFCF"/>
<stop offset="0.4958" stop-color="#F7D5D5"/>
</linearGradient>
<linearGradient id="paint28_linear_11100_4898" x1="162.474" y1="115.518" x2="155.883" y2="116.677" gradientUnits="userSpaceOnUse">
<stop stop-color="#E5928A"/>
<stop offset="0.5823" stop-color="#F0BBB8"/>
<stop offset="0.9987" stop-color="#F7D5D5"/>
</linearGradient>
<linearGradient id="paint29_linear_11100_4898" x1="138.766" y1="115.518" x2="145.356" y2="116.677" gradientUnits="userSpaceOnUse">
<stop stop-color="#E5928A"/>
<stop offset="0.5823" stop-color="#F0BBB8"/>
<stop offset="0.9987" stop-color="#F7D5D5"/>
</linearGradient>
<linearGradient id="paint30_linear_11100_4898" x1="142.97" y1="116.627" x2="149.448" y2="116.627" gradientUnits="userSpaceOnUse">
<stop offset="0.5042" stop-color="#F7D5D5"/>
<stop offset="0.576" stop-color="#F6CFCF"/>
<stop offset="0.894" stop-color="#F2B8B8"/>
</linearGradient>
<linearGradient id="paint31_linear_11100_4898" x1="157.664" y1="116.627" x2="151.186" y2="116.627" gradientUnits="userSpaceOnUse">
<stop offset="0.5042" stop-color="#F7D5D5"/>
<stop offset="0.576" stop-color="#F6CFCF"/>
<stop offset="0.894" stop-color="#F2B8B8"/>
</linearGradient>
<linearGradient id="paint32_linear_11100_4898" x1="150.971" y1="128.39" x2="151.204" y2="131.423" gradientUnits="userSpaceOnUse">
<stop stop-color="#E5928A"/>
<stop offset="0.3518" stop-color="#EAA09B"/>
<stop offset="0.9987" stop-color="#F2B8B8"/>
</linearGradient>
<linearGradient id="paint33_linear_11100_4898" x1="149.747" y1="125.102" x2="151.804" y2="125.72" gradientUnits="userSpaceOnUse">
<stop stop-color="#E5928A"/>
<stop offset="0.3518" stop-color="#EAA09B"/>
<stop offset="0.9987" stop-color="#F2B8B8"/>
</linearGradient>
<linearGradient id="paint34_linear_11100_4898" x1="13.0502" y1="179.109" x2="37.8412" y2="190.707" gradientUnits="userSpaceOnUse">
<stop offset="0.2011" stop-color="#015EA5"/>
<stop offset="0.3061" stop-color="#004E8A"/>
<stop offset="0.4932" stop-color="#003C69"/>
<stop offset="0.6647" stop-color="#00365F"/>
<stop offset="0.8049" stop-color="#002847"/>
</linearGradient>
<linearGradient id="paint35_linear_11100_4898" x1="31.4541" y1="158.289" x2="30.3018" y2="189.924" gradientUnits="userSpaceOnUse">
<stop stop-color="#3E89AE"/>
<stop offset="1" stop-color="white"/>
</linearGradient>
<linearGradient id="paint36_linear_11100_4898" x1="37.6902" y1="198.675" x2="10.4555" y2="139.136" gradientUnits="userSpaceOnUse">
<stop stop-color="#F2B8B8"/>
<stop offset="0.2287" stop-color="#F4C3C3"/>
<stop offset="0.6351" stop-color="#F6D0D0"/>
<stop offset="0.9987" stop-color="#F7D5D5"/>
</linearGradient>
<linearGradient id="paint37_linear_11100_4898" x1="32.4936" y1="202.436" x2="40.6688" y2="167.445" gradientUnits="userSpaceOnUse">
<stop stop-color="#E0F2FF"/>
<stop offset="0.1558" stop-color="#E0F2FF"/>
<stop offset="1" stop-color="#E0F2FF"/>
</linearGradient>
<linearGradient id="paint38_linear_11100_4898" x1="45.6552" y1="174.679" x2="17.4331" y2="212.489" gradientUnits="userSpaceOnUse">
<stop offset="1.348e-05" stop-color="#CDE8F7"/>
<stop offset="1" stop-color="white"/>
</linearGradient>
<linearGradient id="paint39_linear_11100_4898" x1="56.4596" y1="187.522" x2="124.361" y2="230.04" gradientUnits="userSpaceOnUse">
<stop offset="0.3298" stop-color="#015EA5"/>
<stop offset="0.914" stop-color="#00487E"/>
</linearGradient>
<linearGradient id="paint40_linear_11100_4898" x1="19.1297" y1="202.001" x2="20.525" y2="199.177" gradientUnits="userSpaceOnUse">
<stop offset="0.2011" stop-color="#0D7499"/>
<stop offset="0.3061" stop-color="#096388"/>
<stop offset="0.4932" stop-color="#044A70"/>
<stop offset="0.6647" stop-color="#013B61"/>
<stop offset="0.8049" stop-color="#00365C"/>
</linearGradient>
<linearGradient id="paint41_linear_11100_4898" x1="20.3319" y1="203.176" x2="21.7272" y2="200.352" gradientUnits="userSpaceOnUse">
<stop offset="0.2011" stop-color="#0D7499"/>
<stop offset="0.3061" stop-color="#096388"/>
<stop offset="0.4932" stop-color="#044A70"/>
<stop offset="0.6647" stop-color="#013B61"/>
<stop offset="0.8049" stop-color="#00365C"/>
</linearGradient>
<linearGradient id="paint42_linear_11100_4898" x1="24.1209" y1="207.915" x2="21.099" y2="208.803" gradientUnits="userSpaceOnUse">
<stop offset="0.2011" stop-color="#0D7499"/>
<stop offset="0.3061" stop-color="#096388"/>
<stop offset="0.4932" stop-color="#044A70"/>
<stop offset="0.6647" stop-color="#013B61"/>
<stop offset="0.8049" stop-color="#00365C"/>
</linearGradient>
<linearGradient id="paint43_linear_11100_4898" x1="24.1701" y1="206.235" x2="21.1481" y2="207.123" gradientUnits="userSpaceOnUse">
<stop offset="0.2011" stop-color="#0D7499"/>
<stop offset="0.3061" stop-color="#096388"/>
<stop offset="0.4932" stop-color="#044A70"/>
<stop offset="0.6647" stop-color="#013B61"/>
<stop offset="0.8049" stop-color="#00365C"/>
</linearGradient>
<linearGradient id="paint44_linear_11100_4898" x1="120.795" y1="125.535" x2="113.227" y2="315.929" gradientUnits="userSpaceOnUse">
<stop offset="0.0605" stop-color="#015EA5"/>
<stop offset="0.8097" stop-color="#003B68"/>
</linearGradient>
<linearGradient id="paint45_linear_11100_4898" x1="181.474" y1="124.749" x2="173.831" y2="315.534" gradientUnits="userSpaceOnUse">
<stop offset="0.0605" stop-color="#015EA5"/>
<stop offset="0.8097" stop-color="#003B68"/>
</linearGradient>
<linearGradient id="paint46_linear_11100_4898" x1="145.25" y1="153.826" x2="146.853" y2="133.944" gradientUnits="userSpaceOnUse">
<stop offset="0.3195" stop-color="white"/>
<stop offset="0.9456" stop-color="#D7E6EE"/>
</linearGradient>
<linearGradient id="paint47_linear_11100_4898" x1="156.406" y1="153.824" x2="154.82" y2="134.159" gradientUnits="userSpaceOnUse">
<stop offset="0.3195" stop-color="white"/>
<stop offset="0.9456" stop-color="#D7E6EE"/>
</linearGradient>
<linearGradient id="paint48_linear_11100_4898" x1="148.679" y1="267.019" x2="208.626" y2="183.788" gradientUnits="userSpaceOnUse">
<stop stop-color="#8F68AE"/>
<stop offset="0.1713" stop-color="#A683C2"/>
<stop offset="0.4097" stop-color="#B799D0"/>
<stop offset="0.6875" stop-color="#C5ABDB"/>
<stop offset="0.875" stop-color="#D1BCE3"/>
<stop offset="0.9929" stop-color="#D1BCE3"/>
</linearGradient>
<linearGradient id="paint49_linear_11100_4898" x1="173.425" y1="124.082" x2="166.088" y2="316.151" gradientUnits="userSpaceOnUse">
<stop offset="0.2011" stop-color="#0066B5"/>
<stop offset="0.3924" stop-color="#005596"/>
<stop offset="0.5648" stop-color="#005393"/>
<stop offset="0.7298" stop-color="#004E89"/>
<stop offset="0.8896" stop-color="#003E5E"/>
<stop offset="0.8975" stop-color="#003D6C"/>
</linearGradient>
<linearGradient id="paint50_linear_11100_4898" x1="132.48" y1="125.144" x2="125.069" y2="311.592" gradientUnits="userSpaceOnUse">
<stop offset="0.2011" stop-color="#0066B5"/>
<stop offset="0.3924" stop-color="#005596"/>
<stop offset="0.5648" stop-color="#005393"/>
<stop offset="0.7298" stop-color="#004E89"/>
<stop offset="0.8896" stop-color="#003E5E"/>
<stop offset="0.8975" stop-color="#003D6C"/>
</linearGradient>
<linearGradient id="paint51_linear_11100_4898" x1="155.155" y1="277.646" x2="156.512" y2="264.519" gradientUnits="userSpaceOnUse">
<stop stop-color="#8F68AE"/>
<stop offset="0.1713" stop-color="#A683C2"/>
<stop offset="0.4097" stop-color="#B799D0"/>
<stop offset="0.6875" stop-color="#C5ABDB"/>
<stop offset="0.875" stop-color="#D1BCE3"/>
<stop offset="0.9929" stop-color="#D1BCE3"/>
</linearGradient>
<clipPath id="clip0_11100_4898">
<rect width="25.6039" height="25.6039" fill="white" transform="translate(24.3113 93.5527)"/>
</clipPath>
<clipPath id="clip1_11100_4898">
<rect width="27.5734" height="27.5734" fill="white" transform="translate(66.6562 33.4819)"/>
</clipPath>
<clipPath id="clip2_11100_4898">
<rect width="27.5734" height="27.5734" fill="white" transform="translate(140.514 11.8171)"/>
</clipPath>
<clipPath id="clip3_11100_4898">
<rect width="28.5582" height="28.5582" fill="white" transform="translate(217.325 33.4819)"/>
</clipPath>
<clipPath id="clip4_11100_4898">
<rect width="28.5582" height="28.5582" fill="white" transform="translate(262.625 91.583)"/>
</clipPath>
</defs>
</svg>
