<svg version="1.1" id="Layer_1" xmlns="http://www.w3.org/2000/svg" xmlns:xlink="http://www.w3.org/1999/xlink" x="0px" y="0px"
	 width="100%" viewBox="0 0 512 512" enable-background="new 0 0 512 512" xml:space="preserve">
<path fill="#000000" opacity="1.000000" stroke="none" 
	d="
M513.000000,218.000000 
	C513.000000,243.020889 513.000000,268.041779 512.658936,293.609283 
	C509.469910,298.640472 506.047272,302.580872 500.604370,303.707916 
	C494.265747,305.020416 487.875336,306.224182 481.447693,306.935486 
	C468.805450,308.334412 457.601349,312.478668 449.640106,322.904480 
	C438.532806,337.450287 436.773376,353.059875 445.393036,368.545135 
	C449.688904,376.262726 455.336060,383.292694 460.860901,390.245209 
	C467.750946,398.915649 467.698090,409.581818 459.590485,417.173431 
	C445.125641,430.717712 431.137238,444.805695 417.522644,459.208038 
	C410.944916,466.166351 402.121613,465.775665 395.138428,461.529816 
	C390.044800,458.432770 385.444519,454.533020 380.557068,451.086456 
	C370.182098,443.770294 359.805389,437.326813 345.894531,439.849396 
	C327.659637,443.156067 312.713318,455.758575 309.969025,475.287811 
	C308.820709,483.459961 307.344055,491.586487 305.979706,499.727600 
	C304.951447,505.863281 300.406128,509.386932 296.000000,513.000000 
	C271.312439,513.000000 246.624878,513.000000 221.377899,512.654602 
	C215.262222,510.183350 211.552261,506.193176 210.269882,500.478882 
	C208.854095,494.170135 207.780457,487.752869 207.060059,481.326569 
	C205.643341,468.688477 201.415436,457.536041 191.022812,449.557343 
	C177.021805,438.808441 160.576157,436.749023 145.363525,445.428711 
	C137.686249,449.808990 130.653992,455.415619 123.685219,460.917542 
	C115.025719,467.754395 104.418442,467.707550 96.770134,459.534180 
	C83.235039,445.070007 69.144424,431.093201 54.748547,417.481171 
	C47.862900,410.970459 48.219849,402.062561 52.502586,395.100647 
	C55.626419,390.022614 59.495422,385.407440 62.946396,380.525269 
	C70.277519,370.153778 76.677734,359.756378 74.146484,345.862457 
	C70.840073,327.713684 58.312744,312.721924 38.697960,309.968719 
	C30.528402,308.822021 22.404551,307.345459 14.266611,305.979034 
	C8.134718,304.949432 4.611606,300.404938 1.000000,296.000000 
	C1.000000,270.979095 1.000000,245.958206 1.341032,220.390717 
	C4.530082,215.359528 7.952712,211.419128 13.395623,210.292068 
	C19.734240,208.979553 26.124643,207.775818 32.552296,207.064545 
	C45.194515,205.665573 56.398598,201.521362 64.359848,191.095566 
	C75.467133,176.549820 77.226669,160.940155 68.606972,145.454865 
	C64.311104,137.737305 58.663994,130.707275 53.139126,123.754814 
	C46.249119,115.084465 46.301991,104.418152 54.409534,96.826614 
	C68.874397,83.282379 82.862755,69.194344 96.477333,54.792011 
	C103.055099,47.833633 111.878220,48.224270 118.861526,52.470181 
	C123.955162,55.567162 128.555420,59.466949 133.442886,62.913475 
	C143.817841,70.229675 154.194534,76.673203 168.105438,74.150627 
	C186.340363,70.843956 201.286682,58.241386 204.030975,38.712242 
	C205.179352,30.540094 206.655975,22.413546 208.020309,14.272454 
	C209.048553,8.136750 213.593857,4.613074 218.000000,1.000000 
	C242.687561,1.000000 267.375122,1.000000 292.622101,1.345408 
	C298.737854,3.816556 302.447662,7.806843 303.730103,13.521050 
	C305.145966,19.829763 306.219513,26.247059 306.939911,32.673363 
	C308.356628,45.311420 312.584473,56.463928 322.977112,64.442650 
	C336.977966,75.191483 353.423645,77.251060 368.636444,68.571388 
	C376.313721,64.191116 383.345978,58.584480 390.314728,53.082512 
	C398.973999,46.245842 409.581329,46.292194 417.229889,54.465714 
	C430.764984,68.929871 444.855621,82.906708 459.251434,96.518845 
	C466.137207,103.029793 465.780243,111.937103 461.497406,118.899345 
	C458.373627,123.977417 454.504608,128.592575 451.053650,133.474777 
	C443.722565,143.846283 437.322235,154.243607 439.853485,168.137543 
	C443.159973,186.286407 455.687469,201.278152 475.302063,204.031281 
	C483.471588,205.177963 491.595428,206.654510 499.733368,208.020996 
	C505.865234,209.050644 509.388428,213.595001 513.000000,218.000000 
M184.532898,368.020264 
	C191.019348,371.516937 197.351913,375.344574 204.022263,378.445679 
	C221.183792,386.424194 239.573547,389.347961 258.263519,389.803406 
	C265.977448,389.991364 273.781952,388.232422 281.480438,386.965149 
	C307.971954,382.604279 330.437042,370.180237 349.617676,351.767395 
	C362.491364,339.408997 372.208252,324.730042 379.267548,308.298004 
	C386.403717,291.687012 389.276184,274.143158 389.793518,256.296387 
	C390.021759,248.422363 388.217773,240.449799 386.970398,232.579971 
	C382.961395,207.286255 371.257080,185.640900 354.244019,166.933456 
	C343.144562,154.728638 329.923248,145.080154 314.869476,137.917435 
	C290.817780,126.473404 265.867706,122.347038 239.346420,125.828377 
	C223.769012,127.873146 208.983856,132.254135 195.375229,139.497650 
	C175.758514,149.939117 159.305298,164.418716 146.969193,183.214783 
	C135.679504,200.416489 128.608459,219.027832 125.780029,239.551727 
	C123.944664,252.869705 124.031082,266.047485 126.218872,279.037598 
	C129.670624,299.532562 137.606186,318.431732 150.021805,335.289459 
	C159.425537,348.057709 170.747574,358.794189 184.532898,368.020264 
z"/>
<path fill="#FFFFFF" opacity="1.000000" stroke="none" 
	d="
M217.531342,1.000000 
	C213.593857,4.613074 209.048553,8.136750 208.020309,14.272454 
	C206.655975,22.413546 205.179352,30.540094 204.030975,38.712242 
	C201.286682,58.241386 186.340363,70.843956 168.105438,74.150627 
	C154.194534,76.673203 143.817841,70.229675 133.442886,62.913475 
	C128.555420,59.466949 123.955162,55.567162 118.861526,52.470181 
	C111.878220,48.224270 103.055099,47.833633 96.477333,54.792011 
	C82.862755,69.194344 68.874397,83.282379 54.409534,96.826614 
	C46.301991,104.418152 46.249119,115.084465 53.139126,123.754814 
	C58.663994,130.707275 64.311104,137.737305 68.606972,145.454865 
	C77.226669,160.940155 75.467133,176.549820 64.359848,191.095566 
	C56.398598,201.521362 45.194515,205.665573 32.552296,207.064545 
	C26.124643,207.775818 19.734240,208.979553 13.395623,210.292068 
	C7.952712,211.419128 4.530082,215.359528 1.341032,219.922058 
	C1.000000,147.073288 1.000000,74.146591 1.000000,1.000000 
	C73.020744,1.000000 145.041718,1.000000 217.531342,1.000000 
z"/>
<path fill="#FFFFFF" opacity="1.000000" stroke="none" 
	d="
M513.000000,217.531342 
	C509.388428,213.595001 505.865234,209.050644 499.733368,208.020996 
	C491.595428,206.654510 483.471588,205.177963 475.302063,204.031281 
	C455.687469,201.278152 443.159973,186.286407 439.853485,168.137543 
	C437.322235,154.243607 443.722565,143.846283 451.053650,133.474777 
	C454.504608,128.592575 458.373627,123.977417 461.497406,118.899345 
	C465.780243,111.937103 466.137207,103.029793 459.251434,96.518845 
	C444.855621,82.906708 430.764984,68.929871 417.229889,54.465714 
	C409.581329,46.292194 398.973999,46.245842 390.314728,53.082512 
	C383.345978,58.584480 376.313721,64.191116 368.636444,68.571388 
	C353.423645,77.251060 336.977966,75.191483 322.977112,64.442650 
	C312.584473,56.463928 308.356628,45.311420 306.939911,32.673363 
	C306.219513,26.247059 305.145966,19.829763 303.730103,13.521050 
	C302.447662,7.806843 298.737854,3.816556 293.090759,1.345408 
	C366.259857,1.000000 439.519745,1.000000 513.000000,1.000000 
	C513.000000,73.020744 513.000000,145.041718 513.000000,217.531342 
z"/>
<path fill="#FFFFFF" opacity="1.000000" stroke="none" 
	d="
M296.468658,513.000000 
	C300.406128,509.386932 304.951447,505.863281 305.979706,499.727600 
	C307.344055,491.586487 308.820709,483.459961 309.969025,475.287811 
	C312.713318,455.758575 327.659637,443.156067 345.894531,439.849396 
	C359.805389,437.326813 370.182098,443.770294 380.557068,451.086456 
	C385.444519,454.533020 390.044800,458.432770 395.138428,461.529816 
	C402.121613,465.775665 410.944916,466.166351 417.522644,459.208038 
	C431.137238,444.805695 445.125641,430.717712 459.590485,417.173431 
	C467.698090,409.581818 467.750946,398.915649 460.860901,390.245209 
	C455.336060,383.292694 449.688904,376.262726 445.393036,368.545135 
	C436.773376,353.059875 438.532806,337.450287 449.640106,322.904480 
	C457.601349,312.478668 468.805450,308.334412 481.447693,306.935486 
	C487.875336,306.224182 494.265747,305.020416 500.604370,303.707916 
	C506.047272,302.580872 509.469910,298.640472 512.658936,294.077942 
	C513.000000,366.926697 513.000000,439.853394 513.000000,513.000000 
	C440.979248,513.000000 368.958282,513.000000 296.468658,513.000000 
z"/>
<path fill="#FFFFFF" opacity="1.000000" stroke="none" 
	d="
M1.000000,296.468658 
	C4.611606,300.404938 8.134718,304.949432 14.266611,305.979034 
	C22.404551,307.345459 30.528402,308.822021 38.697960,309.968719 
	C58.312744,312.721924 70.840073,327.713684 74.146484,345.862457 
	C76.677734,359.756378 70.277519,370.153778 62.946396,380.525269 
	C59.495422,385.407440 55.626419,390.022614 52.502586,395.100647 
	C48.219849,402.062561 47.862900,410.970459 54.748547,417.481171 
	C69.144424,431.093201 83.235039,445.070007 96.770134,459.534180 
	C104.418442,467.707550 115.025719,467.754395 123.685219,460.917542 
	C130.653992,455.415619 137.686249,449.808990 145.363525,445.428711 
	C160.576157,436.749023 177.021805,438.808441 191.022812,449.557343 
	C201.415436,457.536041 205.643341,468.688477 207.060059,481.326569 
	C207.780457,487.752869 208.854095,494.170135 210.269882,500.478882 
	C211.552261,506.193176 215.262222,510.183350 220.909241,512.654602 
	C147.740143,513.000000 74.480278,513.000000 1.000000,513.000000 
	C1.000000,440.979248 1.000000,368.958282 1.000000,296.468658 
z"/>
<path fill="#FFFFFF" opacity="1.000000" stroke="none" 
	d="
M184.264740,367.761414 
	C170.747574,358.794189 159.425537,348.057709 150.021805,335.289459 
	C137.606186,318.431732 129.670624,299.532562 126.218872,279.037598 
	C124.031082,266.047485 123.944664,252.869705 125.780029,239.551727 
	C128.608459,219.027832 135.679504,200.416489 146.969193,183.214783 
	C159.305298,164.418716 175.758514,149.939117 195.375229,139.497650 
	C208.983856,132.254135 223.769012,127.873146 239.346420,125.828377 
	C265.867706,122.347038 290.817780,126.473404 314.869476,137.917435 
	C329.923248,145.080154 343.144562,154.728638 354.244019,166.933456 
	C371.257080,185.640900 382.961395,207.286255 386.970398,232.579971 
	C388.217773,240.449799 390.021759,248.422363 389.793518,256.296387 
	C389.276184,274.143158 386.403717,291.687012 379.267548,308.298004 
	C372.208252,324.730042 362.491364,339.408997 349.617676,351.767395 
	C330.437042,370.180237 307.971954,382.604279 281.480438,386.965149 
	C273.781952,388.232422 265.977448,389.991364 258.263519,389.803406 
	C239.573547,389.347961 221.183792,386.424194 204.022263,378.445679 
	C197.351913,375.344574 191.019348,371.516937 184.264740,367.761414 
M231.761337,355.966370 
	C245.292023,359.018188 258.989441,360.393097 272.690674,357.904236 
	C297.679047,353.365082 318.990143,342.220398 335.357666,322.220764 
	C354.791443,298.474457 362.365753,271.289368 357.776428,241.289566 
	C353.939240,216.206528 342.123535,195.070984 322.225555,178.579605 
	C305.337402,164.582764 285.904755,157.249130 264.450806,155.124405 
	C251.672897,153.858902 239.010254,155.808289 226.734650,159.700180 
	C205.742203,166.355682 188.480301,178.155472 175.328644,196.077515 
	C157.069214,220.959991 151.103989,248.532043 157.331863,278.476746 
	C162.084305,301.327332 173.594574,320.460602 191.848221,335.444855 
	C203.509338,345.017334 216.414566,351.862122 231.761337,355.966370 
z"/>
<path fill="#000000" opacity="1.000000" stroke="none" 
	d="
M231.393280,355.749573 
	C216.414566,351.862122 203.509338,345.017334 191.848221,335.444855 
	C173.594574,320.460602 162.084305,301.327332 157.331863,278.476746 
	C151.103989,248.532043 157.069214,220.959991 175.328644,196.077515 
	C188.480301,178.155472 205.742203,166.355682 226.734650,159.700180 
	C239.010254,155.808289 251.672897,153.858902 264.450806,155.124405 
	C285.904755,157.249130 305.337402,164.582764 322.225555,178.579605 
	C342.123535,195.070984 353.939240,216.206528 357.776428,241.289566 
	C362.365753,271.289368 354.791443,298.474457 335.357666,322.220764 
	C318.990143,342.220398 297.679047,353.365082 272.690674,357.904236 
	C258.989441,360.393097 245.292023,359.018188 231.393280,355.749573 
M250.928329,204.026855 
	C250.494293,204.266983 250.077194,204.677399 249.623764,204.722473 
	C236.263153,206.050903 225.872955,212.652420 216.997528,222.414581 
	C202.103912,238.796234 199.783432,263.322479 210.185852,282.060760 
	C220.862305,301.292664 241.242798,313.185699 265.613739,309.139221 
	C280.394562,306.685028 291.467804,299.269653 300.108917,287.494537 
	C308.819763,275.624390 311.371338,262.526794 309.113556,247.997498 
	C306.863525,233.518295 299.200165,222.703369 288.035675,214.052643 
	C277.420258,205.827347 265.007812,203.415527 250.928329,204.026855 
z"/>
<path fill="#FFFFFF" opacity="1.000000" stroke="none" 
	d="
M251.389832,204.014343 
	C265.007812,203.415527 277.420258,205.827347 288.035675,214.052643 
	C299.200165,222.703369 306.863525,233.518295 309.113556,247.997498 
	C311.371338,262.526794 308.819763,275.624390 300.108917,287.494537 
	C291.467804,299.269653 280.394562,306.685028 265.613739,309.139221 
	C241.242798,313.185699 220.862305,301.292664 210.185852,282.060760 
	C199.783432,263.322479 202.103912,238.796234 216.997528,222.414581 
	C225.872955,212.652420 236.263153,206.050903 249.623764,204.722473 
	C250.077194,204.677399 250.494293,204.266983 251.389832,204.014343 
z"/>
</svg>