<svg version="1.1" id="Layer_1" xmlns="http://www.w3.org/2000/svg" xmlns:xlink="http://www.w3.org/1999/xlink" x="0px" y="0px"
	 width="100%" viewBox="0 0 512 512" enable-background="new 0 0 512 512" xml:space="preserve">
<path fill="#27488F" opacity="1.000000" stroke="none" 
	d="
M257.000000,513.000000 
	C245.312439,513.000000 233.624878,513.000000 221.358856,512.665405 
	C215.288223,510.061279 211.458679,506.144836 210.219742,500.324646 
	C208.865356,493.962006 207.811920,487.512695 207.050751,481.051239 
	C205.570374,468.484985 201.251984,457.448486 190.947418,449.461914 
	C177.582703,439.103485 159.183548,436.335571 144.162979,446.388672 
	C137.001419,451.181793 130.038925,456.282776 123.114662,461.417419 
	C114.305237,467.949951 104.161728,467.397430 96.785187,459.540344 
	C83.219406,445.090820 69.130455,431.102631 54.741119,417.469360 
	C47.985664,411.068817 48.152187,402.288086 52.373455,395.351898 
	C55.495163,390.222443 59.308689,385.511139 62.856422,380.644470 
	C70.665024,369.932922 77.270126,358.880432 74.010384,344.713654 
	C70.687721,330.273438 63.638458,318.527985 49.209118,313.141235 
	C42.301254,310.562408 34.821495,309.345856 27.502666,308.078949 
	C17.546680,306.355591 7.022683,306.222076 1.000000,296.000000 
	C1.000000,271.312439 1.000000,246.624878 1.334586,221.358856 
	C3.940040,215.289597 7.848757,211.427170 13.676969,210.228134 
	C20.371489,208.850891 27.172869,207.968246 33.947750,207.011871 
	C46.078030,205.299484 56.855225,201.011337 64.535652,190.942230 
	C75.095016,177.098801 77.695427,159.566681 67.601128,144.171783 
	C62.877426,136.967636 57.719261,130.040009 52.583904,123.116188 
	C46.050541,114.307480 46.602329,104.162086 54.458382,96.786446 
	C68.907936,83.220505 82.896355,69.131554 96.529671,54.742054 
	C102.930878,47.985790 111.710510,48.151947 118.647079,52.372944 
	C123.776711,55.494396 128.487808,59.308331 133.354843,62.855652 
	C144.066727,70.662956 155.117798,77.271202 169.285690,74.010635 
	C183.726044,70.687363 195.471558,63.638641 200.858673,49.209476 
	C203.437714,42.301666 204.654160,34.821777 205.921021,27.502888 
	C207.644348,17.546808 207.777847,7.022747 218.000000,1.000000 
	C230.687561,1.000000 243.375122,1.000000 256.530884,1.468657 
	C257.041840,42.515808 257.084595,83.094307 256.661896,123.765488 
	C222.809860,124.546936 193.059402,135.136185 168.407455,157.857727 
	C130.673416,192.636887 116.462990,235.932159 127.353302,285.864594 
	C137.732529,333.453705 167.434143,365.537537 213.109314,382.637451 
	C227.287460,387.945496 242.108978,389.741486 257.102783,390.779449 
	C257.052490,431.817810 257.026245,472.408905 257.000000,513.000000 
z"/>
<path fill="#12254C" opacity="1.000000" stroke="none" 
	d="
M257.468658,513.000000 
	C257.026245,472.408905 257.052490,431.817810 257.113159,390.686035 
	C257.147614,390.145325 257.002960,390.025269 257.467285,390.077759 
	C267.487091,389.072296 277.240570,388.900177 286.566620,386.815704 
	C358.380615,370.764282 403.322510,298.966522 386.987152,227.362839 
	C373.079987,166.402832 317.970337,123.046135 257.074493,123.917953 
	C257.147308,123.859062 257.127380,123.672798 257.127380,123.672798 
	C257.084595,83.094307 257.041840,42.515808 256.999512,1.468657 
	C268.687561,1.000000 280.375122,1.000000 292.619293,1.344033 
	C298.648163,3.953774 302.479126,7.841774 303.739075,13.648925 
	C305.081726,19.837337 306.080688,26.114876 306.918182,32.395050 
	C308.291901,42.696342 311.037598,52.093506 318.376282,60.188969 
	C328.097382,70.912552 345.569305,76.317368 359.433441,72.319542 
	C371.570129,68.819824 380.425476,60.277515 390.130829,53.170975 
	C399.150055,46.566837 409.589142,46.346508 417.210724,54.487507 
	C430.745392,68.944550 444.841339,82.906311 459.216614,96.532852 
	C465.981995,102.945824 465.803894,111.744972 461.611725,118.610924 
	C458.491333,123.721474 454.641907,128.383743 451.175018,133.286545 
	C443.910919,143.559158 437.528900,153.767273 439.761047,167.613464 
	C442.685394,185.752945 455.843445,201.797516 475.999847,204.112625 
	C483.899567,205.019958 491.701416,206.760223 499.561493,208.037354 
	C505.788452,209.049118 509.315216,213.609116 513.000000,218.000000 
	C513.000000,242.687561 513.000000,267.375122 512.656006,292.619293 
	C510.045410,298.646515 506.161926,302.480713 500.352386,303.739136 
	C494.163177,305.079742 487.885834,306.080597 481.605438,306.918121 
	C471.303711,308.291901 461.899231,311.029724 453.804230,318.369873 
	C444.546570,326.764313 436.983032,345.085205 441.605804,359.456726 
	C445.467682,371.462799 453.720032,380.423859 460.827515,390.129028 
	C467.432922,399.148590 467.653442,409.589050 459.513245,417.209900 
	C445.055695,430.745087 431.093811,444.841980 417.466064,459.217255 
	C411.050385,465.984833 402.258057,465.804688 395.388702,461.611359 
	C390.278259,458.491730 385.617096,454.641357 380.714539,451.174805 
	C370.441833,443.911102 360.233429,437.524902 346.387726,439.762177 
	C328.211914,442.699066 312.202118,455.861877 309.887451,475.998230 
	C308.979340,483.898193 307.239716,491.700439 305.962708,499.560822 
	C304.951019,505.788025 300.391266,509.315216 296.000000,513.000000 
	C283.312439,513.000000 270.624878,513.000000 257.468658,513.000000 
z"/>
<path fill="#FFFFFF" opacity="1.000000" stroke="none" 
	d="
M217.531342,1.000000 
	C207.777847,7.022747 207.644348,17.546808 205.921021,27.502888 
	C204.654160,34.821777 203.437714,42.301666 200.858673,49.209476 
	C195.471558,63.638641 183.726044,70.687363 169.285690,74.010635 
	C155.117798,77.271202 144.066727,70.662956 133.354843,62.855652 
	C128.487808,59.308331 123.776711,55.494396 118.647079,52.372944 
	C111.710510,48.151947 102.930878,47.985790 96.529671,54.742054 
	C82.896355,69.131554 68.907936,83.220505 54.458382,96.786446 
	C46.602329,104.162086 46.050541,114.307480 52.583904,123.116188 
	C57.719261,130.040009 62.877426,136.967636 67.601128,144.171783 
	C77.695427,159.566681 75.095016,177.098801 64.535652,190.942230 
	C56.855225,201.011337 46.078030,205.299484 33.947750,207.011871 
	C27.172869,207.968246 20.371489,208.850891 13.676969,210.228134 
	C7.848757,211.427170 3.940040,215.289597 1.334586,220.890198 
	C1.000000,147.740128 1.000000,74.480255 1.000000,1.000000 
	C73.020744,1.000000 145.041718,1.000000 217.531342,1.000000 
z"/>
<path fill="#FFFFFF" opacity="1.000000" stroke="none" 
	d="
M296.468658,513.000000 
	C300.391266,509.315216 304.951019,505.788025 305.962708,499.560822 
	C307.239716,491.700439 308.979340,483.898193 309.887451,475.998230 
	C312.202118,455.861877 328.211914,442.699066 346.387726,439.762177 
	C360.233429,437.524902 370.441833,443.911102 380.714539,451.174805 
	C385.617096,454.641357 390.278259,458.491730 395.388702,461.611359 
	C402.258057,465.804688 411.050385,465.984833 417.466064,459.217255 
	C431.093811,444.841980 445.055695,430.745087 459.513245,417.209900 
	C467.653442,409.589050 467.432922,399.148590 460.827515,390.129028 
	C453.720032,380.423859 445.467682,371.462799 441.605804,359.456726 
	C436.983032,345.085205 444.546570,326.764313 453.804230,318.369873 
	C461.899231,311.029724 471.303711,308.291901 481.605438,306.918121 
	C487.885834,306.080597 494.163177,305.079742 500.352386,303.739136 
	C506.161926,302.480713 510.045410,298.646515 512.656006,293.087952 
	C513.000000,366.259857 513.000000,439.519745 513.000000,513.000000 
	C440.979248,513.000000 368.958282,513.000000 296.468658,513.000000 
z"/>
<path fill="#FFFFFF" opacity="1.000000" stroke="none" 
	d="
M513.000000,217.531342 
	C509.315216,213.609116 505.788452,209.049118 499.561493,208.037354 
	C491.701416,206.760223 483.899567,205.019958 475.999847,204.112625 
	C455.843445,201.797516 442.685394,185.752945 439.761047,167.613464 
	C437.528900,153.767273 443.910919,143.559158 451.175018,133.286545 
	C454.641907,128.383743 458.491333,123.721474 461.611725,118.610924 
	C465.803894,111.744972 465.981995,102.945824 459.216614,96.532852 
	C444.841339,82.906311 430.745392,68.944550 417.210724,54.487507 
	C409.589142,46.346508 399.150055,46.566837 390.130829,53.170975 
	C380.425476,60.277515 371.570129,68.819824 359.433441,72.319542 
	C345.569305,76.317368 328.097382,70.912552 318.376282,60.188969 
	C311.037598,52.093506 308.291901,42.696342 306.918182,32.395050 
	C306.080688,26.114876 305.081726,19.837337 303.739075,13.648925 
	C302.479126,7.841774 298.648163,3.953774 293.087952,1.344033 
	C366.259857,1.000000 439.519745,1.000000 513.000000,1.000000 
	C513.000000,73.020744 513.000000,145.041718 513.000000,217.531342 
z"/>
<path fill="#FFFFFF" opacity="1.000000" stroke="none" 
	d="
M1.000000,296.468658 
	C7.022683,306.222076 17.546680,306.355591 27.502666,308.078949 
	C34.821495,309.345856 42.301254,310.562408 49.209118,313.141235 
	C63.638458,318.527985 70.687721,330.273438 74.010384,344.713654 
	C77.270126,358.880432 70.665024,369.932922 62.856422,380.644470 
	C59.308689,385.511139 55.495163,390.222443 52.373455,395.351898 
	C48.152187,402.288086 47.985664,411.068817 54.741119,417.469360 
	C69.130455,431.102631 83.219406,445.090820 96.785187,459.540344 
	C104.161728,467.397430 114.305237,467.949951 123.114662,461.417419 
	C130.038925,456.282776 137.001419,451.181793 144.162979,446.388672 
	C159.183548,436.335571 177.582703,439.103485 190.947418,449.461914 
	C201.251984,457.448486 205.570374,468.484985 207.050751,481.051239 
	C207.811920,487.512695 208.865356,493.962006 210.219742,500.324646 
	C211.458679,506.144836 215.288223,510.061279 220.890198,512.665405 
	C147.740143,513.000000 74.480278,513.000000 1.000000,513.000000 
	C1.000000,440.979248 1.000000,368.958282 1.000000,296.468658 
z"/>
<path fill="#19CEFB" opacity="1.000000" stroke="none" 
	d="
M257.137238,390.238770 
	C242.108978,389.741486 227.287460,387.945496 213.109314,382.637451 
	C167.434143,365.537537 137.732529,333.453705 127.353302,285.864594 
	C116.462990,235.932159 130.673416,192.636887 168.407455,157.857727 
	C193.059402,135.136185 222.809860,124.546936 256.661926,123.765488 
	C257.127380,123.672798 257.147308,123.859062 257.074829,124.388290 
	C257.015778,135.114944 257.029205,145.312378 256.579956,155.584625 
	C249.997055,156.216263 243.772797,156.240952 237.773117,157.414185 
	C190.557449,166.647430 156.478027,206.563950 155.945984,254.725861 
	C155.465973,298.176300 175.826859,329.598511 214.536423,349.046143 
	C227.834473,355.727051 242.249237,358.148712 257.027771,358.927979 
	C257.009613,369.585510 257.006287,379.805389 257.002960,390.025269 
	C257.002960,390.025269 257.147614,390.145325 257.137238,390.238770 
z"/>
<path fill="#49B7F6" opacity="1.000000" stroke="none" 
	d="
M257.467285,390.077759 
	C257.006287,379.805389 257.009613,369.585510 257.049316,358.791687 
	C257.085724,358.217712 256.996460,357.956635 257.455719,358.010040 
	C266.915558,356.801331 276.183258,356.509918 284.873077,354.118530 
	C338.506958,339.358826 369.451385,283.401337 354.331726,229.279846 
	C342.189178,185.815002 300.841370,154.704346 257.041168,155.912842 
	C257.085876,155.782318 257.042633,155.509796 257.042603,155.509796 
	C257.029205,145.312378 257.015778,135.114944 257.002014,124.447189 
	C317.970337,123.046135 373.079987,166.402832 386.987152,227.362839 
	C403.322510,298.966522 358.380615,370.764282 286.566620,386.815704 
	C277.240570,388.900177 267.487091,389.072296 257.467285,390.077759 
z"/>
<path fill="#27488F" opacity="1.000000" stroke="none" 
	d="
M257.064178,358.354004 
	C242.249237,358.148712 227.834473,355.727051 214.536423,349.046143 
	C175.826859,329.598511 155.465973,298.176300 155.945984,254.725861 
	C156.478027,206.563950 190.557449,166.647430 237.773117,157.414185 
	C243.772797,156.240952 249.997055,156.216263 256.579956,155.584625 
	C257.042633,155.509796 257.085876,155.782318 257.041016,156.378418 
	C257.024017,172.588562 257.051849,188.202606 256.635986,203.896149 
	C246.974747,204.314102 238.152145,206.193405 230.293976,211.239685 
	C216.272903,220.243622 207.087891,232.298264 204.698059,249.409851 
	C202.996475,261.593475 204.761612,272.939148 210.917389,283.210358 
	C221.249237,300.449463 236.776703,309.604858 257.061707,310.640076 
	C257.027771,326.716827 257.012115,342.336731 256.996460,357.956635 
	C256.996460,357.956635 257.085724,358.217712 257.064178,358.354004 
z"/>
<path fill="#12254D" opacity="1.000000" stroke="none" 
	d="
M257.079712,203.816650 
	C257.051849,188.202606 257.024017,172.588562 256.996338,156.508942 
	C300.841370,154.704346 342.189178,185.815002 354.331726,229.279846 
	C369.451385,283.401337 338.506958,339.358826 284.873077,354.118530 
	C276.183258,356.509918 266.915558,356.801331 257.455719,358.010040 
	C257.012115,342.336731 257.027771,326.716827 257.493561,310.573120 
	C267.023346,309.860474 275.724915,307.895538 283.400482,303.032166 
	C297.562103,294.059052 306.901947,281.923981 309.345520,264.617737 
	C311.045258,252.579849 309.396545,241.257828 303.449188,231.212357 
	C293.193878,213.890442 277.675018,204.249634 257.079712,203.816650 
z"/>
<path fill="#FFFFFF" opacity="1.000000" stroke="none" 
	d="
M256.635986,203.896149 
	C277.675018,204.249634 293.193878,213.890442 303.449188,231.212357 
	C309.396545,241.257828 311.045258,252.579849 309.345520,264.617737 
	C306.901947,281.923981 297.562103,294.059052 283.400482,303.032166 
	C275.724915,307.895538 267.023346,309.860474 257.511841,310.116302 
	C236.776703,309.604858 221.249237,300.449463 210.917389,283.210358 
	C204.761612,272.939148 202.996475,261.593475 204.698059,249.409851 
	C207.087891,232.298264 216.272903,220.243622 230.293976,211.239685 
	C238.152145,206.193405 246.974747,204.314102 256.635986,203.896149 
z"/>
</svg>