<svg version="1.1" id="Layer_1" xmlns="http://www.w3.org/2000/svg" xmlns:xlink="http://www.w3.org/1999/xlink" x="0px" y="0px"
	 width="100%" viewBox="0 0 512 512" enable-background="new 0 0 512 512" xml:space="preserve">
<path fill="#000000" opacity="1.000000" stroke="none" 
	d="
M224.000000,1.000000 
	C245.020889,1.000000 266.041779,1.000000 287.856232,1.131234 
	C305.233398,6.922258 313.369446,18.248583 313.375427,35.692123 
	C313.379181,46.680729 313.673157,57.680992 313.242188,68.652664 
	C313.048187,73.590950 314.891266,76.118279 319.277344,77.389809 
	C326.967346,79.619164 334.336945,82.647293 341.297699,86.587311 
	C344.354645,88.317650 346.385437,87.448906 348.669556,85.114769 
	C356.936310,76.666992 365.570526,68.572777 373.699768,59.997887 
	C386.182983,46.830276 410.918945,46.668953 423.466064,60.063705 
	C433.248993,70.507561 443.639313,80.383247 453.780609,90.490433 
	C467.927338,104.589584 467.952393,126.168434 453.800354,140.390656 
	C445.462769,148.769653 437.117065,157.140717 428.741302,165.481491 
	C426.870880,167.344101 425.396179,169.047272 427.062408,171.947830 
	C431.301819,179.327698 434.384613,187.219666 436.878296,195.345520 
	C438.041229,199.135010 440.227997,200.854202 444.550140,200.727844 
	C455.529327,200.406830 466.544373,201.048431 477.508148,200.527267 
	C494.397827,199.724426 508.132385,209.754105 513.000000,226.000000 
	C513.000000,246.354233 513.000000,266.708466 512.943909,287.880005 
	C507.603760,304.438599 493.815735,314.407867 477.225342,313.490265 
	C466.759857,312.911469 456.219879,313.737701 445.744568,313.255096 
	C440.084778,312.994354 437.584229,315.343079 436.225281,320.335175 
	C434.296875,327.419495 431.459869,334.196777 427.759125,340.519684 
	C425.642975,344.135254 426.502991,346.431091 429.291840,349.130768 
	C437.910278,357.473663 446.386597,365.967407 454.778992,374.538757 
	C467.752350,387.788788 467.546570,409.691772 454.506561,422.640594 
	C444.219971,432.855194 433.664459,442.826172 423.825989,453.458313 
	C410.652588,467.694427 385.820587,467.166107 372.982452,453.286652 
	C365.294647,444.975250 356.992615,437.233185 349.004761,429.197357 
	C347.010895,427.191559 344.987854,425.529144 342.014526,427.151001 
	C334.251434,431.385498 326.046082,434.548401 317.656647,437.266083 
	C314.268463,438.363617 313.274628,440.675446 313.317963,444.140656 
	C313.474213,456.635925 313.577728,469.138977 313.299713,481.630127 
	C313.121094,489.657074 310.247070,496.655029 304.596130,502.750000 
	C300.369385,507.308899 294.899017,509.647919 290.000000,513.000000 
	C267.979095,513.000000 245.958206,513.000000 223.298187,512.716675 
	C221.562454,511.700775 220.518204,510.870483 219.361206,510.250702 
	C206.969879,503.612549 200.575638,493.386169 200.620453,479.228912 
	C200.656845,467.730743 200.404495,456.225800 200.740723,444.737335 
	C200.872513,440.234283 199.182495,437.883942 195.140335,436.716309 
	C187.768555,434.586914 180.617172,431.860382 173.979248,428.007690 
	C170.320145,425.883942 167.647949,426.428833 164.741776,429.420868 
	C156.499710,437.906433 148.035889,446.176331 139.678558,454.550293 
	C126.591446,467.663422 104.720093,467.793304 91.594643,454.770264 
	C81.303169,444.559082 71.464684,433.850861 60.709446,424.157349 
	C45.842506,410.758118 46.371429,386.454681 60.605690,373.004913 
	C68.959770,365.111267 76.918541,356.799133 85.050629,348.670776 
	C86.735939,346.986237 88.511955,345.235474 87.082497,342.594818 
	C82.631042,334.371552 79.401123,325.645477 76.351143,316.844757 
	C75.358437,313.980286 73.324120,313.333710 70.516174,313.358093 
	C59.018787,313.457916 47.505669,313.030640 36.025116,313.480560 
	C19.321684,314.135193 6.164781,304.186340 1.000000,288.000000 
	C1.000000,266.979095 1.000000,245.958206 1.194071,224.191330 
	C1.880349,222.583130 2.415938,221.742538 2.858252,220.855438 
	C9.576736,207.380981 20.224142,200.360474 35.513748,200.591888 
	C46.676704,200.760849 57.852810,200.372955 69.005692,200.748611 
	C73.745850,200.908264 76.116257,199.064880 77.340332,194.861679 
	C79.487862,187.487518 82.249657,180.346344 86.087173,173.684998 
	C88.076118,170.232498 87.588097,167.703720 84.696083,164.904648 
	C76.195633,156.677353 67.880737,148.255356 59.597691,139.807129 
	C46.067745,126.007362 46.154778,104.602524 59.735905,90.961304 
	C69.963631,80.688324 80.526382,70.729797 90.402100,60.130142 
	C103.654091,45.906723 127.241325,46.398289 140.828949,60.469757 
	C148.929993,68.859283 157.305069,76.983849 165.526428,85.257858 
	C167.395386,87.138771 169.100677,88.505577 172.011032,86.876259 
	C179.434906,82.720123 187.282593,79.507042 195.447769,77.080605 
	C199.300278,75.935760 200.824234,73.552727 200.726761,69.306114 
	C200.443832,56.980686 200.465073,44.641167 200.699387,32.313496 
	C200.852570,24.253754 203.759018,17.274841 209.354828,11.156136 
	C213.558762,6.559377 219.078552,4.311412 224.000000,1.000000 
M414.063904,203.269180 
	C410.703247,194.219711 407.000031,185.306290 402.295654,176.873825 
	C396.644775,166.744812 397.071167,162.692657 405.316650,154.458633 
	C414.986145,144.802551 424.680420,135.171188 434.332184,125.497452 
	C441.780701,118.031975 441.760651,112.962479 434.403992,105.647858 
	C425.777008,97.070152 417.194397,88.447769 408.561951,79.875595 
	C400.782593,72.150581 396.065369,72.163490 388.289886,79.915184 
	C378.022278,90.151451 367.814026,100.447464 357.514252,110.651184 
	C352.265289,115.851181 346.904541,117.215797 340.758881,113.727913 
	C327.370972,106.129730 313.170746,100.715836 298.555695,96.097015 
	C291.594879,93.897179 289.643372,90.414474 289.632172,82.866112 
	C289.609924,67.867165 289.672699,52.867908 289.599731,37.869270 
	C289.554962,28.666313 285.247253,24.417177 276.181244,24.405207 
	C263.848785,24.388922 251.516266,24.397074 239.183777,24.400476 
	C228.329010,24.403473 224.410599,28.242317 224.381592,39.039070 
	C224.341721,53.871300 224.387451,68.703743 224.353729,83.535995 
	C224.338226,90.357368 222.086319,93.678162 215.860703,96.097115 
	C213.694183,96.938904 211.467361,97.650314 209.226791,98.272522 
	C197.630417,101.492874 186.668488,106.278374 176.221985,112.155701 
	C167.524261,117.049164 162.386612,116.626534 155.322723,109.554588 
	C145.194199,99.414505 135.100586,89.239120 124.920258,79.151306 
	C117.941277,72.235748 113.019356,72.249283 106.174660,79.060486 
	C97.314949,87.876839 88.491158,96.729286 79.652168,105.566460 
	C72.097305,113.119774 72.110390,117.763451 79.708145,125.365540 
	C90.072647,135.735977 100.466965,146.076859 110.789757,156.488663 
	C115.905136,161.648148 117.086601,167.492905 113.493294,173.775909 
	C106.099869,186.703506 100.823982,200.442566 96.384941,214.593994 
	C93.939735,222.389160 90.855888,224.356522 82.808846,224.368439 
	C67.809891,224.390671 52.810375,224.317886 37.812126,224.427017 
	C28.460161,224.495087 24.393641,228.661179 24.379454,237.841370 
	C24.360397,250.173843 24.371387,262.506348 24.376450,274.838837 
	C24.380888,285.655884 28.250881,289.588989 39.035542,289.614807 
	C53.867786,289.650330 68.700226,289.604858 83.532478,289.639221 
	C90.351257,289.655029 93.621284,291.897156 96.036644,298.194336 
	C96.927376,300.516602 97.630310,302.914154 98.350121,305.298126 
	C101.775459,316.642822 106.299240,327.535156 112.259453,337.771210 
	C117.078552,346.047577 116.605804,351.583160 109.871376,358.336517 
	C99.751617,368.484741 89.558685,378.560486 79.492470,388.761383 
	C72.104492,396.248260 72.200172,400.933350 79.510101,408.220276 
	C88.243759,416.926544 96.935204,425.675140 105.658539,434.391815 
	C113.218529,441.946045 117.782410,441.958038 125.435066,434.338959 
	C135.827591,423.992004 146.137192,413.561676 156.541321,403.226501 
	C161.737442,398.064728 167.453186,396.876343 173.803787,400.507446 
	C186.731247,407.898926 200.448105,413.221344 214.613602,417.615967 
	C222.288101,419.996857 224.344681,423.158722 224.357117,431.229980 
	C224.380219,446.228912 224.306107,461.228363 224.400757,476.226746 
	C224.459000,485.455322 228.738068,489.611633 237.885025,489.623230 
	C250.050842,489.638611 262.216705,489.624512 274.382538,489.619476 
	C285.865295,489.614746 289.600983,485.915192 289.618317,474.456177 
	C289.640503,459.790558 289.600555,445.124786 289.641449,430.459229 
	C289.660400,423.661865 291.991180,420.260498 298.171204,417.888397 
	C300.341309,417.055450 302.562378,416.330902 304.802216,415.708130 
	C316.244965,412.526703 327.048370,407.773499 337.388885,402.033417 
	C346.841400,396.786346 351.783325,397.354553 359.496887,405.141449 
	C369.346680,415.084930 379.208252,425.018829 389.200623,434.818268 
	C396.224823,441.706848 401.096619,441.574707 408.015198,434.671692 
	C416.744049,425.962402 425.437927,417.218018 434.166321,408.508270 
	C441.851715,400.839264 441.868652,396.098206 434.119751,388.319305 
	C423.769775,377.929352 413.346008,367.612396 403.050934,357.168488 
	C398.066223,352.111694 396.981384,346.301819 400.422485,340.307098 
	C407.752777,327.537018 413.015930,313.963287 417.419220,299.970398 
	C420.129181,291.358673 422.926697,289.619537 432.079224,289.622742 
	C446.578247,289.627777 461.077362,289.661255 475.576233,289.616058 
	C485.397339,289.585449 489.614716,285.372131 489.621399,275.737579 
	C489.629974,263.405090 489.626831,251.072586 489.622131,238.740097 
	C489.618225,228.417801 485.589233,224.415085 475.087830,224.396500 
	C460.255524,224.370224 445.423126,224.418915 430.590881,224.381470 
	C423.731812,224.364151 420.002991,221.790131 417.800446,215.435333 
	C416.497742,211.676819 415.505066,207.810822 414.063904,203.269180 
z"/>
<path fill="#000000" opacity="1.000000" stroke="none" 
	d="
M194.451859,177.386047 
	C207.357391,167.570877 221.302811,160.573471 236.925797,157.823273 
	C267.341492,152.469040 295.338715,158.427628 319.871124,177.716873 
	C340.045715,193.579666 352.189667,214.373779 356.448364,239.713791 
	C361.719696,271.079041 354.013306,299.243958 333.591583,323.242706 
	C318.208527,341.320282 298.241638,352.598694 274.444183,356.491638 
	C252.147675,360.139038 230.815903,357.426941 210.754044,346.886017 
	C181.191360,331.353088 163.178360,307.038208 157.627579,274.114471 
	C151.612808,238.438660 162.453064,208.013931 188.056046,182.700119 
	C189.934570,180.842819 192.127319,179.303314 194.451859,177.386047 
M325.530457,221.897766 
	C320.126984,213.099091 314.141266,204.877151 306.082947,198.145950 
	C293.954193,188.014633 280.116241,181.805832 264.558868,180.540405 
	C238.246323,178.400223 216.083374,187.234436 198.607468,207.459488 
	C188.260056,219.434677 182.157181,233.231583 180.506012,248.784088 
	C177.117050,280.704742 194.460754,311.941101 223.091400,325.904449 
	C256.495331,342.195679 295.372498,333.116119 317.838409,303.475006 
	C336.794617,278.464508 338.681244,251.080872 325.530457,221.897766 
z"/>
</svg>